STARTFONT 2.1
COMMENT
COMMENT Converted from OpenType font "Q:\font stuff\winfont\DejaVuSans.ttf" by "otf2bdf 3.0".
COMMENT
FONT -FreeType-DejaVu Sans-Medium-R-Normal--26-260-72-72-P-147-ISO10646-1
SIZE 26 72 72
FONTBOUNDINGBOX 70 39 -26 -11
STARTPROPERTIES 19
FOUNDRY "FreeType"
FAMILY_NAME "DejaVu Sans"
WEIGHT_NAME "Medium"
SLANT "R"
SETWIDTH_NAME "Normal"
ADD_STYLE_NAME ""
PIXEL_SIZE 26
POINT_SIZE 260
RESOLUTION_X 72
RESOLUTION_Y 72
SPACING "P"
AVERAGE_WIDTH 147
CHARSET_REGISTRY "ISO10646"
CHARSET_ENCODING "1"
FONT_ASCENT 24
FONT_DESCENT 6
COPYRIGHT "Copyright (c) 2003 by Bitstream, Inc. All Rights Reserved.  Copyright (c) 2006 by Tavmjong Bah. All Rights Reserved.  DejaVu changes are in public domain  "
_OTF_FONTFILE "Q:\font stuff\winfont\DejaVuSans.ttf"
_OTF_PSNAME "DejaVuSans"
ENDPROPERTIES
CHARS 5180
STARTCHAR 0020
ENCODING 32
SWIDTH 307 0
DWIDTH 8 0
BBX 0 0 0 0
BITMAP
ENDCHAR
STARTCHAR 0021
ENCODING 33
SWIDTH 384 0
DWIDTH 10 0
BBX 3 19 4 0
BITMAP
E0
E0
E0
E0
E0
E0
E0
E0
E0
E0
E0
E0
E0
00
00
00
E0
E0
E0
ENDCHAR
STARTCHAR 0022
ENCODING 34
SWIDTH 461 0
DWIDTH 12 0
BBX 7 7 2 12
BITMAP
C6
C6
C6
C6
C6
C6
C6
ENDCHAR
STARTCHAR 0023
ENCODING 35
SWIDTH 846 0
DWIDTH 22 0
BBX 18 18 2 0
BITMAP
018600
018600
018600
038C00
030C00
7FFFC0
7FFFC0
071800
061800
061800
063800
FFFF80
FFFF80
0C3000
0C7000
186000
186000
186000
ENDCHAR
STARTCHAR 0024
ENCODING 36
SWIDTH 653 0
DWIDTH 17 0
BBX 12 24 2 -4
BITMAP
0400
0400
0400
1F80
7FE0
F460
E400
E400
E400
FC00
7F00
3FC0
07E0
04F0
0470
0470
0470
84E0
FFE0
3F80
0400
0400
0400
0400
ENDCHAR
STARTCHAR 0025
ENCODING 37
SWIDTH 961 0
DWIDTH 25 0
BBX 22 19 1 0
BITMAP
3E01C0
7F0180
E30300
C18700
C18600
C18E00
C18C00
E39800
7F3800
3E31F0
0073F8
006718
00C60C
01C60C
01860C
03860C
03071C
0603F8
0E01F0
ENDCHAR
STARTCHAR 0026
ENCODING 38
SWIDTH 769 0
DWIDTH 20 0
BBX 17 19 1 0
BITMAP
0FC000
1FE000
3C2000
380000
380000
380000
3C0000
3E0000
3F0000
7F0380
678380
E3C300
E1E700
E0F600
E07C00
F03C00
787E00
3FEF00
0F8780
ENDCHAR
STARTCHAR 0027
ENCODING 39
SWIDTH 269 0
DWIDTH 7 0
BBX 2 7 2 12
BITMAP
C0
C0
C0
C0
C0
C0
C0
ENDCHAR
STARTCHAR 0028
ENCODING 40
SWIDTH 384 0
DWIDTH 10 0
BBX 6 23 2 -3
BITMAP
0C
18
18
30
30
70
70
60
E0
E0
E0
E0
E0
E0
E0
60
70
70
30
30
18
18
0C
ENDCHAR
STARTCHAR 0029
ENCODING 41
SWIDTH 384 0
DWIDTH 10 0
BBX 6 23 2 -3
BITMAP
C0
60
60
30
30
38
38
18
1C
1C
1C
1C
1C
1C
1C
18
38
38
30
30
60
60
C0
ENDCHAR
STARTCHAR 002A
ENCODING 42
SWIDTH 500 0
DWIDTH 13 0
BBX 11 12 1 7
BITMAP
0400
0400
C460
E4E0
3F80
0E00
0E00
3F80
E4E0
C460
0400
0400
ENDCHAR
STARTCHAR 002B
ENCODING 43
SWIDTH 846 0
DWIDTH 22 0
BBX 16 16 3 0
BITMAP
0180
0180
0180
0180
0180
0180
0180
FFFF
FFFF
0180
0180
0180
0180
0180
0180
0180
ENDCHAR
STARTCHAR 002C
ENCODING 44
SWIDTH 307 0
DWIDTH 8 0
BBX 4 6 2 -3
BITMAP
70
70
70
60
E0
C0
ENDCHAR
STARTCHAR 002D
ENCODING 45
SWIDTH 346 0
DWIDTH 9 0
BBX 7 2 1 6
BITMAP
FE
FE
ENDCHAR
STARTCHAR 002E
ENCODING 46
SWIDTH 307 0
DWIDTH 8 0
BBX 3 3 3 0
BITMAP
E0
E0
E0
ENDCHAR
STARTCHAR 002F
ENCODING 47
SWIDTH 346 0
DWIDTH 9 0
BBX 9 21 0 -2
BITMAP
0180
0380
0300
0300
0700
0600
0600
0E00
0C00
0C00
1C00
1800
1800
3800
3000
3000
7000
6000
6000
E000
C000
ENDCHAR
STARTCHAR 0030
ENCODING 48
SWIDTH 653 0
DWIDTH 17 0
BBX 13 19 2 0
BITMAP
0F80
3FE0
38E0
7070
7070
E038
E038
E038
E038
E038
E038
E038
E038
E038
7070
7070
38E0
3FE0
0F80
ENDCHAR
STARTCHAR 0031
ENCODING 49
SWIDTH 653 0
DWIDTH 17 0
BBX 12 19 2 0
BITMAP
1F00
FF00
E700
0700
0700
0700
0700
0700
0700
0700
0700
0700
0700
0700
0700
0700
0700
7FF0
7FF0
ENDCHAR
STARTCHAR 0032
ENCODING 50
SWIDTH 653 0
DWIDTH 17 0
BBX 12 19 2 0
BITMAP
3F00
FFC0
E1E0
80F0
0070
0070
0070
00F0
00F0
01E0
03C0
0780
0F00
1E00
3C00
7800
F800
FFF0
FFF0
ENDCHAR
STARTCHAR 0033
ENCODING 51
SWIDTH 653 0
DWIDTH 17 0
BBX 12 19 2 0
BITMAP
3F00
7FC0
41C0
00E0
00E0
00E0
00E0
01C0
1F80
1F80
01E0
00F0
0070
0070
0070
00F0
81E0
FFC0
3F00
ENDCHAR
STARTCHAR 0034
ENCODING 52
SWIDTH 653 0
DWIDTH 17 0
BBX 14 19 1 0
BITMAP
01E0
01E0
03E0
07E0
06E0
0CE0
1CE0
18E0
30E0
70E0
60E0
C0E0
FFFC
FFFC
00E0
00E0
00E0
00E0
00E0
ENDCHAR
STARTCHAR 0035
ENCODING 53
SWIDTH 653 0
DWIDTH 17 0
BBX 12 19 2 0
BITMAP
7FE0
7FE0
7000
7000
7000
7000
7F80
7FC0
41E0
00E0
0070
0070
0070
0070
0070
00E0
81E0
FFC0
3F00
ENDCHAR
STARTCHAR 0036
ENCODING 54
SWIDTH 653 0
DWIDTH 17 0
BBX 13 19 2 0
BITMAP
07E0
1FF0
3C10
7800
7000
7000
E000
E7C0
EFE0
F8F0
F078
E038
E038
E038
6038
7078
38F0
1FE0
0FC0
ENDCHAR
STARTCHAR 0037
ENCODING 55
SWIDTH 653 0
DWIDTH 17 0
BBX 12 19 2 0
BITMAP
FFF0
FFF0
00F0
00E0
00E0
01E0
01C0
01C0
03C0
0380
0380
0780
0700
0700
0F00
0E00
0E00
1E00
1C00
ENDCHAR
STARTCHAR 0038
ENCODING 56
SWIDTH 653 0
DWIDTH 17 0
BBX 13 19 2 0
BITMAP
1FC0
7FF0
7070
E038
E038
E038
E038
7070
1FC0
3FE0
78F0
E078
E038
E038
E038
E078
70F0
3FE0
1FC0
ENDCHAR
STARTCHAR 0039
ENCODING 57
SWIDTH 653 0
DWIDTH 17 0
BBX 13 19 2 0
BITMAP
0F80
3FC0
78E0
F070
E030
E038
E038
E038
F078
78F8
3FB8
1F38
0038
0070
0070
00F0
41E0
7FC0
3F00
ENDCHAR
STARTCHAR 003A
ENCODING 58
SWIDTH 346 0
DWIDTH 9 0
BBX 3 13 3 0
BITMAP
E0
E0
E0
00
00
00
00
00
00
00
E0
E0
E0
ENDCHAR
STARTCHAR 003B
ENCODING 59
SWIDTH 346 0
DWIDTH 9 0
BBX 4 16 2 -3
BITMAP
70
70
70
00
00
00
00
00
00
00
70
70
70
60
E0
C0
ENDCHAR
STARTCHAR 003C
ENCODING 60
SWIDTH 846 0
DWIDTH 22 0
BBX 16 14 3 1
BITMAP
0001
000F
007E
01F0
0FC0
7E00
F000
F000
7E00
0FC0
01F0
007E
000F
0001
ENDCHAR
STARTCHAR 003D
ENCODING 61
SWIDTH 846 0
DWIDTH 22 0
BBX 16 7 3 5
BITMAP
FFFF
FFFF
0000
0000
0000
FFFF
FFFF
ENDCHAR
STARTCHAR 003E
ENCODING 62
SWIDTH 846 0
DWIDTH 22 0
BBX 16 14 3 1
BITMAP
8000
F000
7E00
0F80
03F0
007E
000F
000F
007E
03F0
0F80
7E00
F000
8000
ENDCHAR
STARTCHAR 003F
ENCODING 63
SWIDTH 538 0
DWIDTH 14 0
BBX 10 19 2 0
BITMAP
3E00
7F80
C3C0
81C0
01C0
01C0
0180
0380
0600
0E00
1C00
1C00
1C00
1C00
0000
0000
1C00
1C00
1C00
ENDCHAR
STARTCHAR 0040
ENCODING 64
SWIDTH 1000 0
DWIDTH 26 0
BBX 23 23 2 -5
BITMAP
00FE00
03FFC0
0F81E0
1C0070
380018
30000C
60798C
61FF86
C1C786
C38386
C30186
C30186
C3018E
C3038C
C18798
61FFF0
6079C0
300000
380000
1C0060
0F01E0
03FF80
00FE00
ENDCHAR
STARTCHAR 0041
ENCODING 65
SWIDTH 692 0
DWIDTH 18 0
BBX 17 19 0 0
BITMAP
01C000
01C000
03E000
03E000
07F000
077000
077000
0F3800
0E3800
0E3800
1C1C00
1C1C00
3FFE00
3FFE00
380E00
780F00
700700
700700
E00380
ENDCHAR
STARTCHAR 0042
ENCODING 66
SWIDTH 692 0
DWIDTH 18 0
BBX 13 19 2 0
BITMAP
FF80
FFE0
E0E0
E070
E070
E070
E070
E0E0
FFC0
FFC0
E070
E030
E038
E038
E038
E038
E070
FFE0
FFC0
ENDCHAR
STARTCHAR 0043
ENCODING 67
SWIDTH 692 0
DWIDTH 18 0
BBX 15 19 1 0
BITMAP
03F0
0FFC
3E0E
3806
7000
7000
E000
E000
E000
E000
E000
E000
E000
7000
7000
3806
3E0E
0FFC
03F0
ENDCHAR
STARTCHAR 0044
ENCODING 68
SWIDTH 769 0
DWIDTH 20 0
BBX 16 19 2 0
BITMAP
FFC0
FFF0
E07C
E01C
E00E
E00E
E007
E007
E007
E007
E007
E007
E007
E00E
E00E
E01C
E07C
FFF0
FFC0
ENDCHAR
STARTCHAR 0045
ENCODING 69
SWIDTH 615 0
DWIDTH 16 0
BBX 12 19 2 0
BITMAP
FFF0
FFF0
E000
E000
E000
E000
E000
E000
FFE0
FFE0
E000
E000
E000
E000
E000
E000
E000
FFF0
FFF0
ENDCHAR
STARTCHAR 0046
ENCODING 70
SWIDTH 576 0
DWIDTH 15 0
BBX 11 19 2 0
BITMAP
FFE0
FFE0
E000
E000
E000
E000
E000
E000
FFC0
FFC0
E000
E000
E000
E000
E000
E000
E000
E000
E000
ENDCHAR
STARTCHAR 0047
ENCODING 71
SWIDTH 769 0
DWIDTH 20 0
BBX 17 19 1 0
BITMAP
03F800
0FFE00
1E0F00
380300
700100
700000
E00000
E00000
E00000
E03F80
E03F80
E00380
E00380
700380
700380
380380
1E0780
0FFF00
03FC00
ENDCHAR
STARTCHAR 0048
ENCODING 72
SWIDTH 769 0
DWIDTH 20 0
BBX 14 19 2 0
BITMAP
E01C
E01C
E01C
E01C
E01C
E01C
E01C
E01C
FFFC
FFFC
E01C
E01C
E01C
E01C
E01C
E01C
E01C
E01C
E01C
ENDCHAR
STARTCHAR 0049
ENCODING 73
SWIDTH 307 0
DWIDTH 8 0
BBX 3 19 2 0
BITMAP
E0
E0
E0
E0
E0
E0
E0
E0
E0
E0
E0
E0
E0
E0
E0
E0
E0
E0
E0
ENDCHAR
STARTCHAR 004A
ENCODING 74
SWIDTH 307 0
DWIDTH 8 0
BBX 7 24 -2 -5
BITMAP
0E
0E
0E
0E
0E
0E
0E
0E
0E
0E
0E
0E
0E
0E
0E
0E
0E
0E
0E
0E
0E
1C
FC
F0
ENDCHAR
STARTCHAR 004B
ENCODING 75
SWIDTH 653 0
DWIDTH 17 0
BBX 15 19 2 0
BITMAP
E03C
E078
E0F0
E1E0
E3C0
E780
EF00
FE00
FC00
FC00
FE00
EF00
E780
E3C0
E1E0
E0F0
E078
E03C
E01E
ENDCHAR
STARTCHAR 004C
ENCODING 76
SWIDTH 538 0
DWIDTH 14 0
BBX 12 19 2 0
BITMAP
E000
E000
E000
E000
E000
E000
E000
E000
E000
E000
E000
E000
E000
E000
E000
E000
E000
FFF0
FFF0
ENDCHAR
STARTCHAR 004D
ENCODING 77
SWIDTH 846 0
DWIDTH 22 0
BBX 17 19 2 0
BITMAP
FC1F80
FC1F80
FC1F80
FE3F80
EE3B80
EE3B80
EF7B80
E77380
E77380
E7F380
E3E380
E3E380
E1E380
E1C380
E1C380
E00380
E00380
E00380
E00380
ENDCHAR
STARTCHAR 004E
ENCODING 78
SWIDTH 730 0
DWIDTH 19 0
BBX 14 19 2 0
BITMAP
F01C
F81C
F81C
FC1C
FC1C
FE1C
EE1C
EF1C
E71C
E79C
E39C
E3DC
E1DC
E1FC
E0FC
E0FC
E07C
E07C
E03C
ENDCHAR
STARTCHAR 004F
ENCODING 79
SWIDTH 769 0
DWIDTH 20 0
BBX 18 19 1 0
BITMAP
03F000
0FFC00
1E1E00
380700
700380
700380
E001C0
E001C0
E001C0
E001C0
E001C0
E001C0
E001C0
700380
700380
380700
1E1E00
0FFC00
03F000
ENDCHAR
STARTCHAR 0050
ENCODING 80
SWIDTH 615 0
DWIDTH 16 0
BBX 12 19 2 0
BITMAP
FF80
FFE0
E0E0
E070
E070
E070
E070
E070
E0E0
FFE0
FF80
E000
E000
E000
E000
E000
E000
E000
E000
ENDCHAR
STARTCHAR 0051
ENCODING 81
SWIDTH 769 0
DWIDTH 20 0
BBX 18 22 1 -3
BITMAP
03F000
0FFC00
1E1E00
380700
700380
700380
E001C0
E001C0
E001C0
E001C0
E001C0
E001C0
E001C0
700380
700380
380700
1E1E00
0FFC00
03F800
001C00
000E00
000700
ENDCHAR
STARTCHAR 0052
ENCODING 82
SWIDTH 692 0
DWIDTH 18 0
BBX 15 19 2 0
BITMAP
FF80
FFE0
E0E0
E070
E070
E070
E070
E070
E0E0
FFC0
FF80
E1C0
E0E0
E0F0
E070
E078
E038
E01C
E01E
ENDCHAR
STARTCHAR 0053
ENCODING 83
SWIDTH 653 0
DWIDTH 17 0
BBX 13 19 2 0
BITMAP
1FC0
3FF0
7870
E010
E000
E000
F000
FE00
7FC0
1FF0
03F0
0078
0038
0038
0038
8038
E0F0
FFE0
3F80
ENDCHAR
STARTCHAR 0054
ENCODING 84
SWIDTH 615 0
DWIDTH 16 0
BBX 17 19 0 0
BITMAP
FFFF80
FFFF80
01C000
01C000
01C000
01C000
01C000
01C000
01C000
01C000
01C000
01C000
01C000
01C000
01C000
01C000
01C000
01C000
01C000
ENDCHAR
STARTCHAR 0055
ENCODING 85
SWIDTH 730 0
DWIDTH 19 0
BBX 14 19 3 0
BITMAP
E01C
E01C
E01C
E01C
E01C
E01C
E01C
E01C
E01C
E01C
E01C
E01C
E01C
E01C
E01C
7038
7878
3FF0
0FC0
ENDCHAR
STARTCHAR 0056
ENCODING 86
SWIDTH 692 0
DWIDTH 18 0
BBX 17 19 0 0
BITMAP
E00380
700700
700700
780F00
380E00
380E00
3C1E00
1C1C00
1C1C00
0E3800
0E3800
0E7800
077000
077000
07F000
03E000
03E000
01C000
01C000
ENDCHAR
STARTCHAR 0057
ENCODING 87
SWIDTH 1000 0
DWIDTH 26 0
BBX 24 19 1 0
BITMAP
E03C07
E03C07
703C0E
703C0E
707E0E
70660E
38661C
38661C
38E71C
38C31C
1CC338
1CC338
1DC3B8
1D81B8
0F81F0
0F81F0
0F81F0
0F00F0
0700E0
ENDCHAR
STARTCHAR 0058
ENCODING 88
SWIDTH 692 0
DWIDTH 18 0
BBX 16 19 1 0
BITMAP
780F
3C1E
1C1C
1E3C
0E78
0F70
07F0
03E0
03C0
03C0
03E0
07E0
0F70
0E78
1E38
3C3C
381C
780E
F00F
ENDCHAR
STARTCHAR 0059
ENCODING 89
SWIDTH 615 0
DWIDTH 16 0
BBX 17 19 0 0
BITMAP
F00780
780F00
380E00
3C1E00
1E3C00
0F7800
077000
07F000
03E000
01C000
01C000
01C000
01C000
01C000
01C000
01C000
01C000
01C000
01C000
ENDCHAR
STARTCHAR 005A
ENCODING 90
SWIDTH 692 0
DWIDTH 18 0
BBX 15 19 1 0
BITMAP
FFFE
FFFE
001E
003C
0078
0070
00F0
01E0
03C0
0380
0780
0F00
1E00
1C00
3C00
7800
F000
FFFE
FFFE
ENDCHAR
STARTCHAR 005B
ENCODING 91
SWIDTH 384 0
DWIDTH 10 0
BBX 6 23 2 -3
BITMAP
FC
FC
E0
E0
E0
E0
E0
E0
E0
E0
E0
E0
E0
E0
E0
E0
E0
E0
E0
E0
E0
FC
FC
ENDCHAR
STARTCHAR 005C
ENCODING 92
SWIDTH 346 0
DWIDTH 9 0
BBX 9 21 0 -2
BITMAP
C000
E000
6000
6000
7000
3000
3000
3800
1800
1800
1C00
0C00
0C00
0E00
0600
0600
0700
0300
0300
0380
0180
ENDCHAR
STARTCHAR 005D
ENCODING 93
SWIDTH 384 0
DWIDTH 10 0
BBX 6 23 2 -3
BITMAP
FC
FC
1C
1C
1C
1C
1C
1C
1C
1C
1C
1C
1C
1C
1C
1C
1C
1C
1C
1C
1C
FC
FC
ENDCHAR
STARTCHAR 005E
ENCODING 94
SWIDTH 846 0
DWIDTH 22 0
BBX 16 7 3 12
BITMAP
03C0
07E0
0FF0
1C38
381C
700E
E007
ENDCHAR
STARTCHAR 005F
ENCODING 95
SWIDTH 500 0
DWIDTH 13 0
BBX 13 2 0 -6
BITMAP
FFF8
FFF8
ENDCHAR
STARTCHAR 0060
ENCODING 96
SWIDTH 500 0
DWIDTH 13 0
BBX 6 5 2 16
BITMAP
E0
70
30
18
0C
ENDCHAR
STARTCHAR 0061
ENCODING 97
SWIDTH 615 0
DWIDTH 16 0
BBX 12 14 1 0
BITMAP
1F80
7FC0
40E0
0070
0070
1FF0
7FF0
F070
E070
E070
E0F0
F1F0
7F70
3E70
ENDCHAR
STARTCHAR 0062
ENCODING 98
SWIDTH 653 0
DWIDTH 17 0
BBX 13 20 2 0
BITMAP
E000
E000
E000
E000
E000
E000
E7C0
EFE0
F8F0
F070
E038
E038
E038
E038
E038
E038
F070
F8F0
EFE0
E7C0
ENDCHAR
STARTCHAR 0063
ENCODING 99
SWIDTH 538 0
DWIDTH 14 0
BBX 11 14 1 0
BITMAP
0FC0
3FE0
7820
7000
E000
E000
E000
E000
E000
E000
7000
7820
3FE0
0FC0
ENDCHAR
STARTCHAR 0064
ENCODING 100
SWIDTH 653 0
DWIDTH 17 0
BBX 13 20 1 0
BITMAP
0038
0038
0038
0038
0038
0038
1F38
3FB8
78F8
7078
E038
E038
E038
E038
E038
E038
7078
78F8
3FB8
1F38
ENDCHAR
STARTCHAR 0065
ENCODING 101
SWIDTH 615 0
DWIDTH 16 0
BBX 13 14 1 0
BITMAP
0FC0
3FE0
78F0
7070
E038
E038
FFF8
FFF8
E000
E000
7000
7810
3FF0
0FE0
ENDCHAR
STARTCHAR 0066
ENCODING 102
SWIDTH 346 0
DWIDTH 9 0
BBX 9 20 1 0
BITMAP
0F80
1F80
3C00
3800
3800
3800
FF80
FF80
3800
3800
3800
3800
3800
3800
3800
3800
3800
3800
3800
3800
ENDCHAR
STARTCHAR 0067
ENCODING 103
SWIDTH 653 0
DWIDTH 17 0
BBX 13 19 1 -5
BITMAP
1F38
3FB8
78F8
7078
E038
E038
E038
E038
E038
E038
7078
78F8
3FB8
1F38
0038
0070
20F0
3FE0
1FC0
ENDCHAR
STARTCHAR 0068
ENCODING 104
SWIDTH 615 0
DWIDTH 16 0
BBX 12 20 2 0
BITMAP
E000
E000
E000
E000
E000
E000
E7C0
EFE0
F8E0
F070
E070
E070
E070
E070
E070
E070
E070
E070
E070
E070
ENDCHAR
STARTCHAR 0069
ENCODING 105
SWIDTH 269 0
DWIDTH 7 0
BBX 3 20 2 0
BITMAP
E0
E0
E0
00
00
00
E0
E0
E0
E0
E0
E0
E0
E0
E0
E0
E0
E0
E0
E0
ENDCHAR
STARTCHAR 006A
ENCODING 106
SWIDTH 269 0
DWIDTH 7 0
BBX 6 25 -1 -5
BITMAP
1C
1C
1C
00
00
00
1C
1C
1C
1C
1C
1C
1C
1C
1C
1C
1C
1C
1C
1C
1C
1C
3C
F8
F0
ENDCHAR
STARTCHAR 006B
ENCODING 107
SWIDTH 576 0
DWIDTH 15 0
BBX 13 20 2 0
BITMAP
E000
E000
E000
E000
E000
E000
E0F0
E1E0
E3C0
EF80
FF00
FE00
FC00
FC00
FE00
EF00
E780
E3C0
E1E0
E0F8
ENDCHAR
STARTCHAR 006C
ENCODING 108
SWIDTH 269 0
DWIDTH 7 0
BBX 3 20 2 0
BITMAP
E0
E0
E0
E0
E0
E0
E0
E0
E0
E0
E0
E0
E0
E0
E0
E0
E0
E0
E0
E0
ENDCHAR
STARTCHAR 006D
ENCODING 109
SWIDTH 961 0
DWIDTH 25 0
BBX 21 14 2 0
BITMAP
E783E0
EFC7F0
F8EC70
F07838
E07038
E07038
E07038
E07038
E07038
E07038
E07038
E07038
E07038
E07038
ENDCHAR
STARTCHAR 006E
ENCODING 110
SWIDTH 615 0
DWIDTH 16 0
BBX 12 14 2 0
BITMAP
E7C0
EFE0
F8E0
F070
E070
E070
E070
E070
E070
E070
E070
E070
E070
E070
ENDCHAR
STARTCHAR 006F
ENCODING 111
SWIDTH 615 0
DWIDTH 16 0
BBX 13 14 1 0
BITMAP
0F80
3FE0
78F0
7070
E038
E038
E038
E038
E038
E038
7070
78F0
3FE0
0F80
ENDCHAR
STARTCHAR 0070
ENCODING 112
SWIDTH 653 0
DWIDTH 17 0
BBX 13 19 2 -5
BITMAP
E7C0
EFE0
F8F0
F070
E038
E038
E038
E038
E038
E038
F070
F8F0
EFE0
E7C0
E000
E000
E000
E000
E000
ENDCHAR
STARTCHAR 0071
ENCODING 113
SWIDTH 653 0
DWIDTH 17 0
BBX 13 19 1 -5
BITMAP
1F38
3FB8
78F8
7078
E038
E038
E038
E038
E038
E038
7078
78F8
3FB8
1F38
0038
0038
0038
0038
0038
ENDCHAR
STARTCHAR 0072
ENCODING 114
SWIDTH 423 0
DWIDTH 11 0
BBX 8 14 2 0
BITMAP
E7
EF
F8
F0
E0
E0
E0
E0
E0
E0
E0
E0
E0
E0
ENDCHAR
STARTCHAR 0073
ENCODING 115
SWIDTH 538 0
DWIDTH 14 0
BBX 11 14 1 0
BITMAP
3F80
7FC0
F040
E000
E000
F400
7F80
1FC0
01E0
00E0
00E0
81E0
FFC0
3F00
ENDCHAR
STARTCHAR 0074
ENCODING 116
SWIDTH 384 0
DWIDTH 10 0
BBX 10 18 0 0
BITMAP
3800
3800
3800
3800
FFC0
FFC0
3800
3800
3800
3800
3800
3800
3800
3800
3800
3800
1FC0
0FC0
ENDCHAR
STARTCHAR 0075
ENCODING 117
SWIDTH 615 0
DWIDTH 16 0
BBX 12 14 2 0
BITMAP
E070
E070
E070
E070
E070
E070
E070
E070
E070
E070
E0F0
71F0
7F70
3E70
ENDCHAR
STARTCHAR 0076
ENCODING 118
SWIDTH 576 0
DWIDTH 15 0
BBX 14 14 1 0
BITMAP
E01C
7038
7038
7878
3870
3870
1CF0
1CE0
1DE0
0FC0
0FC0
0FC0
0780
0780
ENDCHAR
STARTCHAR 0077
ENCODING 119
SWIDTH 807 0
DWIDTH 21 0
BBX 19 14 1 0
BITMAP
E0E0E0
E0E1E0
71F1C0
71B1C0
71B1C0
79B3C0
3B1B80
3B1B80
3B1B80
1F1F80
1E0F00
1E0F00
1E0F00
0E0E00
ENDCHAR
STARTCHAR 0078
ENCODING 120
SWIDTH 576 0
DWIDTH 15 0
BBX 14 14 1 0
BITMAP
F03C
7878
3CF0
1FE0
0FC0
0FC0
0780
0780
0FC0
1FE0
1CE0
3CF0
7878
F03C
ENDCHAR
STARTCHAR 0079
ENCODING 121
SWIDTH 576 0
DWIDTH 15 0
BBX 14 19 1 -5
BITMAP
E03C
7038
7038
7870
3870
3CF0
1CE0
1DE0
0FC0
0FC0
0F80
0780
0780
0700
0F00
0E00
1E00
7C00
7800
ENDCHAR
STARTCHAR 007A
ENCODING 122
SWIDTH 538 0
DWIDTH 14 0
BBX 11 14 1 0
BITMAP
FFE0
FFE0
01E0
03C0
0780
0780
0F00
1E00
1C00
3C00
7800
F000
FFE0
FFE0
ENDCHAR
STARTCHAR 007B
ENCODING 123
SWIDTH 653 0
DWIDTH 17 0
BBX 11 24 3 -4
BITMAP
03E0
07E0
0F00
0E00
0E00
0E00
0E00
0E00
0E00
0E00
1C00
F800
F800
1C00
0E00
0E00
0E00
0E00
0E00
0E00
0E00
0F00
07E0
03E0
ENDCHAR
STARTCHAR 007C
ENCODING 124
SWIDTH 346 0
DWIDTH 9 0
BBX 2 26 3 -6
BITMAP
C0
C0
C0
C0
C0
C0
C0
C0
C0
C0
C0
C0
C0
C0
C0
C0
C0
C0
C0
C0
C0
C0
C0
C0
C0
C0
ENDCHAR
STARTCHAR 007D
ENCODING 125
SWIDTH 653 0
DWIDTH 17 0
BBX 11 24 3 -4
BITMAP
F800
FC00
1E00
0E00
0E00
0E00
0E00
0E00
0E00
0E00
0F00
03E0
03E0
0700
0E00
0E00
0E00
0E00
0E00
0E00
0E00
1E00
FC00
F800
ENDCHAR
STARTCHAR 007E
ENCODING 126
SWIDTH 846 0
DWIDTH 22 0
BBX 16 4 3 6
BITMAP
3E01
7F83
C1FE
807C
ENDCHAR
STARTCHAR 00A0
ENCODING 160
SWIDTH 307 0
DWIDTH 8 0
BBX 0 0 0 0
BITMAP
ENDCHAR
STARTCHAR 00A1
ENCODING 161
SWIDTH 384 0
DWIDTH 10 0
BBX 3 19 4 0
BITMAP
E0
E0
E0
00
00
00
E0
E0
E0
E0
E0
E0
E0
E0
E0
E0
E0
E0
E0
ENDCHAR
STARTCHAR 00A2
ENCODING 162
SWIDTH 653 0
DWIDTH 17 0
BBX 11 22 2 -4
BITMAP
0200
0200
0200
0200
0FC0
3FE0
7A20
7200
E200
E200
E200
E200
E200
E200
7200
7A20
3FE0
0FC0
0200
0200
0200
0200
ENDCHAR
STARTCHAR 00A3
ENCODING 163
SWIDTH 653 0
DWIDTH 17 0
BBX 13 19 2 0
BITMAP
03F0
0FF8
0E08
1C00
1C00
1C00
1C00
1C00
1C00
FFE0
FFE0
1C00
1C00
1C00
1C00
1C00
1C00
FFF8
FFF8
ENDCHAR
STARTCHAR 00A4
ENCODING 164
SWIDTH 653 0
DWIDTH 17 0
BBX 15 15 1 2
BITMAP
4004
E00E
77DC
3FF8
1C70
3838
3018
3018
3018
3838
1C70
3FF8
77DC
E00E
4004
ENDCHAR
STARTCHAR 00A5
ENCODING 165
SWIDTH 653 0
DWIDTH 17 0
BBX 15 19 1 0
BITMAP
F01E
701C
783C
3838
1C70
1C70
0EE0
7EFC
7FFC
07C0
0380
0380
7FFC
7FFC
0380
0380
0380
0380
0380
ENDCHAR
STARTCHAR 00A6
ENCODING 166
SWIDTH 346 0
DWIDTH 9 0
BBX 2 23 3 -4
BITMAP
C0
C0
C0
C0
C0
C0
C0
C0
C0
C0
00
00
00
C0
C0
C0
C0
C0
C0
C0
C0
C0
C0
ENDCHAR
STARTCHAR 00A7
ENCODING 167
SWIDTH 500 0
DWIDTH 13 0
BBX 11 21 1 -2
BITMAP
1F80
3FC0
7040
6000
6000
7000
3E00
6F00
C3C0
C0E0
C060
7060
7860
1FC0
0780
01C0
00C0
00C0
41C0
7F80
3F00
ENDCHAR
STARTCHAR 00A8
ENCODING 168
SWIDTH 500 0
DWIDTH 13 0
BBX 8 3 3 17
BITMAP
E7
E7
E7
ENDCHAR
STARTCHAR 00A9
ENCODING 169
SWIDTH 1000 0
DWIDTH 26 0
BBX 19 19 4 0
BITMAP
03F000
0E0E00
180300
30F880
6304C0
460040
C60040
8C0020
8C0020
8C0020
8C0020
8C0020
C60060
460040
6304C0
30F880
180300
0E0E00
03F800
ENDCHAR
STARTCHAR 00AA
ENCODING 170
SWIDTH 461 0
DWIDTH 12 0
BBX 10 12 1 7
BITMAP
3F00
4180
00C0
3FC0
60C0
C0C0
C0C0
C1C0
63C0
3EC0
0000
FFC0
ENDCHAR
STARTCHAR 00AB
ENCODING 171
SWIDTH 615 0
DWIDTH 16 0
BBX 12 12 2 1
BITMAP
0410
0C30
1C70
38E0
71C0
E380
E380
71C0
38E0
1C70
0C30
0410
ENDCHAR
STARTCHAR 00AC
ENCODING 172
SWIDTH 846 0
DWIDTH 22 0
BBX 16 7 3 4
BITMAP
FFFF
FFFF
0003
0003
0003
0003
0003
ENDCHAR
STARTCHAR 00AD
ENCODING 173
SWIDTH 346 0
DWIDTH 9 0
BBX 7 2 1 6
BITMAP
FE
FE
ENDCHAR
STARTCHAR 00AE
ENCODING 174
SWIDTH 1000 0
DWIDTH 26 0
BBX 19 19 4 0
BITMAP
03F000
0E0E00
180300
37F080
661CC0
460C40
C60C40
861C20
87F020
867020
863820
861820
C61C60
460C40
660CC0
360E80
180300
0E0E00
03F800
ENDCHAR
STARTCHAR 00AF
ENCODING 175
SWIDTH 500 0
DWIDTH 13 0
BBX 8 2 3 17
BITMAP
FF
FF
ENDCHAR
STARTCHAR 00B0
ENCODING 176
SWIDTH 500 0
DWIDTH 13 0
BBX 8 8 2 11
BITMAP
3C
7E
E7
C3
C3
E7
7E
3C
ENDCHAR
STARTCHAR 00B1
ENCODING 177
SWIDTH 846 0
DWIDTH 22 0
BBX 16 16 3 0
BITMAP
0180
0180
0180
0180
0180
FFFF
FFFF
0180
0180
0180
0180
0180
0000
0000
FFFF
FFFF
ENDCHAR
STARTCHAR 00B2
ENCODING 178
SWIDTH 384 0
DWIDTH 10 0
BBX 8 11 1 8
BITMAP
7C
86
03
03
07
06
0C
1C
38
60
FF
ENDCHAR
STARTCHAR 00B3
ENCODING 179
SWIDTH 384 0
DWIDTH 10 0
BBX 8 11 1 8
BITMAP
7C
87
03
07
3C
06
03
03
03
86
7C
ENDCHAR
STARTCHAR 00B4
ENCODING 180
SWIDTH 500 0
DWIDTH 13 0
BBX 6 5 5 16
BITMAP
1C
38
30
60
C0
ENDCHAR
STARTCHAR 00B5
ENCODING 181
SWIDTH 653 0
DWIDTH 17 0
BBX 14 19 2 -5
BITMAP
E070
E070
E070
E070
E070
E070
E070
E070
E070
E070
E070
F0F0
FFFC
EF3C
E000
E000
E000
E000
E000
ENDCHAR
STARTCHAR 00B6
ENCODING 182
SWIDTH 653 0
DWIDTH 17 0
BBX 12 22 2 -3
BITMAP
1FF0
3FF0
7F30
FF30
FF30
FF30
FF30
FF30
7F30
3F30
1F30
0330
0330
0330
0330
0330
0330
0330
0330
0330
0330
0330
ENDCHAR
STARTCHAR 00B7
ENCODING 183
SWIDTH 307 0
DWIDTH 8 0
BBX 3 3 3 8
BITMAP
E0
E0
E0
ENDCHAR
STARTCHAR 00B8
ENCODING 184
SWIDTH 500 0
DWIDTH 13 0
BBX 5 5 4 -5
BITMAP
30
18
18
F8
F0
ENDCHAR
STARTCHAR 00B9
ENCODING 185
SWIDTH 384 0
DWIDTH 10 0
BBX 8 11 2 8
BITMAP
F8
18
18
18
18
18
18
18
18
18
FF
ENDCHAR
STARTCHAR 00BA
ENCODING 186
SWIDTH 461 0
DWIDTH 12 0
BBX 10 12 1 7
BITMAP
1E00
6180
6180
C0C0
C0C0
C0C0
C0C0
E180
6180
1E00
0000
7F80
ENDCHAR
STARTCHAR 00BB
ENCODING 187
SWIDTH 615 0
DWIDTH 16 0
BBX 12 12 2 1
BITMAP
8200
C300
E380
71C0
38E0
1C70
1C70
38E0
71C0
E380
C300
8200
ENDCHAR
STARTCHAR 00BC
ENCODING 188
SWIDTH 961 0
DWIDTH 25 0
BBX 23 19 2 0
BITMAP
F80380
180300
180600
180E00
180C00
181C00
181800
183000
187018
186038
FFE058
00C0D8
018198
038118
030318
0703FE
060018
0C0018
1C0018
ENDCHAR
STARTCHAR 00BD
ENCODING 189
SWIDTH 961 0
DWIDTH 25 0
BBX 22 19 2 0
BITMAP
F80380
180300
180600
180E00
180C00
181C00
181800
183000
1871F0
186218
FFE00C
00C00C
01801C
038018
030030
070070
0600E0
0C0180
1C03FC
ENDCHAR
STARTCHAR 00BE
ENCODING 190
SWIDTH 961 0
DWIDTH 25 0
BBX 24 19 1 0
BITMAP
7C01C0
870180
030300
070700
3C0600
060E00
030C00
031800
03380C
86301C
7C702C
00606C
00C0CC
01C08C
01818C
0381FF
03000C
06000C
0E000C
ENDCHAR
STARTCHAR 00BF
ENCODING 191
SWIDTH 538 0
DWIDTH 14 0
BBX 10 19 2 0
BITMAP
0E00
0E00
0E00
0000
0000
0E00
0E00
0E00
0E00
1C00
1800
3000
6000
E000
E000
E040
F0C0
7F80
1F00
ENDCHAR
STARTCHAR 00C0
ENCODING 192
SWIDTH 692 0
DWIDTH 18 0
BBX 17 24 0 0
BITMAP
070000
038000
018000
000000
000000
01C000
01C000
03E000
03E000
07F000
077000
077000
0F3800
0E3800
0E3800
1C1C00
1C1C00
3FFE00
3FFE00
380E00
780F00
700700
700700
E00380
ENDCHAR
STARTCHAR 00C1
ENCODING 193
SWIDTH 692 0
DWIDTH 18 0
BBX 17 24 0 0
BITMAP
006000
00C000
018000
000000
000000
01C000
01C000
03E000
03E000
07F000
077000
077000
0F3800
0E3800
0E3800
1C1C00
1C1C00
3FFE00
3FFE00
380E00
780F00
700700
700700
E00380
ENDCHAR
STARTCHAR 00C2
ENCODING 194
SWIDTH 692 0
DWIDTH 18 0
BBX 17 24 0 0
BITMAP
01C000
036000
063000
000000
000000
01C000
01C000
03E000
03E000
07F000
077000
077000
0F3800
0E3800
0E3800
1C1C00
1C1C00
3FFE00
3FFE00
380E00
780F00
700700
700700
E00380
ENDCHAR
STARTCHAR 00C3
ENCODING 195
SWIDTH 692 0
DWIDTH 18 0
BBX 17 24 0 0
BITMAP
03B000
07F000
06E000
000000
000000
01C000
01C000
03E000
03E000
07F000
077000
077000
0F3800
0E3800
0E3800
1C1C00
1C1C00
3FFE00
3FFE00
380E00
780F00
700700
700700
E00380
ENDCHAR
STARTCHAR 00C4
ENCODING 196
SWIDTH 692 0
DWIDTH 18 0
BBX 17 24 0 0
BITMAP
077000
077000
077000
000000
000000
01C000
01C000
03E000
03E000
07F000
077000
077000
0F3800
0E3800
0E3800
1C1C00
1C1C00
3FFE00
3FFE00
380E00
780F00
700700
700700
E00380
ENDCHAR
STARTCHAR 00C5
ENCODING 197
SWIDTH 692 0
DWIDTH 18 0
BBX 17 24 0 0
BITMAP
01C000
03E000
063000
063000
063000
03E000
01C000
03E000
03E000
03E000
077000
077000
0F7800
0E3800
0E3800
1E3C00
1C1C00
1FFC00
3FFE00
380E00
780F00
700700
700700
E00380
ENDCHAR
STARTCHAR 00C6
ENCODING 198
SWIDTH 961 0
DWIDTH 25 0
BBX 23 19 0 0
BITMAP
01FFFE
01FFFE
01DC00
03DC00
039C00
079C00
071C00
071C00
0F1FFC
0E1FFC
1E1C00
1C1C00
1FFC00
3FFC00
381C00
781C00
701C00
701FFE
E01FFE
ENDCHAR
STARTCHAR 00C7
ENCODING 199
SWIDTH 692 0
DWIDTH 18 0
BBX 15 24 1 -5
BITMAP
03F0
0FFC
3E0E
3806
7000
7000
E000
E000
E000
E000
E000
E000
E000
7000
7000
3806
3E0E
0FFC
03F0
0060
0030
0030
01F0
01E0
ENDCHAR
STARTCHAR 00C8
ENCODING 200
SWIDTH 615 0
DWIDTH 16 0
BBX 12 24 2 0
BITMAP
1C00
0E00
0600
0000
0000
FFF0
FFF0
E000
E000
E000
E000
E000
E000
FFE0
FFE0
E000
E000
E000
E000
E000
E000
E000
FFF0
FFF0
ENDCHAR
STARTCHAR 00C9
ENCODING 201
SWIDTH 615 0
DWIDTH 16 0
BBX 12 24 2 0
BITMAP
0180
0300
0600
0000
0000
FFF0
FFF0
E000
E000
E000
E000
E000
E000
FFE0
FFE0
E000
E000
E000
E000
E000
E000
E000
FFF0
FFF0
ENDCHAR
STARTCHAR 00CA
ENCODING 202
SWIDTH 615 0
DWIDTH 16 0
BBX 12 24 2 0
BITMAP
0780
0CC0
1860
0000
0000
FFF0
FFF0
E000
E000
E000
E000
E000
E000
FFE0
FFE0
E000
E000
E000
E000
E000
E000
E000
FFF0
FFF0
ENDCHAR
STARTCHAR 00CB
ENCODING 203
SWIDTH 615 0
DWIDTH 16 0
BBX 12 24 2 0
BITMAP
1CE0
1CE0
1CE0
0000
0000
FFF0
FFF0
E000
E000
E000
E000
E000
E000
FFE0
FFE0
E000
E000
E000
E000
E000
E000
E000
FFF0
FFF0
ENDCHAR
STARTCHAR 00CC
ENCODING 204
SWIDTH 307 0
DWIDTH 8 0
BBX 5 24 0 0
BITMAP
E0
70
30
00
00
38
38
38
38
38
38
38
38
38
38
38
38
38
38
38
38
38
38
38
ENDCHAR
STARTCHAR 00CD
ENCODING 205
SWIDTH 307 0
DWIDTH 8 0
BBX 4 24 2 0
BITMAP
30
60
C0
00
00
E0
E0
E0
E0
E0
E0
E0
E0
E0
E0
E0
E0
E0
E0
E0
E0
E0
E0
E0
ENDCHAR
STARTCHAR 00CE
ENCODING 206
SWIDTH 307 0
DWIDTH 8 0
BBX 8 24 0 0
BITMAP
38
6C
C7
00
00
38
38
38
38
38
38
38
38
38
38
38
38
38
38
38
38
38
38
38
ENDCHAR
STARTCHAR 00CF
ENCODING 207
SWIDTH 307 0
DWIDTH 8 0
BBX 7 24 0 0
BITMAP
EE
EE
EE
00
00
38
38
38
38
38
38
38
38
38
38
38
38
38
38
38
38
38
38
38
ENDCHAR
STARTCHAR 00D0
ENCODING 208
SWIDTH 769 0
DWIDTH 20 0
BBX 19 19 0 0
BITMAP
1FF800
1FFE00
1C0F80
1C0380
1C01C0
1C01C0
1C00E0
1C00E0
FFC0E0
FFC0E0
1C00E0
1C00E0
1C00E0
1C01C0
1C01C0
1C0380
1C0F80
1FFE00
1FF800
ENDCHAR
STARTCHAR 00D1
ENCODING 209
SWIDTH 730 0
DWIDTH 19 0
BBX 14 24 2 0
BITMAP
0E60
1FE0
19C0
0000
0000
F01C
F81C
F81C
FC1C
FC1C
FE1C
EE1C
EF1C
E71C
E79C
E39C
E3DC
E1DC
E1FC
E0FC
E0FC
E07C
E07C
E03C
ENDCHAR
STARTCHAR 00D2
ENCODING 210
SWIDTH 769 0
DWIDTH 20 0
BBX 18 24 1 0
BITMAP
038000
01C000
00C000
000000
000000
03F000
0FFC00
1E1E00
380700
700380
700380
E001C0
E001C0
E001C0
E001C0
E001C0
E001C0
E001C0
700380
700380
380700
1E1E00
0FFC00
03F000
ENDCHAR
STARTCHAR 00D3
ENCODING 211
SWIDTH 769 0
DWIDTH 20 0
BBX 18 24 1 0
BITMAP
003000
006000
00C000
000000
000000
03F000
0FFC00
1E1E00
380700
700380
700380
E001C0
E001C0
E001C0
E001C0
E001C0
E001C0
E001C0
700380
700380
380700
1E1E00
0FFC00
03F000
ENDCHAR
STARTCHAR 00D4
ENCODING 212
SWIDTH 769 0
DWIDTH 20 0
BBX 18 24 1 0
BITMAP
01E000
033000
061800
000000
000000
03F000
0FFC00
1E1E00
380700
700380
700380
E001C0
E001C0
E001C0
E001C0
E001C0
E001C0
E001C0
700380
700380
380700
1E1E00
0FFC00
03F000
ENDCHAR
STARTCHAR 00D5
ENCODING 213
SWIDTH 769 0
DWIDTH 20 0
BBX 18 24 1 0
BITMAP
039800
07F800
067000
000000
000000
03F000
0FFC00
1E1E00
380700
700380
700380
E001C0
E001C0
E001C0
E001C0
E001C0
E001C0
E001C0
700380
700380
380700
1E1E00
0FFC00
03F000
ENDCHAR
STARTCHAR 00D6
ENCODING 214
SWIDTH 769 0
DWIDTH 20 0
BBX 18 24 1 0
BITMAP
073800
073800
073800
000000
000000
03F000
0FFC00
1E1E00
380700
700380
700380
E001C0
E001C0
E001C0
E001C0
E001C0
E001C0
E001C0
700380
700380
380700
1E1E00
0FFC00
03F000
ENDCHAR
STARTCHAR 00D7
ENCODING 215
SWIDTH 846 0
DWIDTH 22 0
BBX 15 15 4 1
BITMAP
4004
E00E
701C
3838
1C70
0EE0
07C0
0380
07C0
0EE0
1C70
3838
701C
E00E
4004
ENDCHAR
STARTCHAR 00D8
ENCODING 216
SWIDTH 769 0
DWIDTH 20 0
BBX 18 19 1 0
BITMAP
03F0C0
0FFD80
1E1F00
380700
700F80
701F80
E039C0
E031C0
E061C0
E0C1C0
E181C0
E301C0
E701C0
7E0380
7C0380
380700
3E1F00
6FFC00
C3F000
ENDCHAR
STARTCHAR 00D9
ENCODING 217
SWIDTH 730 0
DWIDTH 19 0
BBX 14 24 3 0
BITMAP
1C00
0E00
0600
0000
0000
E01C
E01C
E01C
E01C
E01C
E01C
E01C
E01C
E01C
E01C
E01C
E01C
E01C
E01C
E01C
7038
7878
3FF0
0FC0
ENDCHAR
STARTCHAR 00DA
ENCODING 218
SWIDTH 730 0
DWIDTH 19 0
BBX 14 24 3 0
BITMAP
0180
0300
0600
0000
0000
E01C
E01C
E01C
E01C
E01C
E01C
E01C
E01C
E01C
E01C
E01C
E01C
E01C
E01C
E01C
7038
7878
3FF0
0FC0
ENDCHAR
STARTCHAR 00DB
ENCODING 219
SWIDTH 730 0
DWIDTH 19 0
BBX 14 24 3 0
BITMAP
0780
0CC0
1860
0000
0000
E01C
E01C
E01C
E01C
E01C
E01C
E01C
E01C
E01C
E01C
E01C
E01C
E01C
E01C
E01C
7038
7878
3FF0
0FC0
ENDCHAR
STARTCHAR 00DC
ENCODING 220
SWIDTH 730 0
DWIDTH 19 0
BBX 14 24 3 0
BITMAP
1CE0
1CE0
1CE0
0000
0000
E01C
E01C
E01C
E01C
E01C
E01C
E01C
E01C
E01C
E01C
E01C
E01C
E01C
E01C
E01C
7038
7878
3FF0
0FC0
ENDCHAR
STARTCHAR 00DD
ENCODING 221
SWIDTH 615 0
DWIDTH 16 0
BBX 17 24 0 0
BITMAP
00C000
018000
030000
000000
000000
F00780
780F00
380E00
3C1E00
1E3C00
0F7800
077000
07F000
03E000
01C000
01C000
01C000
01C000
01C000
01C000
01C000
01C000
01C000
01C000
ENDCHAR
STARTCHAR 00DE
ENCODING 222
SWIDTH 615 0
DWIDTH 16 0
BBX 12 19 2 0
BITMAP
E000
E000
E000
FF80
FFE0
E0E0
E070
E070
E070
E070
E070
E0E0
FFE0
FF80
E000
E000
E000
E000
E000
ENDCHAR
STARTCHAR 00DF
ENCODING 223
SWIDTH 615 0
DWIDTH 16 0
BBX 13 20 2 0
BITMAP
1F00
7FC0
71C0
E0E0
E0E0
E3E0
E780
E700
E700
E700
E300
E1C0
E0E0
E070
E038
E038
E038
E878
EFF0
E7C0
ENDCHAR
STARTCHAR 00E0
ENCODING 224
SWIDTH 615 0
DWIDTH 16 0
BBX 12 21 1 0
BITMAP
3800
1C00
0C00
0600
0300
0000
0000
1F80
7FC0
40E0
0070
0070
1FF0
7FF0
F070
E070
E070
E0F0
F1F0
7F70
3E70
ENDCHAR
STARTCHAR 00E1
ENCODING 225
SWIDTH 615 0
DWIDTH 16 0
BBX 12 21 1 0
BITMAP
00E0
01C0
0180
0300
0600
0000
0000
1F80
7FC0
40E0
0070
0070
1FF0
7FF0
F070
E070
E070
E0F0
F1F0
7F70
3E70
ENDCHAR
STARTCHAR 00E2
ENCODING 226
SWIDTH 615 0
DWIDTH 16 0
BBX 12 21 1 0
BITMAP
0600
0F00
0900
1980
30C0
0000
0000
1F80
7FC0
40E0
0070
0070
1FF0
7FF0
F070
E070
E070
E0F0
F1F0
7F70
3E70
ENDCHAR
STARTCHAR 00E3
ENCODING 227
SWIDTH 615 0
DWIDTH 16 0
BBX 12 20 1 0
BITMAP
1CC0
3CC0
33C0
3380
0000
0000
1F80
7FC0
40E0
0070
0070
1FF0
7FF0
F070
E070
E070
E0F0
F1F0
7F70
3E70
ENDCHAR
STARTCHAR 00E4
ENCODING 228
SWIDTH 615 0
DWIDTH 16 0
BBX 12 20 1 0
BITMAP
39C0
39C0
39C0
0000
0000
0000
1F80
7FC0
40E0
0070
0070
1FF0
7FF0
F070
E070
E070
E0F0
F1F0
7F70
3E70
ENDCHAR
STARTCHAR 00E5
ENCODING 229
SWIDTH 615 0
DWIDTH 16 0
BBX 12 23 1 0
BITMAP
0700
0F80
18C0
18C0
18C0
0F80
0700
0000
0000
1F80
7FC0
40E0
0070
0070
1FF0
7FF0
F070
E070
E070
E0F0
F1F0
7F70
3E70
ENDCHAR
STARTCHAR 00E6
ENCODING 230
SWIDTH 1000 0
DWIDTH 26 0
BBX 22 14 1 0
BITMAP
1F87E0
7FDFF0
40FC78
007838
00701C
1FF01C
7FFFFC
F07FFC
E07000
E07000
E0F800
F1DC08
7F9FF8
3E07F0
ENDCHAR
STARTCHAR 00E7
ENCODING 231
SWIDTH 538 0
DWIDTH 14 0
BBX 11 19 1 -5
BITMAP
0FC0
3FE0
7820
7000
E000
E000
E000
E000
E000
E000
7000
7820
3FE0
0FC0
0180
00C0
00C0
07C0
0780
ENDCHAR
STARTCHAR 00E8
ENCODING 232
SWIDTH 615 0
DWIDTH 16 0
BBX 13 21 1 0
BITMAP
1C00
0E00
0600
0300
0180
0000
0000
0FC0
3FE0
78F0
7070
E038
E038
FFF8
FFF8
E000
E000
7000
7810
3FF0
0FE0
ENDCHAR
STARTCHAR 00E9
ENCODING 233
SWIDTH 615 0
DWIDTH 16 0
BBX 13 21 1 0
BITMAP
0070
00E0
00C0
0180
0300
0000
0000
0FC0
3FE0
78F0
7070
E038
E038
FFF8
FFF8
E000
E000
7000
7810
3FF0
0FE0
ENDCHAR
STARTCHAR 00EA
ENCODING 234
SWIDTH 615 0
DWIDTH 16 0
BBX 13 21 1 0
BITMAP
0700
0F80
0D80
18C0
3060
0000
0000
0FC0
3FE0
78F0
7070
E038
E038
FFF8
FFF8
E000
E000
7000
7810
3FF0
0FE0
ENDCHAR
STARTCHAR 00EB
ENCODING 235
SWIDTH 615 0
DWIDTH 16 0
BBX 13 20 1 0
BITMAP
0E70
0E70
0E70
0000
0000
0000
0FC0
3FE0
78F0
7070
E038
E038
FFF8
FFF8
E000
E000
7000
7810
3FF0
0FE0
ENDCHAR
STARTCHAR 00EC
ENCODING 236
SWIDTH 269 0
DWIDTH 7 0
BBX 6 21 -1 0
BITMAP
E0
70
30
18
0C
00
00
1C
1C
1C
1C
1C
1C
1C
1C
1C
1C
1C
1C
1C
1C
ENDCHAR
STARTCHAR 00ED
ENCODING 237
SWIDTH 269 0
DWIDTH 7 0
BBX 6 21 2 0
BITMAP
1C
38
30
60
C0
00
00
E0
E0
E0
E0
E0
E0
E0
E0
E0
E0
E0
E0
E0
E0
ENDCHAR
STARTCHAR 00EE
ENCODING 238
SWIDTH 269 0
DWIDTH 7 0
BBX 9 21 -1 0
BITMAP
1C00
3E00
3600
6300
C180
0000
0000
1C00
1C00
1C00
1C00
1C00
1C00
1C00
1C00
1C00
1C00
1C00
1C00
1C00
1C00
ENDCHAR
STARTCHAR 00EF
ENCODING 239
SWIDTH 269 0
DWIDTH 7 0
BBX 7 20 0 0
BITMAP
EE
EE
EE
00
00
00
38
38
38
38
38
38
38
38
38
38
38
38
38
38
ENDCHAR
STARTCHAR 00F0
ENCODING 240
SWIDTH 615 0
DWIDTH 16 0
BBX 13 20 1 0
BITMAP
1C00
0EE0
0780
1F00
3380
01C0
0FC0
3FE0
7870
7070
E038
E038
E038
E038
E038
E038
7070
78F0
3FE0
0F80
ENDCHAR
STARTCHAR 00F1
ENCODING 241
SWIDTH 615 0
DWIDTH 16 0
BBX 12 20 2 0
BITMAP
1CC0
3CC0
33C0
3380
0000
0000
E7C0
EFE0
F8E0
F070
E070
E070
E070
E070
E070
E070
E070
E070
E070
E070
ENDCHAR
STARTCHAR 00F2
ENCODING 242
SWIDTH 615 0
DWIDTH 16 0
BBX 13 21 1 0
BITMAP
3800
1C00
0C00
0600
0300
0000
0000
0F80
3FE0
78F0
7070
E038
E038
E038
E038
E038
E038
7070
78F0
3FE0
0F80
ENDCHAR
STARTCHAR 00F3
ENCODING 243
SWIDTH 615 0
DWIDTH 16 0
BBX 13 21 1 0
BITMAP
00E0
01C0
0180
0300
0600
0000
0000
0F80
3FE0
78F0
7070
E038
E038
E038
E038
E038
E038
7070
78F0
3FE0
0F80
ENDCHAR
STARTCHAR 00F4
ENCODING 244
SWIDTH 615 0
DWIDTH 16 0
BBX 13 21 1 0
BITMAP
0700
0700
0D80
0880
18C0
0000
0000
0F80
3FE0
78F0
7070
E038
E038
E038
E038
E038
E038
7070
78F0
3FE0
0F80
ENDCHAR
STARTCHAR 00F5
ENCODING 245
SWIDTH 615 0
DWIDTH 16 0
BBX 13 20 1 0
BITMAP
0CC0
1EC0
1BC0
1980
0000
0000
0F80
3FE0
78F0
7070
E038
E038
E038
E038
E038
E038
7070
78F0
3FE0
0F80
ENDCHAR
STARTCHAR 00F6
ENCODING 246
SWIDTH 615 0
DWIDTH 16 0
BBX 13 20 1 0
BITMAP
38E0
38E0
38E0
0000
0000
0000
0F80
3FE0
78F0
7070
E038
E038
E038
E038
E038
E038
7070
78F0
3FE0
0F80
ENDCHAR
STARTCHAR 00F7
ENCODING 247
SWIDTH 846 0
DWIDTH 22 0
BBX 17 12 3 2
BITMAP
01C000
01C000
01C000
000000
000000
FFFF80
FFFF80
000000
000000
01C000
01C000
01C000
ENDCHAR
STARTCHAR 00F8
ENCODING 248
SWIDTH 615 0
DWIDTH 16 0
BBX 13 16 1 -1
BITMAP
0008
1F98
3FF0
78E0
70F0
E0B8
E1B8
E338
E638
EC38
E838
7870
38F0
7FE0
CFC0
8000
ENDCHAR
STARTCHAR 00F9
ENCODING 249
SWIDTH 615 0
DWIDTH 16 0
BBX 12 21 2 0
BITMAP
3800
1C00
0C00
0600
0300
0000
0000
E070
E070
E070
E070
E070
E070
E070
E070
E070
E070
E0F0
71F0
7F70
3E70
ENDCHAR
STARTCHAR 00FA
ENCODING 250
SWIDTH 615 0
DWIDTH 16 0
BBX 12 21 2 0
BITMAP
00E0
01C0
0180
0300
0600
0000
0000
E070
E070
E070
E070
E070
E070
E070
E070
E070
E070
E0F0
71F0
7F70
3E70
ENDCHAR
STARTCHAR 00FB
ENCODING 251
SWIDTH 615 0
DWIDTH 16 0
BBX 12 21 2 0
BITMAP
0600
0F00
0900
1980
30C0
0000
0000
E070
E070
E070
E070
E070
E070
E070
E070
E070
E070
E0F0
71F0
7F70
3E70
ENDCHAR
STARTCHAR 00FC
ENCODING 252
SWIDTH 615 0
DWIDTH 16 0
BBX 12 20 2 0
BITMAP
39C0
39C0
39C0
0000
0000
0000
E070
E070
E070
E070
E070
E070
E070
E070
E070
E070
E0F0
71F0
7F70
3E70
ENDCHAR
STARTCHAR 00FD
ENCODING 253
SWIDTH 576 0
DWIDTH 15 0
BBX 14 26 1 -5
BITMAP
00E0
01C0
0180
0300
0600
0000
0000
E03C
7038
7038
7878
3870
3CF0
1CE0
1DE0
0FC0
0FC0
0F80
0780
0780
0700
0F00
0E00
1E00
7C00
7800
ENDCHAR
STARTCHAR 00FE
ENCODING 254
SWIDTH 653 0
DWIDTH 17 0
BBX 13 25 2 -5
BITMAP
E000
E000
E000
E000
E000
E000
E7C0
EFE0
F8F0
F070
E038
E038
E038
E038
E038
E038
F070
F8F0
EFE0
E7C0
E000
E000
E000
E000
E000
ENDCHAR
STARTCHAR 00FF
ENCODING 255
SWIDTH 576 0
DWIDTH 15 0
BBX 14 25 1 -5
BITMAP
1DC0
1DC0
1DC0
0000
0000
0000
E03C
7038
7038
7878
3870
3CF0
1CE0
1DE0
0FC0
0FC0
0F80
0780
0780
0700
0F00
0E00
1E00
7C00
7800
ENDCHAR
STARTCHAR 0100
ENCODING 256
SWIDTH 692 0
DWIDTH 18 0
BBX 17 23 0 0
BITMAP
07F000
07F000
000000
000000
01C000
01C000
03E000
03E000
07F000
077000
077000
0F3800
0E3800
0E3800
1C1C00
1C1C00
3FFE00
3FFE00
380E00
780F00
700700
700700
E00380
ENDCHAR
STARTCHAR 0101
ENCODING 257
SWIDTH 615 0
DWIDTH 16 0
BBX 12 19 1 0
BITMAP
3FC0
3FC0
0000
0000
0000
1F80
7FC0
40E0
0070
0070
1FF0
7FF0
F070
E070
E070
E0F0
F1F0
7F70
3E70
ENDCHAR
STARTCHAR 0102
ENCODING 258
SWIDTH 692 0
DWIDTH 18 0
BBX 17 25 0 0
BITMAP
063000
063000
03E000
01C000
000000
000000
01C000
01C000
03E000
03E000
07F000
077000
077000
0F3800
0E3800
0E3800
1C1C00
1C1C00
3FFE00
3FFE00
380E00
780F00
700700
700700
E00380
ENDCHAR
STARTCHAR 0103
ENCODING 259
SWIDTH 615 0
DWIDTH 16 0
BBX 12 20 1 0
BITMAP
30C0
39C0
1F80
0F00
0000
0000
1F80
7FC0
40E0
0070
0070
1FF0
7FF0
F070
E070
E070
E0F0
F1F0
7F70
3E70
ENDCHAR
STARTCHAR 0104
ENCODING 260
SWIDTH 692 0
DWIDTH 18 0
BBX 18 24 0 -5
BITMAP
01C000
03C000
03E000
03E000
07F000
077000
077000
0F3800
0E3800
0E3800
1C1C00
1C1C00
3FFE00
3FFE00
380E00
780700
700700
700700
E00380
000300
000600
000600
0007C0
0003C0
ENDCHAR
STARTCHAR 0105
ENCODING 261
SWIDTH 615 0
DWIDTH 16 0
BBX 14 19 1 -5
BITMAP
1F80
7FC0
40E0
0070
0070
1FF0
7FF0
F070
E070
E070
E0F0
F1F0
7F70
3E70
0030
0060
0060
007C
003C
ENDCHAR
STARTCHAR 0106
ENCODING 262
SWIDTH 692 0
DWIDTH 18 0
BBX 15 24 1 0
BITMAP
0030
0060
00C0
0000
0000
03F0
0FFC
3E0E
3806
7000
7000
E000
E000
E000
E000
E000
E000
E000
7000
7000
3806
3E0E
0FFC
03F0
ENDCHAR
STARTCHAR 0107
ENCODING 263
SWIDTH 538 0
DWIDTH 14 0
BBX 12 21 1 0
BITMAP
0070
00E0
00C0
0180
0300
0000
0000
0FC0
3FE0
7820
7000
E000
E000
E000
E000
E000
E000
7000
7820
3FE0
0FC0
ENDCHAR
STARTCHAR 0108
ENCODING 264
SWIDTH 692 0
DWIDTH 18 0
BBX 15 24 1 0
BITMAP
01E0
0330
0618
0000
0000
03F0
0FFC
3E0E
3806
7000
7000
E000
E000
E000
E000
E000
E000
E000
7000
7000
3806
3E0E
0FFC
03F0
ENDCHAR
STARTCHAR 0109
ENCODING 265
SWIDTH 538 0
DWIDTH 14 0
BBX 11 21 1 0
BITMAP
0300
0780
0480
0CC0
1860
0000
0000
0FC0
3FE0
7820
7000
E000
E000
E000
E000
E000
E000
7000
7820
3FE0
0FC0
ENDCHAR
STARTCHAR 010A
ENCODING 266
SWIDTH 692 0
DWIDTH 18 0
BBX 15 24 1 0
BITMAP
00E0
00E0
00E0
0000
0000
03F0
0FFC
3E0E
3806
7000
7000
E000
E000
E000
E000
E000
E000
E000
7000
7000
3806
3E0E
0FFC
03F0
ENDCHAR
STARTCHAR 010B
ENCODING 267
SWIDTH 538 0
DWIDTH 14 0
BBX 11 20 1 0
BITMAP
0380
0380
0380
0000
0000
0000
0FC0
3FE0
7820
7000
E000
E000
E000
E000
E000
E000
7000
7820
3FE0
0FC0
ENDCHAR
STARTCHAR 010C
ENCODING 268
SWIDTH 692 0
DWIDTH 18 0
BBX 15 24 1 0
BITMAP
030C
0198
00F0
0000
0000
03F0
0FFC
3E0E
3806
7000
7000
E000
E000
E000
E000
E000
E000
E000
7000
7000
3806
3E0E
0FFC
03F0
ENDCHAR
STARTCHAR 010D
ENCODING 269
SWIDTH 538 0
DWIDTH 14 0
BBX 11 21 1 0
BITMAP
1860
0CC0
0480
0780
0300
0000
0000
0FC0
3FE0
7820
7000
E000
E000
E000
E000
E000
E000
7000
7820
3FE0
0FC0
ENDCHAR
STARTCHAR 010E
ENCODING 270
SWIDTH 769 0
DWIDTH 20 0
BBX 16 24 2 0
BITMAP
0C30
0660
03C0
0000
0000
FFC0
FFF0
E07C
E01C
E00E
E00E
E007
E007
E007
E007
E007
E007
E007
E00E
E00E
E01C
E07C
FFF0
FFC0
ENDCHAR
STARTCHAR 010F
ENCODING 271
SWIDTH 653 0
DWIDTH 17 0
BBX 18 20 1 0
BITMAP
0038C0
0038C0
0038C0
003980
003980
003800
1F3800
3FB800
78F800
707800
E03800
E03800
E03800
E03800
E03800
E03800
707800
78F800
3FB800
1F3800
ENDCHAR
STARTCHAR 0110
ENCODING 272
SWIDTH 769 0
DWIDTH 20 0
BBX 19 19 0 0
BITMAP
1FF800
1FFE00
1C0F80
1C0380
1C01C0
1C01C0
1C00E0
1C00E0
FFC0E0
FFC0E0
1C00E0
1C00E0
1C00E0
1C01C0
1C01C0
1C0380
1C0F80
1FFE00
1FF800
ENDCHAR
STARTCHAR 0111
ENCODING 273
SWIDTH 653 0
DWIDTH 17 0
BBX 15 20 1 0
BITMAP
0038
0038
0038
03FE
03FE
0038
1F38
3FB8
78F8
7078
E038
E038
E038
E038
E038
E038
7078
78F8
3FB8
1F38
ENDCHAR
STARTCHAR 0112
ENCODING 274
SWIDTH 615 0
DWIDTH 16 0
BBX 12 23 2 0
BITMAP
1FE0
1FE0
0000
0000
FFF0
FFF0
E000
E000
E000
E000
E000
E000
FFE0
FFE0
E000
E000
E000
E000
E000
E000
E000
FFF0
FFF0
ENDCHAR
STARTCHAR 0113
ENCODING 275
SWIDTH 615 0
DWIDTH 16 0
BBX 13 19 1 0
BITMAP
0FF0
0FF0
0000
0000
0000
0FC0
3FE0
78F0
7070
E038
E038
FFF8
FFF8
E000
E000
7000
7810
3FF0
0FE0
ENDCHAR
STARTCHAR 0114
ENCODING 276
SWIDTH 615 0
DWIDTH 16 0
BBX 12 24 2 0
BITMAP
1860
1FE0
0780
0000
0000
FFF0
FFF0
E000
E000
E000
E000
E000
E000
FFE0
FFE0
E000
E000
E000
E000
E000
E000
E000
FFF0
FFF0
ENDCHAR
STARTCHAR 0115
ENCODING 277
SWIDTH 615 0
DWIDTH 16 0
BBX 13 21 1 0
BITMAP
0C30
0E70
07E0
03C0
0000
0000
0000
0FC0
3FE0
78F0
7070
E038
E038
FFF8
FFF8
E000
E000
7000
7810
3FF0
0FE0
ENDCHAR
STARTCHAR 0116
ENCODING 278
SWIDTH 615 0
DWIDTH 16 0
BBX 12 24 2 0
BITMAP
0700
0700
0700
0000
0000
FFF0
FFF0
E000
E000
E000
E000
E000
E000
FFE0
FFE0
E000
E000
E000
E000
E000
E000
E000
FFF0
FFF0
ENDCHAR
STARTCHAR 0117
ENCODING 279
SWIDTH 615 0
DWIDTH 16 0
BBX 13 20 1 0
BITMAP
0380
0380
0380
0000
0000
0000
0FC0
3FE0
78F0
7070
E038
E038
FFF8
FFF8
E000
E000
7000
7810
3FF0
0FE0
ENDCHAR
STARTCHAR 0118
ENCODING 280
SWIDTH 615 0
DWIDTH 16 0
BBX 13 24 2 -5
BITMAP
FFF0
FFF0
E000
E000
E000
E000
E000
E000
FFE0
FFE0
E000
E000
E000
E000
E000
E000
E000
FFF0
FFF0
0060
00C0
00C0
00F8
0078
ENDCHAR
STARTCHAR 0119
ENCODING 281
SWIDTH 615 0
DWIDTH 16 0
BBX 13 19 1 -5
BITMAP
0FC0
3FE0
78F0
7070
E038
E038
FFF8
FFF8
E000
E000
7000
7810
3FF0
0FE0
0060
00C0
00C0
00F8
0078
ENDCHAR
STARTCHAR 011A
ENCODING 282
SWIDTH 615 0
DWIDTH 16 0
BBX 12 24 2 0
BITMAP
1860
0CC0
0780
0000
0000
FFF0
FFF0
E000
E000
E000
E000
E000
E000
FFE0
FFE0
E000
E000
E000
E000
E000
E000
E000
FFF0
FFF0
ENDCHAR
STARTCHAR 011B
ENCODING 283
SWIDTH 615 0
DWIDTH 16 0
BBX 13 21 1 0
BITMAP
18C0
0880
0D80
0700
0700
0000
0000
0FC0
3FE0
78F0
7070
E038
E038
FFF8
FFF8
E000
E000
7000
7810
3FF0
0FE0
ENDCHAR
STARTCHAR 011C
ENCODING 284
SWIDTH 769 0
DWIDTH 20 0
BBX 17 24 1 0
BITMAP
00E000
01B000
031800
000000
000000
03F800
0FFE00
1E0F00
380300
700100
700000
E00000
E00000
E00000
E03F80
E03F80
E00380
E00380
700380
700380
380380
1E0780
0FFF00
03FC00
ENDCHAR
STARTCHAR 011D
ENCODING 285
SWIDTH 653 0
DWIDTH 17 0
BBX 13 26 1 -5
BITMAP
0700
0700
0D80
18C0
18C0
0000
0000
1F38
3FB8
78F8
7078
E038
E038
E038
E038
E038
E038
7078
78F8
3FB8
1F38
0038
0070
20F0
3FE0
1FC0
ENDCHAR
STARTCHAR 011E
ENCODING 286
SWIDTH 769 0
DWIDTH 20 0
BBX 17 24 1 0
BITMAP
030C00
03FC00
00F000
000000
000000
03F800
0FFE00
1E0F00
380300
700100
700000
E00000
E00000
E00000
E03F80
E03F80
E00380
E00380
700380
700380
380380
1E0780
0FFF00
03FC00
ENDCHAR
STARTCHAR 011F
ENCODING 287
SWIDTH 653 0
DWIDTH 17 0
BBX 13 26 1 -5
BITMAP
0C30
0E70
07E0
03C0
0000
0000
0000
1F38
3FB8
78F8
7078
E038
E038
E038
E038
E038
E038
7078
78F8
3FB8
1F38
0038
0070
20F0
3FE0
1FC0
ENDCHAR
STARTCHAR 0120
ENCODING 288
SWIDTH 769 0
DWIDTH 20 0
BBX 17 24 1 0
BITMAP
00E000
00E000
00E000
000000
000000
03F800
0FFE00
1E0F00
380300
700100
700000
E00000
E00000
E00000
E03F80
E03F80
E00380
E00380
700380
700380
380380
1E0780
0FFF00
03FC00
ENDCHAR
STARTCHAR 0121
ENCODING 289
SWIDTH 653 0
DWIDTH 17 0
BBX 13 25 1 -5
BITMAP
0700
0700
0700
0000
0000
0000
1F38
3FB8
78F8
7078
E038
E038
E038
E038
E038
E038
7078
78F8
3FB8
1F38
0038
0070
20F0
3FE0
1FC0
ENDCHAR
STARTCHAR 0122
ENCODING 290
SWIDTH 769 0
DWIDTH 20 0
BBX 17 25 1 -6
BITMAP
03F800
0FFE00
1E0F00
380300
700100
700000
E00000
E00000
E00000
E03F80
E03F80
E00380
E00380
700380
700380
380380
1E0780
0FFF00
03FC00
000000
000000
00E000
00E000
00C000
00C000
ENDCHAR
STARTCHAR 0123
ENCODING 291
SWIDTH 653 0
DWIDTH 17 0
BBX 13 25 1 -5
BITMAP
0080
0180
0180
0380
0000
0000
1F38
3FB8
78F8
7078
E038
E038
E038
E038
E038
E038
7078
78F8
3FB8
1F38
0038
0070
20F0
3FE0
1FC0
ENDCHAR
STARTCHAR 0124
ENCODING 292
SWIDTH 769 0
DWIDTH 20 0
BBX 14 24 2 0
BITMAP
0780
0CC0
1860
0000
0000
E01C
E01C
E01C
E01C
E01C
E01C
E01C
E01C
FFFC
FFFC
E01C
E01C
E01C
E01C
E01C
E01C
E01C
E01C
E01C
ENDCHAR
STARTCHAR 0125
ENCODING 293
SWIDTH 615 0
DWIDTH 16 0
BBX 14 24 0 0
BITMAP
3800
6C00
C700
0000
3800
3800
3800
3800
3800
3800
39F0
3BF8
3E38
3C1C
381C
381C
381C
381C
381C
381C
381C
381C
381C
381C
ENDCHAR
STARTCHAR 0126
ENCODING 294
SWIDTH 923 0
DWIDTH 24 0
BBX 18 19 3 0
BITMAP
380700
380700
380700
FFFFC0
FFFFC0
380700
380700
380700
3FFF00
3FFF00
380700
380700
380700
380700
380700
380700
380700
380700
380700
ENDCHAR
STARTCHAR 0127
ENCODING 295
SWIDTH 692 0
DWIDTH 18 0
BBX 14 20 1 0
BITMAP
3800
3800
FF80
FF80
3800
3800
39F0
3BF8
3E38
3C1C
381C
381C
381C
381C
381C
381C
381C
381C
381C
381C
ENDCHAR
STARTCHAR 0128
ENCODING 296
SWIDTH 307 0
DWIDTH 8 0
BBX 9 24 -1 0
BITMAP
7980
FF80
CF00
0000
0000
1C00
1C00
1C00
1C00
1C00
1C00
1C00
1C00
1C00
1C00
1C00
1C00
1C00
1C00
1C00
1C00
1C00
1C00
1C00
ENDCHAR
STARTCHAR 0129
ENCODING 297
SWIDTH 269 0
DWIDTH 7 0
BBX 9 20 -1 0
BITMAP
7180
F980
CF80
C700
0000
0000
1C00
1C00
1C00
1C00
1C00
1C00
1C00
1C00
1C00
1C00
1C00
1C00
1C00
1C00
ENDCHAR
STARTCHAR 012A
ENCODING 298
SWIDTH 307 0
DWIDTH 8 0
BBX 9 23 -1 0
BITMAP
FF80
FF80
0000
0000
1C00
1C00
1C00
1C00
1C00
1C00
1C00
1C00
1C00
1C00
1C00
1C00
1C00
1C00
1C00
1C00
1C00
1C00
1C00
ENDCHAR
STARTCHAR 012B
ENCODING 299
SWIDTH 269 0
DWIDTH 7 0
BBX 9 19 -1 0
BITMAP
FF80
FF80
0000
0000
0000
1C00
1C00
1C00
1C00
1C00
1C00
1C00
1C00
1C00
1C00
1C00
1C00
1C00
1C00
ENDCHAR
STARTCHAR 012C
ENCODING 300
SWIDTH 307 0
DWIDTH 8 0
BBX 9 24 -1 0
BITMAP
E380
7F00
3E00
0000
0000
1C00
1C00
1C00
1C00
1C00
1C00
1C00
1C00
1C00
1C00
1C00
1C00
1C00
1C00
1C00
1C00
1C00
1C00
1C00
ENDCHAR
STARTCHAR 012D
ENCODING 301
SWIDTH 269 0
DWIDTH 7 0
BBX 9 21 -1 0
BITMAP
C180
E380
7F00
3E00
0000
0000
0000
1C00
1C00
1C00
1C00
1C00
1C00
1C00
1C00
1C00
1C00
1C00
1C00
1C00
1C00
ENDCHAR
STARTCHAR 012E
ENCODING 302
SWIDTH 307 0
DWIDTH 8 0
BBX 5 24 2 -5
BITMAP
E0
E0
E0
E0
E0
E0
E0
E0
E0
E0
E0
E0
E0
E0
E0
E0
E0
E0
E0
60
C0
C0
F8
78
ENDCHAR
STARTCHAR 012F
ENCODING 303
SWIDTH 269 0
DWIDTH 7 0
BBX 5 25 2 -5
BITMAP
E0
E0
E0
00
00
00
E0
E0
E0
E0
E0
E0
E0
E0
E0
E0
E0
E0
E0
E0
60
C0
C0
F8
78
ENDCHAR
STARTCHAR 0130
ENCODING 304
SWIDTH 307 0
DWIDTH 8 0
BBX 3 24 2 0
BITMAP
E0
E0
E0
00
00
E0
E0
E0
E0
E0
E0
E0
E0
E0
E0
E0
E0
E0
E0
E0
E0
E0
E0
E0
ENDCHAR
STARTCHAR 0131
ENCODING 305
SWIDTH 269 0
DWIDTH 7 0
BBX 3 14 2 0
BITMAP
E0
E0
E0
E0
E0
E0
E0
E0
E0
E0
E0
E0
E0
E0
ENDCHAR
STARTCHAR 0132
ENCODING 306
SWIDTH 576 0
DWIDTH 15 0
BBX 11 24 2 -5
BITMAP
E0E0
E0E0
E0E0
E0E0
E0E0
E0E0
E0E0
E0E0
E0E0
E0E0
E0E0
E0E0
E0E0
E0E0
E0E0
E0E0
E0E0
E0E0
E0E0
00E0
00E0
01C0
0FC0
0F00
ENDCHAR
STARTCHAR 0133
ENCODING 307
SWIDTH 538 0
DWIDTH 14 0
BBX 10 25 2 -5
BITMAP
E1C0
E1C0
E1C0
0000
0000
0000
E1C0
E1C0
E1C0
E1C0
E1C0
E1C0
E1C0
E1C0
E1C0
E1C0
E1C0
E1C0
E1C0
E1C0
01C0
01C0
03C0
0F80
0F00
ENDCHAR
STARTCHAR 0134
ENCODING 308
SWIDTH 307 0
DWIDTH 8 0
BBX 10 29 -2 -5
BITMAP
0E00
1B00
31C0
0000
0000
0E00
0E00
0E00
0E00
0E00
0E00
0E00
0E00
0E00
0E00
0E00
0E00
0E00
0E00
0E00
0E00
0E00
0E00
0E00
0E00
0E00
1C00
FC00
F000
ENDCHAR
STARTCHAR 0135
ENCODING 309
SWIDTH 269 0
DWIDTH 7 0
BBX 9 26 -1 -5
BITMAP
1C00
3E00
3600
6300
C180
0000
0000
1C00
1C00
1C00
1C00
1C00
1C00
1C00
1C00
1C00
1C00
1C00
1C00
1C00
1C00
1C00
1C00
3C00
F800
F000
ENDCHAR
STARTCHAR 0136
ENCODING 310
SWIDTH 653 0
DWIDTH 17 0
BBX 15 25 2 -6
BITMAP
E03C
E078
E0F0
E1E0
E3C0
E780
EF00
FE00
FC00
FC00
FE00
EF00
E780
E3C0
E1E0
E0F0
E078
E03C
E01E
0000
0000
01C0
01C0
0180
0180
ENDCHAR
STARTCHAR 0137
ENCODING 311
SWIDTH 576 0
DWIDTH 15 0
BBX 13 26 2 -6
BITMAP
E000
E000
E000
E000
E000
E000
E0F0
E1E0
E3C0
EF80
FF00
FE00
FC00
FC00
FE00
EF00
E780
E3C0
E1E0
E0F8
0000
0000
0700
0700
0600
0600
ENDCHAR
STARTCHAR 0138
ENCODING 312
SWIDTH 576 0
DWIDTH 15 0
BBX 13 14 2 0
BITMAP
E0F0
E1E0
E3C0
EF80
FF00
FE00
FC00
FC00
FE00
EF00
E780
E3C0
E1E0
E0F8
ENDCHAR
STARTCHAR 0139
ENCODING 313
SWIDTH 538 0
DWIDTH 14 0
BBX 12 24 2 0
BITMAP
1800
3000
6000
0000
0000
E000
E000
E000
E000
E000
E000
E000
E000
E000
E000
E000
E000
E000
E000
E000
E000
E000
FFF0
FFF0
ENDCHAR
STARTCHAR 013A
ENCODING 314
SWIDTH 269 0
DWIDTH 7 0
BBX 4 24 2 0
BITMAP
30
60
C0
00
E0
E0
E0
E0
E0
E0
E0
E0
E0
E0
E0
E0
E0
E0
E0
E0
E0
E0
E0
E0
ENDCHAR
STARTCHAR 013B
ENCODING 315
SWIDTH 538 0
DWIDTH 14 0
BBX 12 25 2 -6
BITMAP
E000
E000
E000
E000
E000
E000
E000
E000
E000
E000
E000
E000
E000
E000
E000
E000
E000
FFF0
FFF0
0000
0000
0700
0700
0600
0600
ENDCHAR
STARTCHAR 013C
ENCODING 316
SWIDTH 269 0
DWIDTH 7 0
BBX 3 26 2 -6
BITMAP
E0
E0
E0
E0
E0
E0
E0
E0
E0
E0
E0
E0
E0
E0
E0
E0
E0
E0
E0
E0
00
00
E0
E0
C0
C0
ENDCHAR
STARTCHAR 013D
ENCODING 317
SWIDTH 538 0
DWIDTH 14 0
BBX 12 19 2 0
BITMAP
E180
E180
E180
E300
E300
E000
E000
E000
E000
E000
E000
E000
E000
E000
E000
E000
E000
FFF0
FFF0
ENDCHAR
STARTCHAR 013E
ENCODING 318
SWIDTH 384 0
DWIDTH 10 0
BBX 7 20 2 0
BITMAP
E6
E6
E6
EC
EC
E0
E0
E0
E0
E0
E0
E0
E0
E0
E0
E0
E0
E0
E0
E0
ENDCHAR
STARTCHAR 013F
ENCODING 319
SWIDTH 538 0
DWIDTH 14 0
BBX 12 19 2 0
BITMAP
E000
E000
E000
E000
E000
E000
E0E0
E0E0
E0E0
E000
E000
E000
E000
E000
E000
E000
E000
FFF0
FFF0
ENDCHAR
STARTCHAR 0140
ENCODING 320
SWIDTH 346 0
DWIDTH 9 0
BBX 7 20 2 0
BITMAP
E0
E0
E0
E0
E0
E0
E0
E0
EE
EE
EE
E0
E0
E0
E0
E0
E0
E0
E0
E0
ENDCHAR
STARTCHAR 0141
ENCODING 321
SWIDTH 576 0
DWIDTH 15 0
BBX 15 19 0 0
BITMAP
1C00
1C00
1C00
1C00
1C00
1C40
1CE0
1DC0
1F00
1E00
3C00
FC00
DC00
1C00
1C00
1C00
1C00
1FFE
1FFE
ENDCHAR
STARTCHAR 0142
ENCODING 322
SWIDTH 269 0
DWIDTH 7 0
BBX 9 20 0 0
BITMAP
1C00
1C00
1C00
1C00
1C00
1C00
1C00
1F80
1F00
1C00
7C00
FC00
1C00
1C00
1C00
1C00
1C00
1C00
1C00
1C00
ENDCHAR
STARTCHAR 0143
ENCODING 323
SWIDTH 730 0
DWIDTH 19 0
BBX 14 24 2 0
BITMAP
00C0
0180
0300
0000
0000
F01C
F81C
F81C
FC1C
FC1C
FE1C
EE1C
EF1C
E71C
E79C
E39C
E3DC
E1DC
E1FC
E0FC
E0FC
E07C
E07C
E03C
ENDCHAR
STARTCHAR 0144
ENCODING 324
SWIDTH 615 0
DWIDTH 16 0
BBX 12 21 2 0
BITMAP
01C0
0380
0300
0600
0C00
0000
0000
E7C0
EFE0
F8E0
F070
E070
E070
E070
E070
E070
E070
E070
E070
E070
E070
ENDCHAR
STARTCHAR 0145
ENCODING 325
SWIDTH 730 0
DWIDTH 19 0
BBX 14 25 2 -6
BITMAP
F01C
F81C
F81C
FC1C
FC1C
FE1C
EE1C
EF1C
E71C
E79C
E39C
E3DC
E1DC
E1FC
E0FC
E0FC
E07C
E07C
E03C
0000
0000
0380
0380
0300
0300
ENDCHAR
STARTCHAR 0146
ENCODING 326
SWIDTH 615 0
DWIDTH 16 0
BBX 12 20 2 -6
BITMAP
E7C0
EFE0
F8E0
F070
E070
E070
E070
E070
E070
E070
E070
E070
E070
E070
0000
0000
0700
0700
0600
0600
ENDCHAR
STARTCHAR 0147
ENCODING 327
SWIDTH 730 0
DWIDTH 19 0
BBX 14 24 2 0
BITMAP
1860
0CC0
0780
0000
0000
F01C
F81C
F81C
FC1C
FC1C
FE1C
EE1C
EF1C
E71C
E79C
E39C
E3DC
E1DC
E1FC
E0FC
E0FC
E07C
E07C
E03C
ENDCHAR
STARTCHAR 0148
ENCODING 328
SWIDTH 615 0
DWIDTH 16 0
BBX 12 21 2 0
BITMAP
30C0
1980
0900
0F00
0600
0000
0000
E7C0
EFE0
F8E0
F070
E070
E070
E070
E070
E070
E070
E070
E070
E070
E070
ENDCHAR
STARTCHAR 0149
ENCODING 329
SWIDTH 807 0
DWIDTH 21 0
BBX 16 19 2 0
BITMAP
7000
7000
7000
6000
E000
CE7C
0EFE
0F8E
0F07
0E07
0E07
0E07
0E07
0E07
0E07
0E07
0E07
0E07
0E07
ENDCHAR
STARTCHAR 014A
ENCODING 330
SWIDTH 730 0
DWIDTH 19 0
BBX 14 24 3 -5
BITMAP
E7E0
EFF0
FC78
F038
F01C
E01C
E01C
E01C
E01C
E01C
E01C
E01C
E01C
E01C
E01C
E01C
E01C
E01C
E01C
001C
001C
003C
00F8
00F0
ENDCHAR
STARTCHAR 014B
ENCODING 331
SWIDTH 615 0
DWIDTH 16 0
BBX 12 20 2 -6
BITMAP
E7C0
EFE0
F8E0
F070
E070
E070
E070
E070
E070
E070
E070
E070
E070
E070
0070
0070
0070
00F0
0FE0
0FC0
ENDCHAR
STARTCHAR 014C
ENCODING 332
SWIDTH 769 0
DWIDTH 20 0
BBX 18 23 1 0
BITMAP
07F800
07F800
000000
000000
03F000
0FFC00
1E1E00
380700
700380
700380
E001C0
E001C0
E001C0
E001C0
E001C0
E001C0
E001C0
700380
700380
380700
1E1E00
0FFC00
03F000
ENDCHAR
STARTCHAR 014D
ENCODING 333
SWIDTH 615 0
DWIDTH 16 0
BBX 13 19 1 0
BITMAP
1FC0
1FC0
0000
0000
0000
0F80
3FE0
78F0
7070
E038
E038
E038
E038
E038
E038
7070
78F0
3FE0
0F80
ENDCHAR
STARTCHAR 014E
ENCODING 334
SWIDTH 769 0
DWIDTH 20 0
BBX 18 24 1 0
BITMAP
061800
07F800
01E000
000000
000000
03F000
0FFC00
1E1E00
380700
700380
700380
E001C0
E001C0
E001C0
E001C0
E001C0
E001C0
E001C0
700380
700380
380700
1E1E00
0FFC00
03F000
ENDCHAR
STARTCHAR 014F
ENCODING 335
SWIDTH 615 0
DWIDTH 16 0
BBX 13 21 1 0
BITMAP
18C0
18C0
0F80
0700
0000
0000
0000
0F80
3FE0
78F0
7070
E038
E038
E038
E038
E038
E038
7070
78F0
3FE0
0F80
ENDCHAR
STARTCHAR 0150
ENCODING 336
SWIDTH 769 0
DWIDTH 20 0
BBX 18 24 1 0
BITMAP
00CC00
019800
033000
000000
000000
03F000
0FFC00
1E1E00
380700
700380
700380
E001C0
E001C0
E001C0
E001C0
E001C0
E001C0
E001C0
700380
700380
380700
1E1E00
0FFC00
03F000
ENDCHAR
STARTCHAR 0151
ENCODING 337
SWIDTH 615 0
DWIDTH 16 0
BBX 13 21 1 0
BITMAP
0398
0330
0660
0660
0CC0
0000
0000
0F80
3FE0
78F0
7070
E038
E038
E038
E038
E038
E038
7070
78F0
3FE0
0F80
ENDCHAR
STARTCHAR 0152
ENCODING 338
SWIDTH 1076 0
DWIDTH 28 0
BBX 25 19 1 0
BITMAP
01FFFF80
0FFFFF80
1F070000
3C070000
70070000
70070000
E0070000
E0070000
E007FF00
E007FF00
E0070000
E0070000
E0070000
70070000
70070000
3C070000
1F070000
0FFFFF80
01FFFF80
ENDCHAR
STARTCHAR 0153
ENCODING 339
SWIDTH 1038 0
DWIDTH 27 0
BBX 23 14 1 0
BITMAP
0F83F0
3FC7F8
78EE3C
707C1C
E0380E
E0380E
E03FFE
E03FFE
E03800
E03800
707C00
78EE04
3FC7FC
0F83F8
ENDCHAR
STARTCHAR 0154
ENCODING 340
SWIDTH 692 0
DWIDTH 18 0
BBX 15 24 2 0
BITMAP
0180
0300
0600
0000
0000
FF80
FFE0
E0E0
E070
E070
E070
E070
E070
E0E0
FFC0
FF80
E1C0
E0E0
E0F0
E070
E078
E038
E01C
E01E
ENDCHAR
STARTCHAR 0155
ENCODING 341
SWIDTH 423 0
DWIDTH 11 0
BBX 10 21 2 0
BITMAP
01C0
0380
0300
0600
0C00
0000
0000
E700
EF00
F800
F000
E000
E000
E000
E000
E000
E000
E000
E000
E000
E000
ENDCHAR
STARTCHAR 0156
ENCODING 342
SWIDTH 692 0
DWIDTH 18 0
BBX 15 25 2 -6
BITMAP
FF80
FFE0
E0E0
E070
E070
E070
E070
E070
E0E0
FFC0
FF80
E1C0
E0E0
E0F0
E070
E078
E038
E01C
E01E
0000
0000
0380
0380
0300
0300
ENDCHAR
STARTCHAR 0157
ENCODING 343
SWIDTH 423 0
DWIDTH 11 0
BBX 8 20 2 -6
BITMAP
E7
EF
F8
F0
E0
E0
E0
E0
E0
E0
E0
E0
E0
E0
00
00
E0
E0
C0
C0
ENDCHAR
STARTCHAR 0158
ENCODING 344
SWIDTH 692 0
DWIDTH 18 0
BBX 15 24 2 0
BITMAP
1860
0CC0
0780
0000
0000
FF80
FFE0
E0E0
E070
E070
E070
E070
E070
E0E0
FFC0
FF80
E1C0
E0E0
E0F0
E070
E078
E038
E01C
E01E
ENDCHAR
STARTCHAR 0159
ENCODING 345
SWIDTH 423 0
DWIDTH 11 0
BBX 8 21 2 0
BITMAP
C3
66
24
3C
18
00
00
E7
EF
F8
F0
E0
E0
E0
E0
E0
E0
E0
E0
E0
E0
ENDCHAR
STARTCHAR 015A
ENCODING 346
SWIDTH 653 0
DWIDTH 17 0
BBX 13 24 2 0
BITMAP
0180
0300
0600
0000
0000
1FC0
3FF0
7870
E010
E000
E000
F000
FE00
7FC0
1FF0
03F0
0078
0038
0038
0038
8038
E0F0
FFE0
3F80
ENDCHAR
STARTCHAR 015B
ENCODING 347
SWIDTH 538 0
DWIDTH 14 0
BBX 11 21 1 0
BITMAP
00E0
01C0
0180
0300
0600
0000
0000
3F80
7FC0
F040
E000
E000
F400
7F80
1FC0
01E0
00E0
00E0
81E0
FFC0
3F00
ENDCHAR
STARTCHAR 015C
ENCODING 348
SWIDTH 653 0
DWIDTH 17 0
BBX 13 24 2 0
BITMAP
0700
0D80
18C0
0000
0000
1FC0
3FF0
7870
E010
E000
E000
F000
FE00
7FC0
1FF0
03F0
0078
0038
0038
0038
8038
E0F0
FFE0
3F80
ENDCHAR
STARTCHAR 015D
ENCODING 349
SWIDTH 538 0
DWIDTH 14 0
BBX 11 21 1 0
BITMAP
0E00
0E00
1B00
3180
3180
0000
0000
3F80
7FC0
F040
E000
E000
F400
7F80
1FC0
01E0
00E0
00E0
81E0
FFC0
3F00
ENDCHAR
STARTCHAR 015E
ENCODING 350
SWIDTH 653 0
DWIDTH 17 0
BBX 13 24 2 -5
BITMAP
1FC0
3FF0
7870
E010
E000
E000
F000
FE00
7FC0
1FF0
03F0
0078
0038
0038
0038
8038
E0F0
FFE0
3F80
0300
0180
0180
0F80
0F00
ENDCHAR
STARTCHAR 015F
ENCODING 351
SWIDTH 538 0
DWIDTH 14 0
BBX 11 19 1 -5
BITMAP
3F80
7FC0
F040
E000
E000
F400
7F80
1FC0
01E0
00E0
00E0
81E0
FFC0
3F00
0600
0300
0300
1F00
1E00
ENDCHAR
STARTCHAR 0160
ENCODING 352
SWIDTH 653 0
DWIDTH 17 0
BBX 13 24 2 0
BITMAP
18C0
0D80
0700
0000
0000
1FC0
3FF0
7870
E010
E000
E000
F000
FE00
7FC0
1FF0
03F0
0078
0038
0038
0038
8038
E0F0
FFE0
3F80
ENDCHAR
STARTCHAR 0161
ENCODING 353
SWIDTH 538 0
DWIDTH 14 0
BBX 11 21 1 0
BITMAP
3180
3180
1B00
0E00
0E00
0000
0000
3F80
7FC0
F040
E000
E000
F400
7F80
1FC0
01E0
00E0
00E0
81E0
FFC0
3F00
ENDCHAR
STARTCHAR 0162
ENCODING 354
SWIDTH 615 0
DWIDTH 16 0
BBX 17 24 0 -5
BITMAP
FFFF80
FFFF80
01C000
01C000
01C000
01C000
01C000
01C000
01C000
01C000
01C000
01C000
01C000
01C000
01C000
01C000
01C000
01C000
01C000
018000
00C000
00C000
07C000
078000
ENDCHAR
STARTCHAR 0163
ENCODING 355
SWIDTH 384 0
DWIDTH 10 0
BBX 10 23 0 -5
BITMAP
3800
3800
3800
3800
FFC0
FFC0
3800
3800
3800
3800
3800
3800
3800
3800
3800
3800
1FC0
0FC0
0300
0180
0180
0F80
0F00
ENDCHAR
STARTCHAR 0164
ENCODING 356
SWIDTH 615 0
DWIDTH 16 0
BBX 17 24 0 0
BITMAP
063000
036000
01C000
000000
000000
FFFF80
FFFF80
01C000
01C000
01C000
01C000
01C000
01C000
01C000
01C000
01C000
01C000
01C000
01C000
01C000
01C000
01C000
01C000
01C000
ENDCHAR
STARTCHAR 0165
ENCODING 357
SWIDTH 384 0
DWIDTH 10 0
BBX 10 21 0 0
BITMAP
0180
0180
0180
3B00
3B00
3800
3800
FFC0
FFC0
3800
3800
3800
3800
3800
3800
3800
3800
3800
3800
1FC0
0FC0
ENDCHAR
STARTCHAR 0166
ENCODING 358
SWIDTH 615 0
DWIDTH 16 0
BBX 17 19 0 0
BITMAP
FFFF80
FFFF80
01C000
01C000
01C000
01C000
01C000
01C000
01C000
01C000
0FF800
0FF800
01C000
01C000
01C000
01C000
01C000
01C000
01C000
ENDCHAR
STARTCHAR 0167
ENCODING 359
SWIDTH 384 0
DWIDTH 10 0
BBX 10 18 0 0
BITMAP
3800
3800
3800
3800
FFC0
FFC0
3800
3800
3800
FE00
FE00
3800
3800
3800
3800
3800
1FC0
0FC0
ENDCHAR
STARTCHAR 0168
ENCODING 360
SWIDTH 730 0
DWIDTH 19 0
BBX 14 24 3 0
BITMAP
0E60
1FE0
19C0
0000
0000
E01C
E01C
E01C
E01C
E01C
E01C
E01C
E01C
E01C
E01C
E01C
E01C
E01C
E01C
E01C
7038
7878
3FF0
0FC0
ENDCHAR
STARTCHAR 0169
ENCODING 361
SWIDTH 615 0
DWIDTH 16 0
BBX 12 20 2 0
BITMAP
1CC0
3CC0
33C0
3380
0000
0000
E070
E070
E070
E070
E070
E070
E070
E070
E070
E070
E0F0
71F0
7F70
3E70
ENDCHAR
STARTCHAR 016A
ENCODING 362
SWIDTH 730 0
DWIDTH 19 0
BBX 14 23 3 0
BITMAP
1FE0
1FE0
0000
0000
E01C
E01C
E01C
E01C
E01C
E01C
E01C
E01C
E01C
E01C
E01C
E01C
E01C
E01C
E01C
7038
7878
3FF0
0FC0
ENDCHAR
STARTCHAR 016B
ENCODING 363
SWIDTH 615 0
DWIDTH 16 0
BBX 12 19 2 0
BITMAP
3FC0
3FC0
0000
0000
0000
E070
E070
E070
E070
E070
E070
E070
E070
E070
E070
E0F0
71F0
7F70
3E70
ENDCHAR
STARTCHAR 016C
ENCODING 364
SWIDTH 730 0
DWIDTH 19 0
BBX 14 24 3 0
BITMAP
1860
1FE0
0780
0000
0000
E01C
E01C
E01C
E01C
E01C
E01C
E01C
E01C
E01C
E01C
E01C
E01C
E01C
E01C
E01C
7038
7878
3FF0
0FC0
ENDCHAR
STARTCHAR 016D
ENCODING 365
SWIDTH 615 0
DWIDTH 16 0
BBX 12 21 2 0
BITMAP
30C0
39C0
1F80
0F00
0000
0000
0000
E070
E070
E070
E070
E070
E070
E070
E070
E070
E070
E0F0
71F0
7F70
3E70
ENDCHAR
STARTCHAR 016E
ENCODING 366
SWIDTH 730 0
DWIDTH 19 0
BBX 14 24 3 0
BITMAP
0700
0F80
18C0
18C0
18C0
EF9C
E71C
E01C
E01C
E01C
E01C
E01C
E01C
E01C
E01C
E01C
E01C
E01C
E01C
E01C
7038
7878
3FF0
0FC0
ENDCHAR
STARTCHAR 016F
ENCODING 367
SWIDTH 615 0
DWIDTH 16 0
BBX 12 22 2 0
BITMAP
0700
0F80
18C0
18C0
18C0
0F80
0700
0000
E070
E070
E070
E070
E070
E070
E070
E070
E070
E070
E0F0
71F0
7F70
3E70
ENDCHAR
STARTCHAR 0170
ENCODING 368
SWIDTH 730 0
DWIDTH 19 0
BBX 14 24 3 0
BITMAP
0660
0CC0
1980
0000
0000
E01C
E01C
E01C
E01C
E01C
E01C
E01C
E01C
E01C
E01C
E01C
E01C
E01C
E01C
E01C
7038
7878
3FF0
0FC0
ENDCHAR
STARTCHAR 0171
ENCODING 369
SWIDTH 615 0
DWIDTH 16 0
BBX 12 21 2 0
BITMAP
0730
0660
0CC0
0CC0
1980
0000
0000
E070
E070
E070
E070
E070
E070
E070
E070
E070
E070
E0F0
71F0
7F70
3E70
ENDCHAR
STARTCHAR 0172
ENCODING 370
SWIDTH 730 0
DWIDTH 19 0
BBX 14 24 3 -5
BITMAP
E01C
E01C
E01C
E01C
E01C
E01C
E01C
E01C
E01C
E01C
E01C
E01C
E01C
E01C
E01C
7038
7878
3FF0
0FC0
0600
0C00
0C00
0F80
0780
ENDCHAR
STARTCHAR 0173
ENCODING 371
SWIDTH 615 0
DWIDTH 16 0
BBX 14 19 2 -5
BITMAP
E070
E070
E070
E070
E070
E070
E070
E070
E070
E070
E0F0
71F0
7F70
3E70
0030
0060
0060
007C
003C
ENDCHAR
STARTCHAR 0174
ENCODING 372
SWIDTH 1000 0
DWIDTH 26 0
BBX 24 24 1 0
BITMAP
003C00
006600
00C300
000000
000000
E03C07
E03C07
703C0E
703C0E
707E0E
70660E
38661C
38661C
38E71C
38C31C
1CC338
1CC338
1DC338
1D81B8
0F81F0
0F81F0
0F81F0
0F00F0
0700E0
ENDCHAR
STARTCHAR 0175
ENCODING 373
SWIDTH 807 0
DWIDTH 21 0
BBX 19 21 1 0
BITMAP
00E000
00E000
01B000
011000
031800
000000
000000
E0E0E0
E0E1E0
71F1C0
71B1C0
71B1C0
79B3C0
3B1B80
3B1B80
3B1B80
1F1F80
1E0F00
1E0F00
1E0F00
0E0E00
ENDCHAR
STARTCHAR 0176
ENCODING 374
SWIDTH 615 0
DWIDTH 16 0
BBX 17 24 0 0
BITMAP
01C000
036000
063000
000000
000000
F00780
780F00
380E00
3C1E00
1E3C00
0F7800
077000
07F000
03E000
01C000
01C000
01C000
01C000
01C000
01C000
01C000
01C000
01C000
01C000
ENDCHAR
STARTCHAR 0177
ENCODING 375
SWIDTH 576 0
DWIDTH 15 0
BBX 14 26 1 -5
BITMAP
0700
0700
0D80
0880
18C0
0000
0000
E03C
7038
7038
7878
3870
3CF0
1CE0
1DE0
0FC0
0FC0
0F80
0780
0780
0700
0F00
0E00
1E00
7C00
7800
ENDCHAR
STARTCHAR 0178
ENCODING 376
SWIDTH 615 0
DWIDTH 16 0
BBX 17 24 0 0
BITMAP
077000
077000
077000
000000
000000
F00780
780F00
380E00
3C1E00
1E3C00
0F7800
077000
07F000
03E000
01C000
01C000
01C000
01C000
01C000
01C000
01C000
01C000
01C000
01C000
ENDCHAR
STARTCHAR 0179
ENCODING 377
SWIDTH 692 0
DWIDTH 18 0
BBX 15 24 1 0
BITMAP
00C0
0180
0300
0000
0000
FFFE
FFFE
001E
003C
0078
0070
00F0
01E0
03C0
0380
0780
0F00
1E00
1C00
3C00
7800
F000
FFFE
FFFE
ENDCHAR
STARTCHAR 017A
ENCODING 378
SWIDTH 538 0
DWIDTH 14 0
BBX 11 21 1 0
BITMAP
00E0
01C0
0180
0300
0600
0000
0000
FFE0
FFE0
01E0
03C0
0780
0780
0F00
1E00
1C00
3C00
7800
F000
FFE0
FFE0
ENDCHAR
STARTCHAR 017B
ENCODING 379
SWIDTH 692 0
DWIDTH 18 0
BBX 15 24 1 0
BITMAP
0380
0380
0380
0000
0000
FFFE
FFFE
001E
003C
0078
0070
00F0
01E0
03C0
0380
0780
0F00
1E00
1C00
3C00
7800
F000
FFFE
FFFE
ENDCHAR
STARTCHAR 017C
ENCODING 380
SWIDTH 538 0
DWIDTH 14 0
BBX 11 20 1 0
BITMAP
0E00
0E00
0E00
0000
0000
0000
FFE0
FFE0
01E0
03C0
0780
0780
0F00
1E00
1C00
3C00
7800
F000
FFE0
FFE0
ENDCHAR
STARTCHAR 017D
ENCODING 381
SWIDTH 692 0
DWIDTH 18 0
BBX 15 24 1 0
BITMAP
0C30
0660
03C0
0000
0000
FFFE
FFFE
001E
003C
0078
0070
00F0
01E0
03C0
0380
0780
0F00
1E00
1C00
3C00
7800
F000
FFFE
FFFE
ENDCHAR
STARTCHAR 017E
ENCODING 382
SWIDTH 538 0
DWIDTH 14 0
BBX 11 21 1 0
BITMAP
3180
1100
1B00
0E00
0E00
0000
0000
FFE0
FFE0
01E0
03C0
0780
0780
0F00
1E00
1C00
3C00
7800
F000
FFE0
FFE0
ENDCHAR
STARTCHAR 017F
ENCODING 383
SWIDTH 346 0
DWIDTH 9 0
BBX 9 20 1 0
BITMAP
0F80
1F80
3800
3800
3800
3800
F800
F800
3800
3800
3800
3800
3800
3800
3800
3800
3800
3800
3800
3800
ENDCHAR
STARTCHAR 0180
ENCODING 384
SWIDTH 615 0
DWIDTH 16 0
BBX 15 20 0 0
BITMAP
3800
FF00
FF00
3800
3800
3800
39F0
3BF8
3E3C
3C1C
380E
380E
380E
380E
380E
380E
3C1C
3E3C
3BF8
39F0
ENDCHAR
STARTCHAR 0181
ENCODING 385
SWIDTH 730 0
DWIDTH 19 0
BBX 18 19 -3 0
BITMAP
3FFC00
7FFF00
E70700
C70380
C70380
070380
070380
070700
07FE00
07FE00
070380
070180
0701C0
0701C0
0701C0
0701C0
070380
07FF00
07FE00
ENDCHAR
STARTCHAR 0182
ENCODING 386
SWIDTH 653 0
DWIDTH 17 0
BBX 13 19 2 0
BITMAP
FFF0
FFF0
E000
E000
E000
E000
E000
E000
FFC0
FFF0
E070
E038
E038
E038
E038
E038
E070
FFF0
FFC0
ENDCHAR
STARTCHAR 0183
ENCODING 387
SWIDTH 615 0
DWIDTH 16 0
BBX 13 20 2 0
BITMAP
FFE0
FFE0
E000
E000
E000
E000
E7C0
EFE0
F8F0
F070
E038
E038
E038
E038
E038
E038
F070
F8F0
EFE0
E7C0
ENDCHAR
STARTCHAR 0184
ENCODING 388
SWIDTH 692 0
DWIDTH 18 0
BBX 16 19 0 0
BITMAP
0C00
1C00
3C00
7C00
FC00
1C00
1C00
1C00
1FF8
1FFE
1C0E
1C07
1C07
1C07
1C07
1C07
1C0E
1FFC
1FF8
ENDCHAR
STARTCHAR 0185
ENCODING 389
SWIDTH 615 0
DWIDTH 16 0
BBX 15 20 0 0
BITMAP
0800
1800
3800
3800
7800
F800
39F0
3BF8
3E3C
3C1C
380E
380E
380E
380E
380E
380E
3C1C
3E3C
3BF8
39F0
ENDCHAR
STARTCHAR 0186
ENCODING 390
SWIDTH 653 0
DWIDTH 17 0
BBX 15 19 1 0
BITMAP
1F80
7FE0
E0F8
8038
001C
001C
000E
000E
000E
000E
000E
000E
000E
001C
001C
8038
E0F8
7FE0
1F80
ENDCHAR
STARTCHAR 0187
ENCODING 391
SWIDTH 692 0
DWIDTH 18 0
BBX 19 24 1 0
BITMAP
0001E0
0007E0
000700
000F00
000E00
03FE00
0FFE00
3E0E00
380600
700000
700000
E00000
E00000
E00000
E00000
E00000
E00000
E00000
700000
700000
380600
3E0E00
0FFC00
03F000
ENDCHAR
STARTCHAR 0188
ENCODING 392
SWIDTH 538 0
DWIDTH 14 0
BBX 14 20 1 0
BITMAP
003C
007C
007C
00F0
00E0
00E0
0FE0
3FE0
7820
7000
E000
E000
E000
E000
E000
E000
7000
7820
3FE0
0FC0
ENDCHAR
STARTCHAR 0189
ENCODING 393
SWIDTH 769 0
DWIDTH 20 0
BBX 19 19 0 0
BITMAP
1FF800
1FFE00
1C0F80
1C0380
1C01C0
1C01C0
1C00E0
1C00E0
FFC0E0
FFC0E0
1C00E0
1C00E0
1C00E0
1C01C0
1C01C0
1C0380
1C0F80
1FFE00
1FF800
ENDCHAR
STARTCHAR 018A
ENCODING 394
SWIDTH 807 0
DWIDTH 21 0
BBX 21 19 -3 0
BITMAP
3FFE00
7FFF80
E703E0
C700E0
C70070
070070
070038
070038
070038
070038
070038
070038
070038
070070
070070
0700E0
0703E0
07FF80
07FE00
ENDCHAR
STARTCHAR 018B
ENCODING 395
SWIDTH 615 0
DWIDTH 16 0
BBX 13 19 1 0
BITMAP
3FF8
3FF8
0038
0038
0038
0038
0038
0038
1FF8
7FF8
7038
E038
E038
E038
E038
E038
7038
3FF8
1FF8
ENDCHAR
STARTCHAR 018C
ENCODING 396
SWIDTH 653 0
DWIDTH 17 0
BBX 13 20 1 0
BITMAP
3FF8
3FF8
0038
0038
0038
0038
1F38
3FB8
78F8
7078
E038
E038
E038
E038
E038
E038
7078
78F8
3FB8
1F38
ENDCHAR
STARTCHAR 018D
ENCODING 397
SWIDTH 576 0
DWIDTH 15 0
BBX 13 20 1 -6
BITMAP
0F80
3FE0
78F0
7070
E038
E038
E038
E038
E038
E038
F030
7070
3C60
1FC0
07E0
00F0
0070
20F0
3FE0
1FC0
ENDCHAR
STARTCHAR 018E
ENCODING 398
SWIDTH 653 0
DWIDTH 17 0
BBX 12 19 2 0
BITMAP
FFF0
FFF0
0070
0070
0070
0070
0070
0070
7FF0
7FF0
0070
0070
0070
0070
0070
0070
0070
FFF0
FFF0
ENDCHAR
STARTCHAR 018F
ENCODING 399
SWIDTH 769 0
DWIDTH 20 0
BBX 18 19 1 0
BITMAP
1FF000
7FFC00
701E00
400700
000380
000380
0001C0
0001C0
0001C0
0001C0
FFFFC0
FFFFC0
E001C0
600180
700380
780700
3C0E00
1FFC00
03F000
ENDCHAR
STARTCHAR 0190
ENCODING 400
SWIDTH 538 0
DWIDTH 14 0
BBX 12 19 1 0
BITMAP
1F80
7FE0
7020
E000
E000
E000
E000
7000
3F80
3F80
7800
F000
E000
E000
E000
F000
7810
3FF0
0FC0
ENDCHAR
STARTCHAR 0191
ENCODING 401
SWIDTH 576 0
DWIDTH 15 0
BBX 15 24 -2 -5
BITMAP
0FFE
0FFE
0E00
0E00
0E00
0E00
0E00
0E00
0FFC
0FFC
0E00
0E00
0E00
0E00
0E00
0E00
0E00
0E00
0E00
0E00
0E00
1C00
FC00
F000
ENDCHAR
STARTCHAR 0192
ENCODING 402
SWIDTH 346 0
DWIDTH 9 0
BBX 11 25 -1 -5
BITMAP
03E0
07E0
0F00
0E00
0E00
0E00
3FE0
3FE0
0E00
0E00
0E00
0E00
0E00
0E00
0E00
0E00
0E00
0E00
0E00
0E00
0E00
0E00
0E00
FC00
F800
ENDCHAR
STARTCHAR 0193
ENCODING 403
SWIDTH 769 0
DWIDTH 20 0
BBX 20 24 2 0
BITMAP
0000F0
0003F0
000380
000780
000700
03F700
0FFF00
3E0F00
380300
700100
700000
E00000
E00000
E00000
E03F80
E03F80
E00380
E00380
700380
700380
380380
1E0780
0FFF00
03FC00
ENDCHAR
STARTCHAR 0194
ENCODING 404
SWIDTH 692 0
DWIDTH 18 0
BBX 18 24 0 -5
BITMAP
F003C0
700380
780780
380700
1C0F00
1C1E00
0E1C00
0F3C00
073800
07F800
03F000
03F000
01E000
01E000
01E000
03F000
03F000
03F000
073800
073800
073800
073800
07F800
01E000
ENDCHAR
STARTCHAR 0195
ENCODING 405
SWIDTH 1000 0
DWIDTH 26 0
BBX 22 20 2 0
BITMAP
E00000
E00000
E00000
E00000
E00000
E00000
E7C0C0
EFE0F0
F8E078
F07038
E0701C
E0701C
E0701C
E0701C
E0701C
E0701C
E07038
E07078
E03FF0
E01FC0
ENDCHAR
STARTCHAR 0196
ENCODING 406
SWIDTH 346 0
DWIDTH 9 0
BBX 6 19 2 0
BITMAP
E0
E0
E0
E0
E0
E0
E0
E0
E0
E0
E0
E0
E0
E0
E0
E0
70
7C
1C
ENDCHAR
STARTCHAR 0197
ENCODING 407
SWIDTH 307 0
DWIDTH 8 0
BBX 7 19 0 0
BITMAP
38
38
38
38
38
38
38
38
38
38
FE
FE
38
38
38
38
38
38
38
ENDCHAR
STARTCHAR 0198
ENCODING 408
SWIDTH 730 0
DWIDTH 19 0
BBX 18 19 2 0
BITMAP
E01F00
E07F80
E0F3C0
E1E1C0
E7C1C0
EF8000
FF0000
FE0000
FC0000
FC0000
FE0000
EF0000
E78000
E3C000
E1E000
E0F000
E0F800
E07C00
E03E00
ENDCHAR
STARTCHAR 0199
ENCODING 409
SWIDTH 576 0
DWIDTH 15 0
BBX 13 20 2 0
BITMAP
3E00
7E00
F000
E000
E000
E000
E0F0
E1E0
E3C0
EF80
FF00
FE00
FC00
FC00
FE00
EF00
E780
E3C0
E1E0
E0F8
ENDCHAR
STARTCHAR 019A
ENCODING 410
SWIDTH 269 0
DWIDTH 7 0
BBX 7 20 0 0
BITMAP
38
38
38
38
38
38
38
38
38
FE
FE
38
38
38
38
38
38
38
38
38
ENDCHAR
STARTCHAR 019B
ENCODING 411
SWIDTH 615 0
DWIDTH 16 0
BBX 14 20 1 0
BITMAP
0E20
07E0
07C0
3F80
7B80
2380
0380
03C0
07C0
07C0
0FE0
0EE0
1EE0
1C70
1C70
3870
3838
7038
7038
F01C
ENDCHAR
STARTCHAR 019C
ENCODING 412
SWIDTH 961 0
DWIDTH 25 0
BBX 21 19 2 0
BITMAP
E07038
E07038
E07038
E07038
E07038
E07038
E07038
E07038
E07038
E07038
E07038
E07038
E07038
E07038
E07038
E0F078
71B8F8
7F3FB8
3E0F38
ENDCHAR
STARTCHAR 019D
ENCODING 413
SWIDTH 730 0
DWIDTH 19 0
BBX 18 24 -2 -5
BITMAP
0F01C0
0F81C0
0F81C0
0FC1C0
0FC1C0
0FE1C0
0EE1C0
0EF1C0
0E71C0
0E79C0
0E39C0
0E3DC0
0E1DC0
0E1FC0
0E0FC0
0E0FC0
0E07C0
0E07C0
0E03C0
0E0000
0E0000
1C0000
FC0000
F00000
ENDCHAR
STARTCHAR 019E
ENCODING 414
SWIDTH 615 0
DWIDTH 16 0
BBX 12 19 2 -5
BITMAP
E7C0
EFE0
F8E0
F070
E070
E070
E070
E070
E070
E070
E070
E070
E070
E070
0070
0070
0070
0070
0070
ENDCHAR
STARTCHAR 019F
ENCODING 415
SWIDTH 769 0
DWIDTH 20 0
BBX 18 19 1 0
BITMAP
03F000
0FFC00
1E1E00
380700
700380
700380
E001C0
E001C0
FFFFC0
FFFFC0
E001C0
E001C0
E001C0
700380
700380
380700
1E0E00
0FFC00
03F000
ENDCHAR
STARTCHAR 01A0
ENCODING 416
SWIDTH 923 0
DWIDTH 24 0
BBX 19 20 1 0
BITMAP
000060
03F060
0FFE60
1E1FE0
3807C0
700380
700380
E001C0
E001C0
E001C0
E001C0
E001C0
E001C0
E001C0
700380
700380
380700
1E1E00
0FFC00
03F000
ENDCHAR
STARTCHAR 01A1
ENCODING 417
SWIDTH 615 0
DWIDTH 16 0
BBX 15 16 1 0
BITMAP
0006
0006
0FA6
3FFE
78FC
7070
E038
E038
E038
E038
E038
E038
7070
78F0
3FE0
0F80
ENDCHAR
STARTCHAR 01A2
ENCODING 418
SWIDTH 923 0
DWIDTH 24 0
BBX 21 19 1 0
BITMAP
03FFC0
0FFFF0
3C1E70
380E38
700E38
700E38
E00E38
E00E38
E00E38
E00E38
E00E38
E00E38
E00E38
700E38
700E38
380E38
3C1E38
0FFC38
03F038
ENDCHAR
STARTCHAR 01A3
ENCODING 419
SWIDTH 730 0
DWIDTH 19 0
BBX 16 19 1 -5
BITMAP
0FFC
3FFE
78EF
70E7
E0E7
E0E7
E0E7
E0E7
E0E7
E0E7
70E7
78E7
3FE7
0F87
0007
0007
0007
0007
0007
ENDCHAR
STARTCHAR 01A4
ENCODING 420
SWIDTH 653 0
DWIDTH 17 0
BBX 17 19 -3 0
BITMAP
3FFC00
7FFF00
E70700
C70380
C70380
070380
070380
070380
070700
07FF00
07FC00
070000
070000
070000
070000
070000
070000
070000
070000
ENDCHAR
STARTCHAR 01A5
ENCODING 421
SWIDTH 653 0
DWIDTH 17 0
BBX 13 25 2 -5
BITMAP
3F00
7F00
F000
E000
E000
E000
E7C0
EFE0
F8F0
F070
E038
E038
E038
E038
E038
E038
F070
F8F0
EFE0
E7C0
E000
E000
E000
E000
E000
ENDCHAR
STARTCHAR 01A6
ENCODING 422
SWIDTH 692 0
DWIDTH 18 0
BBX 15 22 2 -3
BITMAP
E000
E000
E000
FF80
FFE0
E0E0
E070
E070
E070
E070
E070
E0E0
FFC0
FF80
E1C0
E0E0
E070
E070
E038
0038
001C
001E
ENDCHAR
STARTCHAR 01A7
ENCODING 423
SWIDTH 653 0
DWIDTH 17 0
BBX 13 19 1 0
BITMAP
1FC0
7FE0
70F0
4038
0038
0038
0038
02F8
0FF0
3FC0
7E00
F000
E000
E000
E000
E008
7838
3FF8
0FE0
ENDCHAR
STARTCHAR 01A8
ENCODING 424
SWIDTH 538 0
DWIDTH 14 0
BBX 11 14 1 0
BITMAP
3F00
7FC0
41E0
00E0
00E0
05E0
3FC0
7F00
F000
E000
E000
F020
7FE0
1F80
ENDCHAR
STARTCHAR 01A9
ENCODING 425
SWIDTH 615 0
DWIDTH 16 0
BBX 12 19 2 0
BITMAP
FFF0
FFF0
F000
7800
3C00
1E00
0F00
0780
03C0
0380
0780
0F00
1E00
1C00
3C00
7800
F000
FFF0
FFF0
ENDCHAR
STARTCHAR 01AA
ENCODING 426
SWIDTH 346 0
DWIDTH 9 0
BBX 13 25 -3 -5
BITMAP
7E00
FF00
C380
FFE0
7FE0
0380
0380
0380
0380
0380
0380
0380
0380
0380
0380
0380
0380
0380
0380
0380
0380
0380
0380
01F8
00F8
ENDCHAR
STARTCHAR 01AB
ENCODING 427
SWIDTH 384 0
DWIDTH 10 0
BBX 10 23 0 -5
BITMAP
3800
3800
3800
3800
FFC0
FFC0
3800
3800
3800
3800
3800
3800
3800
3800
3800
3800
1FC0
0FC0
01C0
01C0
03C0
0F80
0F00
ENDCHAR
STARTCHAR 01AC
ENCODING 428
SWIDTH 615 0
DWIDTH 16 0
BBX 16 19 1 0
BITMAP
3FFF
7FFF
F380
E380
E380
0380
0380
0380
0380
0380
0380
0380
0380
0380
0380
0380
0380
0380
0380
ENDCHAR
STARTCHAR 01AD
ENCODING 429
SWIDTH 384 0
DWIDTH 10 0
BBX 10 20 0 0
BITMAP
0FC0
1FC0
3C00
3800
3800
3800
FFC0
FFC0
3800
3800
3800
3800
3800
3800
3800
3800
3800
3800
1FC0
0FC0
ENDCHAR
STARTCHAR 01AE
ENCODING 430
SWIDTH 615 0
DWIDTH 16 0
BBX 17 24 0 -5
BITMAP
FFFF80
FFFF80
01C000
01C000
01C000
01C000
01C000
01C000
01C000
01C000
01C000
01C000
01C000
01C000
01C000
01C000
01C000
01C000
01C000
01C000
01C000
00E000
00FC00
003C00
ENDCHAR
STARTCHAR 01AF
ENCODING 431
SWIDTH 846 0
DWIDTH 22 0
BBX 18 20 3 0
BITMAP
0000C0
E01CC0
E01CC0
E01FC0
E01F80
E01C00
E01C00
E01C00
E01C00
E01C00
E01C00
E01C00
E01C00
E01C00
E01C00
E01C00
703800
787800
3FF000
0FC000
ENDCHAR
STARTCHAR 01B0
ENCODING 432
SWIDTH 615 0
DWIDTH 16 0
BBX 16 16 2 0
BITMAP
0003
0003
E073
E07F
E07E
E070
E070
E070
E070
E070
E070
E070
E0F0
71F0
7F70
3E70
ENDCHAR
STARTCHAR 01B1
ENCODING 433
SWIDTH 730 0
DWIDTH 19 0
BBX 17 19 1 0
BITMAP
FF7F80
FF7F80
1E3C00
3C1E00
380E00
700700
700700
E00380
E00380
E00380
E00380
E00380
E00380
700700
700700
380E00
3C1E00
0FF800
03E000
ENDCHAR
STARTCHAR 01B2
ENCODING 434
SWIDTH 730 0
DWIDTH 19 0
BBX 15 19 2 0
BITMAP
E000
E000
E030
E038
E01C
E01C
E00E
E00E
E00E
E00E
E00E
E00E
E00E
E01C
E01C
E038
7078
7FE0
1F80
ENDCHAR
STARTCHAR 01B3
ENCODING 435
SWIDTH 730 0
DWIDTH 19 0
BBX 20 19 0 0
BITMAP
F003C0
780FE0
380E70
3C1E70
1E3C70
0F7800
077000
07F000
03E000
01C000
01C000
01C000
01C000
01C000
01C000
01C000
01C000
01C000
01C000
ENDCHAR
STARTCHAR 01B4
ENCODING 436
SWIDTH 730 0
DWIDTH 19 0
BBX 19 19 1 -5
BITMAP
E00780
701FC0
7038E0
7838E0
3870E0
3C7000
1CE000
1CE000
0FE000
0FC000
0FC000
078000
078000
070000
070000
0E0000
1E0000
7C0000
780000
ENDCHAR
STARTCHAR 01B5
ENCODING 437
SWIDTH 692 0
DWIDTH 18 0
BBX 15 19 1 0
BITMAP
FFFE
FFFE
001E
003C
0078
00F0
00F0
01E0
3FF8
3FF8
0780
0F00
1E00
1C00
3C00
7800
F000
FFFE
FFFE
ENDCHAR
STARTCHAR 01B6
ENCODING 438
SWIDTH 538 0
DWIDTH 14 0
BBX 11 14 1 0
BITMAP
FFE0
FFE0
01E0
03C0
0380
0780
7FE0
7FE0
1C00
3C00
7800
F000
FFE0
FFE0
ENDCHAR
STARTCHAR 01B7
ENCODING 439
SWIDTH 653 0
DWIDTH 17 0
BBX 14 19 2 0
BITMAP
FFF8
FFF8
0078
00F0
01E0
01C0
03C0
0780
07C0
07F0
0078
003C
001C
001C
001C
C03C
E078
7FF0
1FC0
ENDCHAR
STARTCHAR 01B8
ENCODING 440
SWIDTH 653 0
DWIDTH 17 0
BBX 14 19 1 0
BITMAP
7FFC
7FFC
7800
3C00
1E00
0E00
0F00
0780
0F80
3F80
7800
F000
E000
E000
E000
F00C
783C
3FF8
0FE0
ENDCHAR
STARTCHAR 01B9
ENCODING 441
SWIDTH 576 0
DWIDTH 15 0
BBX 12 19 1 -5
BITMAP
7FF0
7FF0
7800
3C00
1E00
0F00
0780
0380
0F80
3F80
7800
F000
E000
E000
E000
F000
7810
3FF0
0FC0
ENDCHAR
STARTCHAR 01BA
ENCODING 442
SWIDTH 538 0
DWIDTH 14 0
BBX 12 19 1 -5
BITMAP
FFF0
FFF0
00E0
01C0
0380
0300
0700
0FC0
1FE0
0070
0070
00E0
0FE0
3F80
7000
6000
6000
7FE0
3FE0
ENDCHAR
STARTCHAR 01BB
ENCODING 443
SWIDTH 653 0
DWIDTH 17 0
BBX 12 19 2 1
BITMAP
7F80
FFC0
C0E0
0070
0070
0070
0070
0060
00E0
7FE0
7FE0
0700
0E00
1C00
3800
7000
E000
FFF0
FFF0
ENDCHAR
STARTCHAR 01BC
ENCODING 444
SWIDTH 653 0
DWIDTH 17 0
BBX 15 20 1 -1
BITMAP
7FF8
7FF8
7000
7000
7000
7000
7000
7000
7FE0
7FF8
003C
001C
000E
000E
E00E
E00E
F01E
783C
3FF8
0FE0
ENDCHAR
STARTCHAR 01BD
ENCODING 445
SWIDTH 538 0
DWIDTH 14 0
BBX 12 19 1 -5
BITMAP
7FE0
7FE0
7000
7000
7000
7000
7000
7000
7F80
7FC0
01E0
00F0
0070
0070
0070
00F0
C1E0
FFC0
3F00
ENDCHAR
STARTCHAR 01BE
ENCODING 446
SWIDTH 500 0
DWIDTH 13 0
BBX 11 18 1 0
BITMAP
1C00
1C00
1C00
FF80
FF80
1C00
1C00
1F00
1F80
01C0
00E0
00E0
00E0
00E0
00E0
81C0
FF80
FF00
ENDCHAR
STARTCHAR 01BF
ENCODING 447
SWIDTH 615 0
DWIDTH 16 0
BBX 13 19 2 -5
BITMAP
E3E0
EFF0
FC78
F838
F038
E038
E038
E070
E070
E0E0
E1C0
E380
E700
FE00
F800
F000
E000
E000
E000
ENDCHAR
STARTCHAR 01C0
ENCODING 448
SWIDTH 307 0
DWIDTH 8 0
BBX 3 25 2 -5
BITMAP
E0
E0
E0
E0
E0
E0
E0
E0
E0
E0
E0
E0
E0
E0
E0
E0
E0
E0
E0
E0
E0
E0
E0
E0
E0
ENDCHAR
STARTCHAR 01C1
ENCODING 449
SWIDTH 500 0
DWIDTH 13 0
BBX 8 25 2 -5
BITMAP
E7
E7
E7
E7
E7
E7
E7
E7
E7
E7
E7
E7
E7
E7
E7
E7
E7
E7
E7
E7
E7
E7
E7
E7
E7
ENDCHAR
STARTCHAR 01C2
ENCODING 450
SWIDTH 461 0
DWIDTH 12 0
BBX 11 25 1 -5
BITMAP
0E00
0E00
0E00
0E00
0E00
0E00
0E00
0E00
FFE0
FFE0
0E00
0E00
0E00
FFE0
FFE0
0E00
0E00
0E00
0E00
0E00
0E00
0E00
0E00
0E00
0E00
ENDCHAR
STARTCHAR 01C3
ENCODING 451
SWIDTH 307 0
DWIDTH 8 0
BBX 3 19 3 0
BITMAP
E0
E0
E0
E0
E0
E0
E0
E0
E0
E0
E0
E0
E0
00
00
00
E0
E0
E0
ENDCHAR
STARTCHAR 01C4
ENCODING 452
SWIDTH 1423 0
DWIDTH 37 0
BBX 33 24 2 0
BITMAP
0000030C00
0000019800
000000F000
0000000000
0000000000
FFC03FFF80
FFF03FFF80
E07C000780
E01C000F00
E00E001E00
E00E001C00
E007003C00
E007007800
E00700F000
E00700E000
E00701E000
E00703C000
E007078000
E00E070000
E00E0F0000
E01C1E0000
E07C3C0000
FFF03FFF80
FFC03FFF80
ENDCHAR
STARTCHAR 01C5
ENCODING 453
SWIDTH 1307 0
DWIDTH 34 0
BBX 29 21 2 0
BITMAP
00000C60
00000440
FFC006C0
FFF00380
E07C0380
E01C0000
E00E0000
E00E3FF8
E0073FF8
E0070078
E00700F0
E00701E0
E00701E0
E00703C0
E0070780
E00E0700
E00E0F00
E01C1E00
E07C3C00
FFF03FF8
FFC03FF8
ENDCHAR
STARTCHAR 01C6
ENCODING 454
SWIDTH 1153 0
DWIDTH 30 0
BBX 26 21 1 0
BITMAP
00006300
00382200
00383600
00381C00
00381C00
00380000
00380000
1F39FFC0
3FB9FFC0
78F803C0
70780780
E0380F00
E0380F00
E0381E00
E0383C00
E0383800
E0387800
7078F000
78F9E000
3FB9FFC0
1F39FFC0
ENDCHAR
STARTCHAR 01C7
ENCODING 455
SWIDTH 846 0
DWIDTH 22 0
BBX 18 24 2 -5
BITMAP
E001C0
E001C0
E001C0
E001C0
E001C0
E001C0
E001C0
E001C0
E001C0
E001C0
E001C0
E001C0
E001C0
E001C0
E001C0
E001C0
E001C0
FFF1C0
FFF1C0
0001C0
0001C0
000380
001F80
001E00
ENDCHAR
STARTCHAR 01C8
ENCODING 456
SWIDTH 769 0
DWIDTH 20 0
BBX 17 25 2 -5
BITMAP
000380
E00380
E00380
E00000
E00000
E00000
E00380
E00380
E00380
E00380
E00380
E00380
E00380
E00380
E00380
E00380
E00380
E00380
FFF380
FFF380
000380
000380
000780
001F00
001E00
ENDCHAR
STARTCHAR 01C9
ENCODING 457
SWIDTH 461 0
DWIDTH 12 0
BBX 8 25 2 -5
BITMAP
E7
E7
E7
E0
E0
E0
E7
E7
E7
E7
E7
E7
E7
E7
E7
E7
E7
E7
E7
E7
07
07
0F
3E
3C
ENDCHAR
STARTCHAR 01CA
ENCODING 458
SWIDTH 923 0
DWIDTH 24 0
BBX 20 24 2 -5
BITMAP
F01C70
F81C70
F81C70
FC1C70
FC1C70
FE1C70
EE1C70
EF1C70
E71C70
E79C70
E39C70
E3DC70
E1DC70
E1FC70
E0FC70
E0FC70
E07C70
E07C70
E03C70
000070
000070
0000E0
0007E0
000780
ENDCHAR
STARTCHAR 01CB
ENCODING 459
SWIDTH 923 0
DWIDTH 24 0
BBX 20 25 2 -5
BITMAP
000070
F01C70
F81C70
F81C00
FC1C00
FC1C00
FE1C70
EE1C70
EF1C70
E71C70
E79C70
E39C70
E3DC70
E1DC70
E1FC70
E0FC70
E0FC70
E07C70
E07C70
E03C70
000070
000070
0000F0
0003E0
0003C0
ENDCHAR
STARTCHAR 01CC
ENCODING 460
SWIDTH 807 0
DWIDTH 21 0
BBX 17 25 2 -5
BITMAP
000380
000380
000380
000000
000000
000000
E7C380
EFE380
F8E380
F07380
E07380
E07380
E07380
E07380
E07380
E07380
E07380
E07380
E07380
E07380
000380
000380
000780
001F00
001E00
ENDCHAR
STARTCHAR 01CD
ENCODING 461
SWIDTH 692 0
DWIDTH 18 0
BBX 17 24 0 0
BITMAP
063000
036000
01C000
000000
000000
01C000
01C000
03E000
03E000
07F000
077000
077000
0F3800
0E3800
0E3800
1C1C00
1C1C00
3FFE00
3FFE00
380E00
780F00
700700
700700
E00380
ENDCHAR
STARTCHAR 01CE
ENCODING 462
SWIDTH 615 0
DWIDTH 16 0
BBX 12 21 1 0
BITMAP
30C0
1980
0900
0F00
0600
0000
0000
1F80
7FC0
40E0
0070
0070
1FF0
7FF0
F070
E070
E070
E0F0
F1F0
7F70
3E70
ENDCHAR
STARTCHAR 01CF
ENCODING 463
SWIDTH 307 0
DWIDTH 8 0
BBX 7 24 0 0
BITMAP
C6
6C
38
00
00
38
38
38
38
38
38
38
38
38
38
38
38
38
38
38
38
38
38
38
ENDCHAR
STARTCHAR 01D0
ENCODING 464
SWIDTH 269 0
DWIDTH 7 0
BBX 7 21 0 0
BITMAP
C6
C6
6C
38
38
00
00
38
38
38
38
38
38
38
38
38
38
38
38
38
38
ENDCHAR
STARTCHAR 01D1
ENCODING 465
SWIDTH 769 0
DWIDTH 20 0
BBX 18 24 1 0
BITMAP
030C00
019800
00F000
000000
000000
03F000
0FFC00
1E1E00
380700
700380
700380
E001C0
E001C0
E001C0
E001C0
E001C0
E001C0
E001C0
700380
700380
380700
1E1E00
0FFC00
03F000
ENDCHAR
STARTCHAR 01D2
ENCODING 466
SWIDTH 615 0
DWIDTH 16 0
BBX 13 21 1 0
BITMAP
18C0
18C0
0D80
0700
0700
0000
0000
0F80
3FE0
78F0
7070
E038
E038
E038
E038
E038
E038
7070
78F0
3FE0
0F80
ENDCHAR
STARTCHAR 01D3
ENCODING 467
SWIDTH 730 0
DWIDTH 19 0
BBX 14 24 3 0
BITMAP
1860
0CC0
0780
0000
0000
E01C
E01C
E01C
E01C
E01C
E01C
E01C
E01C
E01C
E01C
E01C
E01C
E01C
E01C
E01C
7038
7878
3FF0
0FC0
ENDCHAR
STARTCHAR 01D4
ENCODING 468
SWIDTH 615 0
DWIDTH 16 0
BBX 12 21 2 0
BITMAP
30C0
1980
0900
0F00
0600
0000
0000
E070
E070
E070
E070
E070
E070
E070
E070
E070
E070
E0F0
71F0
7F70
3E70
ENDCHAR
STARTCHAR 01D5
ENCODING 469
SWIDTH 730 0
DWIDTH 19 0
BBX 14 26 3 0
BITMAP
1FE0
1FE0
0000
1CE0
1CE0
1CE0
0000
E01C
E01C
E01C
E01C
E01C
E01C
E01C
E01C
E01C
E01C
E01C
E01C
E01C
E01C
E01C
7038
7878
3FF0
0FC0
ENDCHAR
STARTCHAR 01D6
ENCODING 470
SWIDTH 615 0
DWIDTH 16 0
BBX 12 23 2 0
BITMAP
1FE0
1FE0
0000
38E0
39E0
39E0
0000
0000
0000
E070
E070
E070
E070
E070
E070
E070
E070
E070
E070
E0F0
71F0
7F70
3E70
ENDCHAR
STARTCHAR 01D7
ENCODING 471
SWIDTH 730 0
DWIDTH 19 0
BBX 14 27 3 0
BITMAP
00C0
0180
0300
0000
1CE0
1CE0
1CE0
0000
E01C
E01C
E01C
E01C
E01C
E01C
E01C
E01C
E01C
E01C
E01C
E01C
E01C
E01C
E01C
7038
7878
3FF0
0FC0
ENDCHAR
STARTCHAR 01D8
ENCODING 472
SWIDTH 615 0
DWIDTH 16 0
BBX 12 23 2 0
BITMAP
0180
0300
0600
0000
39C0
39C0
39C0
0000
0000
E070
E070
E070
E070
E070
E070
E070
E070
E070
E070
E0F0
71F0
7F70
3E70
ENDCHAR
STARTCHAR 01D9
ENCODING 473
SWIDTH 730 0
DWIDTH 19 0
BBX 14 27 3 0
BITMAP
1860
0CC0
0780
0000
1CE0
1CE0
1CE0
0000
E01C
E01C
E01C
E01C
E01C
E01C
E01C
E01C
E01C
E01C
E01C
E01C
E01C
E01C
E01C
7038
7878
3FF0
0FC0
ENDCHAR
STARTCHAR 01DA
ENCODING 474
SWIDTH 615 0
DWIDTH 16 0
BBX 12 23 2 0
BITMAP
30C0
1980
0F00
0000
39C0
39C0
39C0
0000
0000
E070
E070
E070
E070
E070
E070
E070
E070
E070
E070
E0F0
71F0
7F70
3E70
ENDCHAR
STARTCHAR 01DB
ENCODING 475
SWIDTH 730 0
DWIDTH 19 0
BBX 14 27 3 0
BITMAP
1C00
0E00
0600
0000
1CE0
1CE0
1CE0
0000
E01C
E01C
E01C
E01C
E01C
E01C
E01C
E01C
E01C
E01C
E01C
E01C
E01C
E01C
E01C
7038
7878
3FF0
0FC0
ENDCHAR
STARTCHAR 01DC
ENCODING 476
SWIDTH 615 0
DWIDTH 16 0
BBX 12 23 2 0
BITMAP
3800
1C00
0C00
0000
39C0
39C0
39C0
0000
0000
E070
E070
E070
E070
E070
E070
E070
E070
E070
E070
E0F0
71F0
7F70
3E70
ENDCHAR
STARTCHAR 01DD
ENCODING 477
SWIDTH 615 0
DWIDTH 16 0
BBX 13 14 1 0
BITMAP
3F80
7FE0
40F0
0070
0038
0038
FFF8
FFF8
E038
E038
7070
78F0
3FE0
1F80
ENDCHAR
STARTCHAR 01DE
ENCODING 478
SWIDTH 692 0
DWIDTH 18 0
BBX 17 26 0 0
BITMAP
07F800
07F800
000000
073800
073800
073800
000000
01C000
01C000
03E000
03E000
07F000
077000
077000
0F3800
0E3800
0E3800
1C1C00
1C1C00
3FFE00
3FFE00
380E00
780F00
700700
700700
E00380
ENDCHAR
STARTCHAR 01DF
ENCODING 479
SWIDTH 615 0
DWIDTH 16 0
BBX 12 23 1 0
BITMAP
1FE0
1FE0
0000
39C0
39C0
39C0
0000
0000
0000
1F80
7FC0
40E0
0070
0070
1FF0
7FF0
F070
E070
E070
E0F0
F1F0
7F70
3E70
ENDCHAR
STARTCHAR 01E0
ENCODING 480
SWIDTH 692 0
DWIDTH 18 0
BBX 17 26 0 0
BITMAP
07F800
07F800
000000
01C000
01C000
01C000
000000
01C000
01C000
03E000
03E000
07F000
077000
077000
0F3800
0E3800
0E3800
1C1C00
1C1C00
3FFE00
3FFE00
380E00
780F00
700700
700700
E00380
ENDCHAR
STARTCHAR 01E1
ENCODING 481
SWIDTH 615 0
DWIDTH 16 0
BBX 12 22 1 0
BITMAP
1FE0
1FE0
0000
0700
0700
0700
0000
0000
1F80
7FC0
40E0
0070
0070
1FF0
7FF0
F070
E070
E070
E0F0
F1F0
7F70
3E70
ENDCHAR
STARTCHAR 01E2
ENCODING 482
SWIDTH 961 0
DWIDTH 25 0
BBX 23 23 0 0
BITMAP
000FF0
000FF0
000000
000000
01FFFE
01FFFE
01DC00
03DC00
039C00
079C00
071C00
071C00
0F1FFC
0E1FFC
1E1C00
1C1C00
1FFC00
3FFC00
381C00
781C00
701C00
701FFE
E01FFE
ENDCHAR
STARTCHAR 01E3
ENCODING 483
SWIDTH 1000 0
DWIDTH 26 0
BBX 22 19 1 0
BITMAP
00FF00
00FF00
000000
000000
000000
1F87E0
7FDFF0
40FC78
007838
00701C
1FF01C
7FFFFC
F07FFC
E07000
E07000
E0F800
F1DC08
7F9FF8
3E07F0
ENDCHAR
STARTCHAR 01E4
ENCODING 484
SWIDTH 769 0
DWIDTH 20 0
BBX 19 19 1 0
BITMAP
03F800
0FFE00
1E0F00
380300
700100
700000
E00000
E00000
E00000
E03F80
E03F80
E00380
E00380
701FE0
700380
380380
1E0780
0FFF00
03FC00
ENDCHAR
STARTCHAR 01E5
ENCODING 485
SWIDTH 653 0
DWIDTH 17 0
BBX 15 19 1 -5
BITMAP
1F38
3FB8
78F8
7078
E038
E038
E038
E038
E038
E038
7078
78F8
3FB8
1F38
3FFE
0030
20F0
3FE0
1F80
ENDCHAR
STARTCHAR 01E6
ENCODING 486
SWIDTH 769 0
DWIDTH 20 0
BBX 17 24 1 0
BITMAP
031800
01B000
00E000
000000
000000
03F800
0FFE00
1E0F00
380300
700100
700000
E00000
E00000
E00000
E03F80
E03F80
E00380
E00380
700380
700380
380380
1E0780
0FFF00
03FC00
ENDCHAR
STARTCHAR 01E7
ENCODING 487
SWIDTH 653 0
DWIDTH 17 0
BBX 13 26 1 -5
BITMAP
30C0
1980
0900
0F00
0600
0000
0000
1F38
3FB8
78F8
7078
E038
E038
E038
E038
E038
E038
7078
78F8
3FB8
1F38
0038
0070
20F0
3FE0
1FC0
ENDCHAR
STARTCHAR 01E8
ENCODING 488
SWIDTH 653 0
DWIDTH 17 0
BBX 15 24 2 0
BITMAP
1860
0CC0
0780
0000
0000
E03C
E078
E0F0
E1E0
E3C0
E780
EF00
FE00
FC00
FC00
FE00
EF00
E780
E3C0
E1E0
E0F0
E078
E03C
E01E
ENDCHAR
STARTCHAR 01E9
ENCODING 489
SWIDTH 576 0
DWIDTH 15 0
BBX 16 24 -1 0
BITMAP
E300
3600
1C00
0000
1C00
1C00
1C00
1C00
1C00
1C00
1C1E
1C3C
1C78
1DF0
1FE0
1FC0
1F80
1F80
1FC0
1DE0
1CF0
1C78
1C3C
1C1F
ENDCHAR
STARTCHAR 01EA
ENCODING 490
SWIDTH 769 0
DWIDTH 20 0
BBX 18 24 1 -5
BITMAP
03F000
0FFC00
1E1E00
380700
700380
700380
E001C0
E001C0
E001C0
E001C0
E001C0
E001C0
E001C0
700380
700380
380700
1E1E00
0FFC00
03F000
00C000
018000
018000
01F000
00F000
ENDCHAR
STARTCHAR 01EB
ENCODING 491
SWIDTH 615 0
DWIDTH 16 0
BBX 13 19 1 -5
BITMAP
0F80
3FE0
78F0
7070
E038
E038
E038
E038
E038
E038
7070
78F0
3FE0
0F80
0300
0600
0600
07C0
03C0
ENDCHAR
STARTCHAR 01EC
ENCODING 492
SWIDTH 769 0
DWIDTH 20 0
BBX 18 28 1 -5
BITMAP
03FC00
03FC00
000000
000000
03F000
0FFC00
1E1E00
380700
700380
700380
E001C0
E001C0
E001C0
E001C0
E001C0
E001C0
E001C0
700380
700380
380700
1E1E00
0FFC00
03F000
00C000
018000
018000
01F000
00F000
ENDCHAR
STARTCHAR 01ED
ENCODING 493
SWIDTH 615 0
DWIDTH 16 0
BBX 13 24 1 -5
BITMAP
1FE0
1FE0
0000
0000
0000
0F80
3FE0
78F0
7070
E038
E038
E038
E038
E038
E038
7070
78F0
3FE0
0F80
0300
0600
0600
07C0
03C0
ENDCHAR
STARTCHAR 01EE
ENCODING 494
SWIDTH 653 0
DWIDTH 17 0
BBX 14 24 2 0
BITMAP
1860
0CC0
0780
0000
0000
FFF8
FFF8
0078
00F0
01E0
01C0
03C0
0780
07C0
07F0
0078
003C
001C
001C
001C
C03C
E078
7FF0
1FC0
ENDCHAR
STARTCHAR 01EF
ENCODING 495
SWIDTH 576 0
DWIDTH 15 0
BBX 12 26 1 -5
BITMAP
6180
3300
1200
1E00
0C00
0000
0000
FFE0
FFE0
01E0
03C0
0780
0F00
1E00
1C00
1F00
1FC0
01E0
00F0
0070
0070
0070
00F0
81E0
FFC0
3F00
ENDCHAR
STARTCHAR 01F0
ENCODING 496
SWIDTH 269 0
DWIDTH 7 0
BBX 8 26 -1 -5
BITMAP
63
63
36
1C
1C
00
00
1C
1C
1C
1C
1C
1C
1C
1C
1C
1C
1C
1C
1C
1C
1C
1C
3C
F8
F0
ENDCHAR
STARTCHAR 01F1
ENCODING 497
SWIDTH 1423 0
DWIDTH 37 0
BBX 33 19 2 0
BITMAP
FFC03FFF80
FFF03FFF80
E07C000780
E01C000F00
E00E001E00
E00E001C00
E007003C00
E007007800
E00700F000
E00700E000
E00701E000
E00703C000
E007078000
E00E070000
E00E0F0000
E01C1E0000
E07C3C0000
FFF03FFF80
FFC03FFF80
ENDCHAR
STARTCHAR 01F2
ENCODING 498
SWIDTH 1307 0
DWIDTH 34 0
BBX 29 19 2 0
BITMAP
FFC00000
FFF00000
E07C0000
E01C0000
E00E0000
E00E3FF8
E0073FF8
E0070078
E00700F0
E00701E0
E00701E0
E00703C0
E0070780
E00E0700
E00E0F00
E01C1E00
E07C3C00
FFF03FF8
FFC03FF8
ENDCHAR
STARTCHAR 01F3
ENCODING 499
SWIDTH 1153 0
DWIDTH 30 0
BBX 26 20 1 0
BITMAP
00380000
00380000
00380000
00380000
00380000
00380000
1F39FFC0
3FB9FFC0
78F803C0
70780780
E0380F00
E0380F00
E0381E00
E0383C00
E0383800
E0387800
7078F000
78F9E000
3FB9FFC0
1F39FFC0
ENDCHAR
STARTCHAR 01F4
ENCODING 500
SWIDTH 769 0
DWIDTH 20 0
BBX 17 24 1 0
BITMAP
003000
006000
00C000
000000
000000
03F800
0FFE00
1E0F00
380300
700100
700000
E00000
E00000
E00000
E03F80
E03F80
E00380
E00380
700380
700380
380380
1E0780
0FFF00
03FC00
ENDCHAR
STARTCHAR 01F5
ENCODING 501
SWIDTH 653 0
DWIDTH 17 0
BBX 13 26 1 -5
BITMAP
01C0
0380
0300
0600
0C00
0000
0000
1F38
3FB8
78F8
7078
E038
E038
E038
E038
E038
E038
7078
78F8
3FB8
1F38
0038
0070
20F0
3FE0
1FC0
ENDCHAR
STARTCHAR 01F6
ENCODING 502
SWIDTH 1115 0
DWIDTH 29 0
BBX 24 19 2 0
BITMAP
E01C00
E01C00
E01C00
E01C00
E01C00
E01C07
E01C07
E01C07
FFFC07
FFFC07
E01C07
E01C07
E01C07
E01C07
E01C07
E01C07
E00E0E
E00FFE
E003F8
ENDCHAR
STARTCHAR 01F7
ENCODING 503
SWIDTH 653 0
DWIDTH 17 0
BBX 14 24 2 -5
BITMAP
E3F0
EFF8
FC38
F81C
F01C
E01C
E01C
E03C
E038
E070
E0F0
E1E0
E3C0
E700
FE00
FC00
F000
E000
E000
E000
E000
E000
E000
E000
ENDCHAR
STARTCHAR 01F8
ENCODING 504
SWIDTH 730 0
DWIDTH 19 0
BBX 14 24 2 0
BITMAP
0700
0380
0180
0000
0000
F01C
F81C
F81C
FC1C
FC1C
FE1C
EE1C
EF1C
E71C
E79C
E39C
E3DC
E1DC
E1FC
E0FC
E0FC
E07C
E07C
E03C
ENDCHAR
STARTCHAR 01F9
ENCODING 505
SWIDTH 615 0
DWIDTH 16 0
BBX 12 21 2 0
BITMAP
0E00
0700
0300
0180
00C0
0000
0000
E7C0
EFE0
F8E0
F070
E070
E070
E070
E070
E070
E070
E070
E070
E070
E070
ENDCHAR
STARTCHAR 01FA
ENCODING 506
SWIDTH 692 0
DWIDTH 18 0
BBX 17 24 0 0
BITMAP
01C180
03E300
063600
063000
063000
03E000
01C000
03E000
03E000
03E000
077000
077000
0F7800
0E3800
0E3800
1E3C00
1C1C00
1FFC00
3FFE00
380E00
780F00
700700
700700
E00380
ENDCHAR
STARTCHAR 01FB
ENCODING 507
SWIDTH 615 0
DWIDTH 16 0
BBX 14 24 1 0
BITMAP
000C
0718
0FB0
18C0
18C0
18C0
0F80
0700
0000
0000
1F80
7FC0
40E0
0070
0070
1FF0
7FF0
F070
E070
E070
E0F0
F1F0
7F70
3E70
ENDCHAR
STARTCHAR 01FC
ENCODING 508
SWIDTH 961 0
DWIDTH 25 0
BBX 23 24 0 0
BITMAP
000180
000300
000600
000000
000000
01FFFE
01FFFE
01DC00
03DC00
039C00
079C00
071C00
071C00
0F1FFC
0E1FFC
1E1C00
1C1C00
1FFC00
3FFC00
381C00
781C00
701C00
701FFE
E01FFE
ENDCHAR
STARTCHAR 01FD
ENCODING 509
SWIDTH 1000 0
DWIDTH 26 0
BBX 22 21 1 0
BITMAP
000E00
001C00
001800
003000
006000
000000
000000
1F87E0
7FDFF0
40FC78
007838
00701C
1FF01C
7FFFFC
F07FFC
E07000
E07000
E0F800
F1DC08
7F9FF8
3E07F0
ENDCHAR
STARTCHAR 01FE
ENCODING 510
SWIDTH 769 0
DWIDTH 20 0
BBX 18 24 1 -1
BITMAP
006000
00C000
018000
000000
000000
03F0C0
0FFD80
1E1F00
380700
700F80
701F80
E039C0
E031C0
E061C0
E0C1C0
E181C0
E301C0
E701C0
7E0380
7C0380
380700
3E1F00
6FFC00
C3F000
ENDCHAR
STARTCHAR 01FF
ENCODING 511
SWIDTH 615 0
DWIDTH 16 0
BBX 13 22 1 -1
BITMAP
01C0
0380
0300
0600
0C00
0000
0008
1F98
3FF0
78E0
70F0
E0B8
E1B8
E338
E638
EC38
E838
7870
38F0
7FE0
CFC0
8000
ENDCHAR
STARTCHAR 0200
ENCODING 512
SWIDTH 692 0
DWIDTH 18 0
BBX 17 24 0 1
BITMAP
066000
033000
031800
000000
000000
01C000
01C000
03E000
03E000
07F000
077000
077000
0F3800
0E3800
0E3800
1C1C00
1C1C00
3FFE00
3FFE00
380E00
780F00
700700
700700
E00380
ENDCHAR
STARTCHAR 0201
ENCODING 513
SWIDTH 615 0
DWIDTH 16 0
BBX 12 21 1 0
BITMAP
3380
1980
0CC0
0CC0
0660
0000
0000
1F80
7FC0
40E0
0070
0070
1FF0
7FF0
F070
E070
E070
E0F0
F1F0
7F70
3E70
ENDCHAR
STARTCHAR 0202
ENCODING 514
SWIDTH 692 0
DWIDTH 18 0
BBX 17 23 0 1
BITMAP
03E000
063000
041000
000000
01C000
01C000
03E000
03E000
07F000
077000
077000
0F3800
0E3800
0E3800
1C1C00
1C1C00
3FFE00
3FFE00
380E00
780F00
700700
700700
E00380
ENDCHAR
STARTCHAR 0203
ENCODING 515
SWIDTH 615 0
DWIDTH 16 0
BBX 12 21 1 0
BITMAP
0F00
1F80
39C0
30C0
0000
0000
0000
1F80
7FC0
40E0
0070
0070
1FF0
7FF0
F070
E070
E070
E0F0
F1F0
7F70
3E70
ENDCHAR
STARTCHAR 0204
ENCODING 516
SWIDTH 615 0
DWIDTH 16 0
BBX 12 24 2 1
BITMAP
3300
1980
18C0
0000
0000
FFF0
FFF0
E000
E000
E000
E000
E000
E000
FFE0
FFE0
E000
E000
E000
E000
E000
E000
E000
FFF0
FFF0
ENDCHAR
STARTCHAR 0205
ENCODING 517
SWIDTH 615 0
DWIDTH 16 0
BBX 13 21 1 0
BITMAP
3380
1980
0CC0
0CC0
0660
0000
0000
0FC0
3FE0
78F0
7070
E038
E038
FFF8
FFF8
E000
E000
7000
7810
3FF0
0FE0
ENDCHAR
STARTCHAR 0206
ENCODING 518
SWIDTH 615 0
DWIDTH 16 0
BBX 12 23 2 1
BITMAP
0F80
18C0
1040
0000
FFF0
FFF0
E000
E000
E000
E000
E000
E000
FFE0
FFE0
E000
E000
E000
E000
E000
E000
E000
FFF0
FFF0
ENDCHAR
STARTCHAR 0207
ENCODING 519
SWIDTH 615 0
DWIDTH 16 0
BBX 13 21 1 0
BITMAP
0780
0FC0
1CE0
1860
0000
0000
0000
0FC0
3FE0
78F0
7070
E038
E038
FFF8
FFF8
E000
E000
7000
7810
3FF0
0FE0
ENDCHAR
STARTCHAR 0208
ENCODING 520
SWIDTH 307 0
DWIDTH 8 0
BBX 8 24 0 1
BITMAP
CC
66
63
00
00
38
38
38
38
38
38
38
38
38
38
38
38
38
38
38
38
38
38
38
ENDCHAR
STARTCHAR 0209
ENCODING 521
SWIDTH 269 0
DWIDTH 7 0
BBX 9 21 -1 0
BITMAP
CE00
6600
3300
3300
1980
0000
0000
1C00
1C00
1C00
1C00
1C00
1C00
1C00
1C00
1C00
1C00
1C00
1C00
1C00
1C00
ENDCHAR
STARTCHAR 020A
ENCODING 522
SWIDTH 307 0
DWIDTH 8 0
BBX 7 23 1 1
BITMAP
7C
C6
82
00
70
70
70
70
70
70
70
70
70
70
70
70
70
70
70
70
70
70
70
ENDCHAR
STARTCHAR 020B
ENCODING 523
SWIDTH 269 0
DWIDTH 7 0
BBX 8 21 -1 0
BITMAP
3C
7E
E7
C3
00
00
00
1C
1C
1C
1C
1C
1C
1C
1C
1C
1C
1C
1C
1C
1C
ENDCHAR
STARTCHAR 020C
ENCODING 524
SWIDTH 769 0
DWIDTH 20 0
BBX 18 24 1 1
BITMAP
066000
033000
031800
000000
000000
03F000
0FFC00
1E1E00
380700
700380
700380
E001C0
E001C0
E001C0
E001C0
E001C0
E001C0
E001C0
700380
700380
380700
1E1E00
0FFC00
03F000
ENDCHAR
STARTCHAR 020D
ENCODING 525
SWIDTH 615 0
DWIDTH 16 0
BBX 13 21 1 0
BITMAP
3380
1980
0CC0
0CC0
0660
0000
0000
0F80
3FE0
78F0
7070
E038
E038
E038
E038
E038
E038
7070
78F0
3FE0
0F80
ENDCHAR
STARTCHAR 020E
ENCODING 526
SWIDTH 769 0
DWIDTH 20 0
BBX 18 23 1 1
BITMAP
01F000
031800
020800
000000
03F000
0FFC00
1E1E00
380700
700380
700380
E001C0
E001C0
E001C0
E001C0
E001C0
E001C0
E001C0
700380
700380
380700
1E1E00
0FFC00
03F000
ENDCHAR
STARTCHAR 020F
ENCODING 527
SWIDTH 615 0
DWIDTH 16 0
BBX 13 21 1 0
BITMAP
0780
0FC0
1CE0
1860
0000
0000
0000
0F80
3FE0
78F0
7070
E038
E038
E038
E038
E038
E038
7070
78F0
3FE0
0F80
ENDCHAR
STARTCHAR 0210
ENCODING 528
SWIDTH 692 0
DWIDTH 18 0
BBX 15 24 2 1
BITMAP
3300
1980
18C0
0000
0000
FF80
FFE0
E0E0
E070
E070
E070
E070
E070
E0E0
FFC0
FF80
E1C0
E0E0
E0F0
E070
E078
E038
E01C
E01E
ENDCHAR
STARTCHAR 0211
ENCODING 529
SWIDTH 423 0
DWIDTH 11 0
BBX 9 21 1 0
BITMAP
CE00
6600
3300
3300
1980
0000
0000
7380
7780
7C00
7800
7000
7000
7000
7000
7000
7000
7000
7000
7000
7000
ENDCHAR
STARTCHAR 0212
ENCODING 530
SWIDTH 692 0
DWIDTH 18 0
BBX 15 23 2 1
BITMAP
0F80
18C0
1040
0000
FF80
FFE0
E0E0
E070
E070
E070
E070
E070
E0E0
FFC0
FF80
E1C0
E0E0
E0F0
E070
E078
E038
E01C
E01E
ENDCHAR
STARTCHAR 0213
ENCODING 531
SWIDTH 423 0
DWIDTH 11 0
BBX 9 21 2 0
BITMAP
1E00
3F00
7380
6180
0000
0000
0000
E700
EF00
F800
F000
E000
E000
E000
E000
E000
E000
E000
E000
E000
E000
ENDCHAR
STARTCHAR 0214
ENCODING 532
SWIDTH 730 0
DWIDTH 19 0
BBX 14 24 3 1
BITMAP
1980
0CC0
0C60
0000
0000
E01C
E01C
E01C
E01C
E01C
E01C
E01C
E01C
E01C
E01C
E01C
E01C
E01C
E01C
E01C
7038
7878
3FF0
0FC0
ENDCHAR
STARTCHAR 0215
ENCODING 533
SWIDTH 615 0
DWIDTH 16 0
BBX 12 21 2 0
BITMAP
3380
1980
0CC0
0CC0
0660
0000
0000
E070
E070
E070
E070
E070
E070
E070
E070
E070
E070
E0F0
71F0
7F70
3E70
ENDCHAR
STARTCHAR 0216
ENCODING 534
SWIDTH 730 0
DWIDTH 19 0
BBX 14 23 3 1
BITMAP
0F80
18C0
1040
0000
E01C
E01C
E01C
E01C
E01C
E01C
E01C
E01C
E01C
E01C
E01C
E01C
E01C
E01C
E01C
7038
7878
3FF0
0FC0
ENDCHAR
STARTCHAR 0217
ENCODING 535
SWIDTH 615 0
DWIDTH 16 0
BBX 12 21 2 0
BITMAP
0F00
1F80
39C0
30C0
0000
0000
0000
E070
E070
E070
E070
E070
E070
E070
E070
E070
E070
E0F0
71F0
7F70
3E70
ENDCHAR
STARTCHAR 0218
ENCODING 536
SWIDTH 653 0
DWIDTH 17 0
BBX 13 25 2 -6
BITMAP
1FC0
3FF0
7870
E010
E000
E000
F000
FE00
7FC0
1FF0
03F0
0078
0038
0038
0038
8038
E0F0
FFE0
3F80
0000
0000
0700
0700
0600
0600
ENDCHAR
STARTCHAR 0219
ENCODING 537
SWIDTH 538 0
DWIDTH 14 0
BBX 11 20 1 -6
BITMAP
3F80
7FC0
F040
E000
E000
F400
7F80
1FC0
01E0
00E0
00E0
81E0
FFC0
3F00
0000
0000
0700
0700
0600
0600
ENDCHAR
STARTCHAR 021A
ENCODING 538
SWIDTH 615 0
DWIDTH 16 0
BBX 17 25 0 -6
BITMAP
FFFF80
FFFF80
01C000
01C000
01C000
01C000
01C000
01C000
01C000
01C000
01C000
01C000
01C000
01C000
01C000
01C000
01C000
01C000
01C000
000000
000000
038000
038000
030000
030000
ENDCHAR
STARTCHAR 021B
ENCODING 539
SWIDTH 384 0
DWIDTH 10 0
BBX 10 24 0 -6
BITMAP
3800
3800
3800
3800
FFC0
FFC0
3800
3800
3800
3800
3800
3800
3800
3800
3800
3800
1FC0
0FC0
0000
0000
0700
0700
0600
0600
ENDCHAR
STARTCHAR 021C
ENCODING 540
SWIDTH 615 0
DWIDTH 16 0
BBX 12 24 2 -5
BITMAP
1FC0
7FE0
60F0
4070
0070
0070
0070
0060
00E0
03C0
0F80
3FE0
3870
0030
0030
0030
0030
0070
00E0
01C0
0780
1F00
FC00
E000
ENDCHAR
STARTCHAR 021D
ENCODING 541
SWIDTH 538 0
DWIDTH 14 0
BBX 11 20 1 -6
BITMAP
0400
3F80
F1C0
80E0
00E0
00E0
00C0
01C0
0300
1F80
39C0
00E0
0060
0060
00E0
01C0
0380
0F00
7C00
F000
ENDCHAR
STARTCHAR 021E
ENCODING 542
SWIDTH 769 0
DWIDTH 20 0
BBX 14 24 2 0
BITMAP
0C30
0660
03C0
0000
0000
E01C
E01C
E01C
E01C
E01C
E01C
E01C
E01C
FFFC
FFFC
E01C
E01C
E01C
E01C
E01C
E01C
E01C
E01C
E01C
ENDCHAR
STARTCHAR 021F
ENCODING 543
SWIDTH 615 0
DWIDTH 16 0
BBX 15 24 -1 0
BITMAP
E300
3600
1C00
0000
1C00
1C00
1C00
1C00
1C00
1C00
1CF8
1DFC
1F1C
1E0E
1C0E
1C0E
1C0E
1C0E
1C0E
1C0E
1C0E
1C0E
1C0E
1C0E
ENDCHAR
STARTCHAR 0220
ENCODING 544
SWIDTH 730 0
DWIDTH 19 0
BBX 14 24 3 -4
BITMAP
E3E0
EFF0
FC78
F038
F01C
E01C
E01C
E01C
E01C
E01C
E01C
E01C
E01C
E01C
E01C
E01C
E01C
E01C
E01C
001C
001C
001C
001C
001C
ENDCHAR
STARTCHAR 0221
ENCODING 545
SWIDTH 846 0
DWIDTH 22 0
BBX 19 22 1 -2
BITMAP
001800
001800
001800
001800
001800
021800
1FD800
3DF800
707800
703800
603800
601800
E01800
E01800
601BE0
603FE0
703E60
707E60
3FDFE0
1F9FC0
001800
003800
ENDCHAR
STARTCHAR 0222
ENCODING 546
SWIDTH 615 0
DWIDTH 16 0
BBX 14 19 1 0
BITMAP
01C0
0070
3C38
701C
E01C
E01C
E01C
7078
1FE0
1FE0
7878
E01C
E01C
E01C
E01C
F87C
7FF8
3FF0
0FC0
ENDCHAR
STARTCHAR 0223
ENCODING 547
SWIDTH 538 0
DWIDTH 14 0
BBX 12 16 1 0
BITMAP
6070
E070
E070
E070
70E0
3FC0
3FC0
70F0
E070
E070
E070
E070
E070
70E0
7FE0
1F80
ENDCHAR
STARTCHAR 0224
ENCODING 548
SWIDTH 692 0
DWIDTH 18 0
BBX 15 24 1 -5
BITMAP
FFFE
FFFE
001E
003C
0078
0070
00F0
01E0
03C0
0380
0780
0F00
1E00
1C00
3C00
7800
F000
FFFE
FFFE
000E
000E
000E
00FC
00F8
ENDCHAR
STARTCHAR 0225
ENCODING 549
SWIDTH 538 0
DWIDTH 14 0
BBX 11 19 1 -5
BITMAP
FFE0
FFE0
01E0
03C0
0780
0780
0F00
1E00
1C00
3C00
7800
F000
FFE0
FFE0
00E0
00E0
00E0
0FC0
0F80
ENDCHAR
STARTCHAR 0226
ENCODING 550
SWIDTH 692 0
DWIDTH 18 0
BBX 17 24 0 0
BITMAP
01C000
01C000
01C000
000000
000000
01C000
01C000
03E000
03E000
07F000
077000
077000
0F3800
0E3800
0E3800
1C1C00
1C1C00
3FFE00
3FFE00
380E00
780F00
700700
700700
E00380
ENDCHAR
STARTCHAR 0227
ENCODING 551
SWIDTH 615 0
DWIDTH 16 0
BBX 12 20 1 0
BITMAP
0700
0700
0700
0000
0000
0000
1F80
7FC0
40E0
0070
0070
1FF0
7FF0
F070
E070
E070
E0F0
F1F0
7F70
3E70
ENDCHAR
STARTCHAR 0228
ENCODING 552
SWIDTH 615 0
DWIDTH 16 0
BBX 12 24 2 -5
BITMAP
FFF0
FFF0
E000
E000
E000
E000
E000
E000
FFE0
FFE0
E000
E000
E000
E000
E000
E000
E000
FFF0
FFF0
0300
0180
0180
0F80
0F00
ENDCHAR
STARTCHAR 0229
ENCODING 553
SWIDTH 615 0
DWIDTH 16 0
BBX 13 19 1 -5
BITMAP
0FC0
3FE0
78F0
7070
E038
E038
FFF8
FFF8
E000
E000
7000
7810
3FF0
0FE0
0180
00C0
00C0
07C0
0780
ENDCHAR
STARTCHAR 022A
ENCODING 554
SWIDTH 769 0
DWIDTH 20 0
BBX 18 26 1 0
BITMAP
07F800
07F800
000000
073800
073800
073800
000000
03F000
0FFC00
1E1E00
380700
700380
700380
E001C0
E001C0
E001C0
E001C0
E001C0
E001C0
E001C0
700380
700380
380700
1E1E00
0FFC00
03F000
ENDCHAR
STARTCHAR 022B
ENCODING 555
SWIDTH 615 0
DWIDTH 16 0
BBX 13 23 1 0
BITMAP
1FE0
1FE0
0000
38E0
38E0
38E0
0000
0000
0000
0F80
3FE0
78F0
7070
E038
E038
E038
E038
E038
E038
7070
78F0
3FE0
0F80
ENDCHAR
STARTCHAR 022C
ENCODING 556
SWIDTH 769 0
DWIDTH 20 0
BBX 18 26 1 0
BITMAP
07F800
07F800
000000
073000
0FF000
0CE000
000000
03F000
0FFC00
1E1E00
380700
700380
700380
E001C0
E001C0
E001C0
E001C0
E001C0
E001C0
E001C0
700380
700380
380700
1E1E00
0FFC00
03F000
ENDCHAR
STARTCHAR 022D
ENCODING 557
SWIDTH 615 0
DWIDTH 16 0
BBX 13 22 1 0
BITMAP
1FE0
1FE0
0000
1CC0
3FC0
3380
0000
0000
0F80
3FE0
78F0
7070
E038
E038
E038
E038
E038
E038
7070
78F0
3FE0
0F80
ENDCHAR
STARTCHAR 022E
ENCODING 558
SWIDTH 769 0
DWIDTH 20 0
BBX 18 24 1 0
BITMAP
00E000
00E000
00E000
000000
000000
03F000
0FFC00
1E1E00
380700
700380
700380
E001C0
E001C0
E001C0
E001C0
E001C0
E001C0
E001C0
700380
700380
380700
1E1E00
0FFC00
03F000
ENDCHAR
STARTCHAR 022F
ENCODING 559
SWIDTH 615 0
DWIDTH 16 0
BBX 13 20 1 0
BITMAP
0700
0700
0700
0000
0000
0000
0F80
3FE0
78F0
7070
E038
E038
E038
E038
E038
E038
7070
78F0
3FE0
0F80
ENDCHAR
STARTCHAR 0230
ENCODING 560
SWIDTH 769 0
DWIDTH 20 0
BBX 18 26 1 0
BITMAP
07F800
07F800
000000
01C000
01C000
01C000
000000
03F000
0FFC00
1E1E00
380700
700380
700380
E001C0
E001C0
E001C0
E001C0
E001C0
E001C0
E001C0
700380
700380
380700
1E1E00
0FFC00
03F000
ENDCHAR
STARTCHAR 0231
ENCODING 561
SWIDTH 615 0
DWIDTH 16 0
BBX 13 23 1 0
BITMAP
1FE0
1FE0
0000
0700
0700
0700
0000
0000
0000
0F80
3FE0
78F0
7070
E038
E038
E038
E038
E038
E038
7070
78F0
3FE0
0F80
ENDCHAR
STARTCHAR 0232
ENCODING 562
SWIDTH 615 0
DWIDTH 16 0
BBX 17 23 0 0
BITMAP
0FF000
0FF000
000000
000000
F00780
780F00
380E00
3C1E00
1E3C00
0F7800
077000
07F000
03E000
01C000
01C000
01C000
01C000
01C000
01C000
01C000
01C000
01C000
01C000
ENDCHAR
STARTCHAR 0233
ENCODING 563
SWIDTH 576 0
DWIDTH 15 0
BBX 14 24 1 -5
BITMAP
1FE0
1FE0
0000
0000
0000
E03C
7038
7038
7878
3870
3CF0
1CE0
1DE0
0FC0
0FC0
0F80
0780
0780
0700
0F00
0E00
1E00
7C00
7800
ENDCHAR
STARTCHAR 0234
ENCODING 564
SWIDTH 461 0
DWIDTH 12 0
BBX 9 22 2 -2
BITMAP
E000
E000
E000
E000
E000
E000
E000
E000
E000
E000
E000
E000
E000
E000
EF00
FF80
F980
F380
7F00
7F00
E000
C000
ENDCHAR
STARTCHAR 0235
ENCODING 565
SWIDTH 846 0
DWIDTH 22 0
BBX 18 17 2 -2
BITMAP
010000
EFE000
FFE000
F07000
E03000
E03000
E03000
E03000
E03000
E037C0
E037C0
E03EC0
E03CC0
E03FC0
E03F80
003000
007000
ENDCHAR
STARTCHAR 0236
ENCODING 566
SWIDTH 461 0
DWIDTH 12 0
BBX 10 20 1 -1
BITMAP
7000
7000
7000
7000
FF80
FF80
7000
7000
7000
7000
7000
7000
7780
7FC0
7CC0
79C0
3FC0
3F80
7000
6000
ENDCHAR
STARTCHAR 0237
ENCODING 567
SWIDTH 269 0
DWIDTH 7 0
BBX 6 19 -1 -5
BITMAP
1C
1C
1C
1C
1C
1C
1C
1C
1C
1C
1C
1C
1C
1C
1C
1C
3C
F8
F0
ENDCHAR
STARTCHAR 0238
ENCODING 568
SWIDTH 961 0
DWIDTH 25 0
BBX 23 20 1 0
BITMAP
003800
003800
003800
003800
003800
003800
1F39F0
3FBBF8
78FE3C
707C1C
E0380E
E0380E
E0380E
E0380E
E0380E
E0380E
707C1C
78FE3C
3FFFF8
1F39F0
ENDCHAR
STARTCHAR 0239
ENCODING 569
SWIDTH 961 0
DWIDTH 25 0
BBX 23 19 1 -5
BITMAP
1F39F0
3FBBF8
78FE3C
707C1C
E0380E
E0380E
E0380E
E0380E
E0380E
E0380E
707C1C
78FE3C
3FBBF8
1F39F0
003800
003800
003800
003800
003800
ENDCHAR
STARTCHAR 023A
ENCODING 570
SWIDTH 692 0
DWIDTH 18 0
BBX 18 21 0 -1
BITMAP
000080
01E1C0
01E180
03E300
03F600
033C00
073800
063800
067800
0E7C00
0CDC00
1D8C00
1F0E00
1FFE00
3FFE00
3C0700
380300
700380
600380
E00180
400000
ENDCHAR
STARTCHAR 023B
ENCODING 571
SWIDTH 692 0
DWIDTH 18 0
BBX 18 21 0 -1
BITMAP
000080
01FEC0
07FF80
0F0380
1C0680
380E00
381C00
381800
303000
706000
70C000
718000
338000
3F0000
3E0000
3C0000
1C0080
3E0380
67FF80
E3FE00
400000
ENDCHAR
STARTCHAR 023C
ENCODING 572
SWIDTH 538 0
DWIDTH 14 0
BBX 14 16 0 -1
BITMAP
008C
0FF8
1F78
1C30
3860
30C0
7180
7380
7300
3600
3C00
3800
3C08
7FF8
67F8
C000
ENDCHAR
STARTCHAR 023D
ENCODING 573
SWIDTH 538 0
DWIDTH 14 0
BBX 14 19 0 0
BITMAP
3800
3800
3800
3800
3800
3800
3800
3800
FE00
FE00
3800
3800
3800
3800
3800
3800
3800
3FFC
3FFC
ENDCHAR
STARTCHAR 023E
ENCODING 574
SWIDTH 615 0
DWIDTH 16 0
BBX 18 21 -1 -1
BITMAP
000080
7FFFC0
7FFF80
00C300
00C600
00CC00
00DC00
00F800
00F000
00E000
00C000
01C000
03C000
07C000
0EC000
0CC000
18C000
30C000
60C000
E0C000
400000
ENDCHAR
STARTCHAR 023F
ENCODING 575
SWIDTH 538 0
DWIDTH 14 0
BBX 12 21 1 -7
BITMAP
0600
3FE0
79E0
6000
6000
6000
7800
3F80
0FC0
00E0
0060
0060
80E0
FFC0
FF80
0E00
0700
0380
01C0
00F0
0070
ENDCHAR
STARTCHAR 0240
ENCODING 576
SWIDTH 538 0
DWIDTH 14 0
BBX 13 20 1 -6
BITMAP
FFF0
FFF0
00E0
01C0
0380
0300
0700
0E00
1C00
3800
7000
E000
F000
F800
1C00
0E00
0700
0380
01F8
00F8
ENDCHAR
STARTCHAR 0241
ENCODING 577
SWIDTH 615 0
DWIDTH 16 0
BBX 14 19 1 0
BITMAP
7FE0
FFF0
8078
003C
001C
001C
001C
001C
0038
0FF0
0FE0
0E00
0E00
0E00
0E00
0E00
0E00
0E00
0E00
ENDCHAR
STARTCHAR 0242
ENCODING 578
SWIDTH 461 0
DWIDTH 12 0
BBX 11 14 1 0
BITMAP
7F00
FF80
81C0
00E0
00E0
00E0
00E0
01E0
03C0
1FC0
1F00
1C00
1C00
1C00
ENDCHAR
STARTCHAR 0243
ENCODING 579
SWIDTH 692 0
DWIDTH 18 0
BBX 15 19 0 0
BITMAP
3FE0
3FF8
3838
381C
381C
381C
381C
3838
3FF0
3FF0
381C
380C
FF8E
FF8E
380E
380E
381C
3FF8
3FF0
ENDCHAR
STARTCHAR 0244
ENCODING 580
SWIDTH 730 0
DWIDTH 19 0
BBX 18 19 1 0
BITMAP
380700
380700
380700
380700
380700
380700
380700
380700
FFFFC0
FFFFC0
380700
380700
380700
380700
380700
1C0E00
1E1E00
0FFC00
03F000
ENDCHAR
STARTCHAR 0245
ENCODING 581
SWIDTH 692 0
DWIDTH 18 0
BBX 17 19 0 0
BITMAP
01C000
01C000
03E000
03E000
07F000
077000
077000
0F3800
0E3800
0E3800
1C1C00
1C1C00
3C1E00
380E00
380E00
780F00
700700
700700
E00380
ENDCHAR
STARTCHAR 0246
ENCODING 582
SWIDTH 615 0
DWIDTH 16 0
BBX 12 23 3 -2
BITMAP
0060
00E0
FFF0
FFF0
C1C0
C180
C180
C380
C300
C300
FFE0
FFE0
C600
CE00
CC00
CC00
DC00
D800
D800
FFF0
FFF0
3000
6000
ENDCHAR
STARTCHAR 0247
ENCODING 583
SWIDTH 615 0
DWIDTH 16 0
BBX 14 19 1 -3
BITMAP
0030
0060
0160
1FE0
3EF0
30F8
7198
6198
631C
FFFC
E700
6600
6600
7C00
3C08
1FF8
1FF0
1800
3000
ENDCHAR
STARTCHAR 0248
ENCODING 584
SWIDTH 307 0
DWIDTH 8 0
BBX 9 24 -2 -5
BITMAP
0E00
0E00
0E00
0E00
0E00
0E00
0E00
0E00
0E00
3F80
3F80
0E00
0E00
0E00
0E00
0E00
0E00
0E00
0E00
0E00
0E00
1C00
FC00
F000
ENDCHAR
STARTCHAR 0249
ENCODING 585
SWIDTH 269 0
DWIDTH 7 0
BBX 8 25 -1 -5
BITMAP
1C
1C
1C
00
00
00
1C
1C
1C
1C
1C
1C
7F
7F
1C
1C
1C
1C
1C
1C
1C
1C
3C
F8
F0
ENDCHAR
STARTCHAR 024A
ENCODING 586
SWIDTH 769 0
DWIDTH 20 0
BBX 20 24 1 -5
BITMAP
07C700
1FF700
3C3F00
781F00
700F00
700F00
E00700
E00700
E00700
E00700
E00700
E00700
E00700
700F00
700F00
781F00
3C3F00
1FF700
07C700
000700
000780
0003F0
0003F0
0000F0
ENDCHAR
STARTCHAR 024B
ENCODING 587
SWIDTH 653 0
DWIDTH 17 0
BBX 16 19 1 -5
BITMAP
1F38
3FB8
78F8
7078
E038
E038
E038
E038
E038
E038
7078
78F8
3FB8
1F38
0038
0038
003C
001F
000F
ENDCHAR
STARTCHAR 024C
ENCODING 588
SWIDTH 692 0
DWIDTH 18 0
BBX 17 19 0 0
BITMAP
3FE000
3FF800
383800
381C00
381C00
381C00
381C00
381C00
383800
FFF000
FFE000
387000
383800
383C00
381C00
381E00
380E00
380700
380780
ENDCHAR
STARTCHAR 024D
ENCODING 589
SWIDTH 423 0
DWIDTH 11 0
BBX 10 14 0 0
BITMAP
39C0
3BC0
3E00
3C00
3800
3800
FE00
FE00
3800
3800
3800
3800
3800
3800
ENDCHAR
STARTCHAR 024E
ENCODING 590
SWIDTH 615 0
DWIDTH 16 0
BBX 16 19 0 0
BITMAP
E007
700E
300C
FFFF
FFFF
0C70
0E70
07E0
03C0
03C0
0180
0180
0180
0180
0180
0180
0180
0180
0180
ENDCHAR
STARTCHAR 024F
ENCODING 591
SWIDTH 576 0
DWIDTH 15 0
BBX 15 19 0 -5
BITMAP
700C
701C
301C
3818
1838
1C30
FFFE
0C70
0E60
06E0
07C0
03C0
03C0
0380
0380
0300
0700
3E00
3E00
ENDCHAR
STARTCHAR 0250
ENCODING 592
SWIDTH 576 0
DWIDTH 15 0
BBX 12 14 2 0
BITMAP
E7C0
EFE0
F8F0
F070
E070
E070
E0F0
FFE0
FF80
E000
E000
7020
7FE0
1FC0
ENDCHAR
STARTCHAR 0251
ENCODING 593
SWIDTH 653 0
DWIDTH 17 0
BBX 13 14 1 0
BITMAP
1F38
3FB8
78F8
7078
E038
E038
E038
E038
E038
E038
7078
78F8
3FB8
1F38
ENDCHAR
STARTCHAR 0252
ENCODING 594
SWIDTH 653 0
DWIDTH 17 0
BBX 13 14 2 0
BITMAP
E7C0
EFE0
F8F0
F070
E038
E038
E038
E038
E038
E038
F070
F8F0
EFE0
E7C0
ENDCHAR
STARTCHAR 0253
ENCODING 595
SWIDTH 653 0
DWIDTH 17 0
BBX 13 20 2 0
BITMAP
3F00
7F00
F000
E000
E000
E000
E7C0
EFE0
F8F0
F070
E038
E038
E038
E038
E038
E038
F070
F8F0
EFE0
E7C0
ENDCHAR
STARTCHAR 0254
ENCODING 596
SWIDTH 538 0
DWIDTH 14 0
BBX 11 14 2 0
BITMAP
7E00
FF80
83C0
01C0
00E0
00E0
00E0
00E0
00E0
00E0
01C0
83C0
FF80
7E00
ENDCHAR
STARTCHAR 0255
ENCODING 597
SWIDTH 538 0
DWIDTH 14 0
BBX 11 16 1 -2
BITMAP
0FC0
3FE0
7820
7000
E000
E000
E000
E000
E3C0
FFE0
7CE0
78E0
3FE0
1FC0
1800
1800
ENDCHAR
STARTCHAR 0256
ENCODING 598
SWIDTH 653 0
DWIDTH 17 0
BBX 16 25 1 -5
BITMAP
0038
0038
0038
0038
0038
0038
1F38
3FB8
78F8
7078
E038
E038
E038
E038
E038
E038
7078
78F8
3FB8
1F38
0038
0038
003C
001F
000F
ENDCHAR
STARTCHAR 0257
ENCODING 599
SWIDTH 692 0
DWIDTH 18 0
BBX 17 20 1 0
BITMAP
000780
001F80
001C00
003800
003800
003800
1F3800
3FB800
78F800
707800
E03800
E03800
E03800
E03800
E03800
E03800
707800
78F800
3FB800
1F0000
ENDCHAR
STARTCHAR 0258
ENCODING 600
SWIDTH 615 0
DWIDTH 16 0
BBX 13 14 1 0
BITMAP
1F80
3FE0
78F0
7070
E038
E038
FFF8
FFF8
0038
0038
0070
40F0
7FE0
3F80
ENDCHAR
STARTCHAR 0259
ENCODING 601
SWIDTH 615 0
DWIDTH 16 0
BBX 13 14 1 0
BITMAP
3F80
7FE0
40F0
0070
0038
0038
FFF8
FFF8
E038
E038
7070
78F0
3FE0
1F80
ENDCHAR
STARTCHAR 025A
ENCODING 602
SWIDTH 807 0
DWIDTH 21 0
BBX 20 14 1 0
BITMAP
3F0000
FFC780
C0FF80
007F80
00FF80
03FBC0
07F9F0
1FB8F0
7E3800
F83800
F07000
70F000
3FE000
1F8000
ENDCHAR
STARTCHAR 025B
ENCODING 603
SWIDTH 500 0
DWIDTH 13 0
BBX 10 14 1 0
BITMAP
3F00
7FC0
F040
E000
F000
7E00
1E00
7000
E000
E000
E000
F040
7FC0
1F80
ENDCHAR
STARTCHAR 025C
ENCODING 604
SWIDTH 576 0
DWIDTH 15 0
BBX 11 14 2 0
BITMAP
3F00
FFC0
81E0
00E0
01E0
1FC0
1F00
01C0
00E0
00E0
00E0
81E0
FFC0
7F00
ENDCHAR
STARTCHAR 025D
ENCODING 605
SWIDTH 846 0
DWIDTH 22 0
BBX 20 14 2 0
BITMAP
3F8000
FFC780
81FF80
00F380
01E380
1F83C0
1F81F0
01C0F0
00E000
00E000
00E000
81E000
FFC000
7F0000
ENDCHAR
STARTCHAR 025E
ENCODING 606
SWIDTH 653 0
DWIDTH 17 0
BBX 14 14 1 0
BITMAP
07F0
3FF8
783C
701C
E03C
E3F0
E3F8
E03C
E01C
E01C
701C
783C
3FF8
0FE0
ENDCHAR
STARTCHAR 025F
ENCODING 607
SWIDTH 269 0
DWIDTH 7 0
BBX 8 19 -1 -5
BITMAP
1C
1C
1C
1C
1C
1C
7F
7F
1C
1C
1C
1C
1C
1C
1C
1C
3C
F8
F0
ENDCHAR
STARTCHAR 0260
ENCODING 608
SWIDTH 692 0
DWIDTH 18 0
BBX 17 25 1 -5
BITMAP
000F80
001F80
001C00
003800
003800
003800
1F3800
3FB800
78F800
707800
E03800
E03800
E03800
E03800
E03800
E03800
707800
78F800
3FB800
1F3800
003800
007000
20F000
3FE000
1FC000
ENDCHAR
STARTCHAR 0261
ENCODING 609
SWIDTH 653 0
DWIDTH 17 0
BBX 13 19 1 -5
BITMAP
1FF8
3FF8
7838
7038
E038
E038
E038
E038
E038
E038
7078
78F8
3FB8
1F38
0038
0070
20F0
3FE0
1FC0
ENDCHAR
STARTCHAR 0262
ENCODING 610
SWIDTH 615 0
DWIDTH 16 0
BBX 13 14 1 0
BITMAP
0FE0
3FF0
7810
7000
E000
E000
E0F8
E0F8
E038
E038
7038
7838
3FF8
0FF0
ENDCHAR
STARTCHAR 0263
ENCODING 611
SWIDTH 615 0
DWIDTH 16 0
BBX 14 19 1 -5
BITMAP
F03C
7038
7878
3CF0
3CF0
1FE0
0FC0
0FC0
0780
0780
0780
0FC0
0FC0
0CC0
1CE0
1CE0
1CE0
1FE0
0FC0
ENDCHAR
STARTCHAR 0264
ENCODING 612
SWIDTH 615 0
DWIDTH 16 0
BBX 14 14 1 0
BITMAP
F03C
7878
3CF0
1FE0
0FC0
0780
0780
0FC0
0FC0
1CE0
1CE0
1CE0
1FE0
0FC0
ENDCHAR
STARTCHAR 0265
ENCODING 613
SWIDTH 615 0
DWIDTH 16 0
BBX 12 19 2 -5
BITMAP
E070
E070
E070
E070
E070
E070
E070
E070
E070
E070
E0F0
71F0
7F70
3E70
0070
0070
0070
0070
0070
ENDCHAR
STARTCHAR 0266
ENCODING 614
SWIDTH 615 0
DWIDTH 16 0
BBX 12 20 2 0
BITMAP
3F00
7F00
F000
E000
E000
E000
E7C0
EFE0
F8E0
F070
E070
E070
E070
E070
E070
E070
E070
E070
E070
E070
ENDCHAR
STARTCHAR 0267
ENCODING 615
SWIDTH 615 0
DWIDTH 16 0
BBX 12 25 2 -6
BITMAP
3F00
7F00
F000
E000
E000
E000
E7C0
EFE0
F8E0
F070
E070
E070
E070
E070
E070
E070
E070
E070
E070
E070
0070
0070
0070
0FE0
0FE0
ENDCHAR
STARTCHAR 0268
ENCODING 616
SWIDTH 269 0
DWIDTH 7 0
BBX 7 20 0 0
BITMAP
38
38
38
00
00
00
38
38
38
38
38
38
FE
FE
38
38
38
38
38
38
ENDCHAR
STARTCHAR 0269
ENCODING 617
SWIDTH 346 0
DWIDTH 9 0
BBX 6 14 2 0
BITMAP
E0
E0
E0
E0
E0
E0
E0
E0
E0
E0
E0
F0
7C
3C
ENDCHAR
STARTCHAR 026A
ENCODING 618
SWIDTH 384 0
DWIDTH 10 0
BBX 9 14 1 0
BITMAP
FF80
FF80
1C00
1C00
1C00
1C00
1C00
1C00
1C00
1C00
1C00
1C00
FF80
FF80
ENDCHAR
STARTCHAR 026B
ENCODING 619
SWIDTH 423 0
DWIDTH 11 0
BBX 9 20 1 0
BITMAP
1C00
1C00
1C00
1C00
1C00
1C00
1C00
1C00
7D80
FD80
DF80
DF00
1C00
1C00
1C00
1C00
1C00
1C00
1C00
1C00
ENDCHAR
STARTCHAR 026C
ENCODING 620
SWIDTH 500 0
DWIDTH 13 0
BBX 10 20 1 0
BITMAP
0E00
0E00
0E00
0E00
0E00
0E00
7E00
FE00
DE00
CE00
FFC0
7FC0
0E00
0E00
0E00
0E00
0E00
0E00
0E00
0E00
ENDCHAR
STARTCHAR 026D
ENCODING 621
SWIDTH 307 0
DWIDTH 8 0
BBX 6 25 2 -5
BITMAP
E0
E0
E0
E0
E0
E0
E0
E0
E0
E0
E0
E0
E0
E0
E0
E0
E0
E0
E0
E0
E0
E0
F0
7C
3C
ENDCHAR
STARTCHAR 026E
ENCODING 622
SWIDTH 692 0
DWIDTH 18 0
BBX 15 25 2 -5
BITMAP
E000
E000
E000
E000
E000
E000
FFFC
FFFC
E03C
E078
E0F0
E1E0
E3C0
E380
E3E0
E3F8
E03C
E01E
E00E
E00E
000E
001E
103C
1FF8
07E0
ENDCHAR
STARTCHAR 026F
ENCODING 623
SWIDTH 961 0
DWIDTH 25 0
BBX 21 14 2 0
BITMAP
E07038
E07038
E07038
E07038
E07038
E07038
E07038
E07038
E07038
E07038
E0F078
71B8F8
7F3FB8
3E0F00
ENDCHAR
STARTCHAR 0270
ENCODING 624
SWIDTH 961 0
DWIDTH 25 0
BBX 21 19 2 -5
BITMAP
E07038
E07038
E07038
E07038
E07038
E07038
E07038
E07038
E07038
E07038
E0F078
71B8F8
7F3FB8
3E0F38
000038
000038
000038
000038
000038
ENDCHAR
STARTCHAR 0271
ENCODING 625
SWIDTH 961 0
DWIDTH 25 0
BBX 21 19 2 -5
BITMAP
E783E0
EFE7F0
F8EC70
F07838
E07038
E07038
E07038
E07038
E07038
E07038
E07038
E07038
E07038
E07038
000038
000038
000078
0007F0
0007E0
ENDCHAR
STARTCHAR 0272
ENCODING 626
SWIDTH 653 0
DWIDTH 17 0
BBX 15 19 -1 -5
BITMAP
1CF8
1DFC
1F1C
1E0E
1C0E
1C0E
1C0E
1C0E
1C0E
1C0E
1C0E
1C0E
1C0E
1C0E
1C00
1C00
3C00
F800
F000
ENDCHAR
STARTCHAR 0273
ENCODING 627
SWIDTH 653 0
DWIDTH 17 0
BBX 15 19 2 -5
BITMAP
E7C0
EFE0
F8E0
F070
E070
E070
E070
E070
E070
E070
E070
E070
E070
E070
0070
0070
0078
003E
001E
ENDCHAR
STARTCHAR 0274
ENCODING 628
SWIDTH 615 0
DWIDTH 16 0
BBX 12 14 2 0
BITMAP
F070
F870
F870
FC70
FC70
EE70
EF70
E770
E7F0
E3F0
E3F0
E1F0
E1F0
E0F0
ENDCHAR
STARTCHAR 0275
ENCODING 629
SWIDTH 615 0
DWIDTH 16 0
BBX 13 14 1 0
BITMAP
0F80
3FE0
78F0
7070
E038
FFF8
FFF8
E038
E038
E038
7070
78F0
3FE0
0F80
ENDCHAR
STARTCHAR 0276
ENCODING 630
SWIDTH 846 0
DWIDTH 22 0
BBX 19 14 1 0
BITMAP
07FFE0
1FFFE0
7C7000
707000
E07000
E07000
E07FE0
E07FE0
E07000
E07000
707000
7C7000
3FFFE0
07FFE0
ENDCHAR
STARTCHAR 0277
ENCODING 631
SWIDTH 653 0
DWIDTH 17 0
BBX 15 14 1 0
BITMAP
0FE0
1FF0
3838
701C
701C
E00E
E38E
E38E
E38E
E38E
E38E
76DC
7EFC
3C78
ENDCHAR
STARTCHAR 0278
ENCODING 632
SWIDTH 692 0
DWIDTH 18 0
BBX 15 25 1 -5
BITMAP
0380
0380
0380
0380
0380
0380
0FE0
3FF8
7BBC
739C
E38E
E38E
E38E
E38E
E38E
E38E
739C
7BBC
3FF8
0FE0
0380
0380
0380
0380
0380
ENDCHAR
STARTCHAR 0279
ENCODING 633
SWIDTH 423 0
DWIDTH 11 0
BBX 8 14 0 0
BITMAP
07
07
07
07
07
07
07
07
07
07
0F
1F
F7
E7
ENDCHAR
STARTCHAR 027A
ENCODING 634
SWIDTH 423 0
DWIDTH 11 0
BBX 8 20 0 0
BITMAP
07
07
07
07
07
07
07
07
07
07
07
07
07
07
07
07
0F
1F
F7
E7
ENDCHAR
STARTCHAR 027B
ENCODING 635
SWIDTH 423 0
DWIDTH 11 0
BBX 11 19 0 -5
BITMAP
0700
0700
0700
0700
0700
0700
0700
0700
0700
0700
0F00
1F00
F700
E700
0700
0700
0780
03E0
01E0
ENDCHAR
STARTCHAR 027C
ENCODING 636
SWIDTH 423 0
DWIDTH 11 0
BBX 8 19 2 -5
BITMAP
E7
EF
F8
F0
E0
E0
E0
E0
E0
E0
E0
E0
E0
E0
E0
E0
E0
E0
E0
ENDCHAR
STARTCHAR 027D
ENCODING 637
SWIDTH 423 0
DWIDTH 11 0
BBX 8 19 2 -4
BITMAP
E7
FF
F8
F0
E0
E0
E0
E0
E0
E0
E0
E0
E0
E0
E0
E0
F0
7F
3F
ENDCHAR
STARTCHAR 027E
ENCODING 638
SWIDTH 538 0
DWIDTH 14 0
BBX 10 14 2 0
BITMAP
0FC0
1FC0
3C00
3800
3800
3800
3800
3800
3800
3800
3800
3800
FC00
FC00
ENDCHAR
STARTCHAR 027F
ENCODING 639
SWIDTH 538 0
DWIDTH 14 0
BBX 10 14 2 0
BITMAP
FC00
FE00
0F00
0700
0700
0700
0700
0700
0700
0700
0700
0700
1FC0
1FC0
ENDCHAR
STARTCHAR 0280
ENCODING 640
SWIDTH 615 0
DWIDTH 16 0
BBX 12 14 2 0
BITMAP
FF00
FF80
E3C0
E1C0
E1C0
E3C0
FF80
FE00
E780
E380
E1C0
E1E0
E0E0
E0F0
ENDCHAR
STARTCHAR 0281
ENCODING 641
SWIDTH 615 0
DWIDTH 16 0
BBX 12 14 2 0
BITMAP
E070
E060
E0E0
E1C0
E1C0
E380
FE00
FF80
E3C0
E1C0
E1C0
E3C0
FF80
FF00
ENDCHAR
STARTCHAR 0282
ENCODING 642
SWIDTH 538 0
DWIDTH 14 0
BBX 11 19 1 -5
BITMAP
3F80
7FC0
F040
E000
E000
F000
7E00
1FC0
01E0
00E0
00E0
81E0
FFC0
FF00
E000
E000
F000
7F00
3F00
ENDCHAR
STARTCHAR 0283
ENCODING 643
SWIDTH 346 0
DWIDTH 9 0
BBX 10 25 -1 -5
BITMAP
07C0
0FC0
1E00
1C00
1C00
1C00
1C00
1C00
1C00
1C00
1C00
1C00
1C00
1C00
1C00
1C00
1C00
1C00
1C00
1C00
1C00
1C00
3C00
F800
F000
ENDCHAR
STARTCHAR 0284
ENCODING 644
SWIDTH 346 0
DWIDTH 9 0
BBX 10 25 -1 -5
BITMAP
07C0
0FC0
1E00
1C00
1C00
1C00
7C00
7C00
1C00
1C00
1C00
1C00
7E00
7E00
1C00
1C00
1C00
1C00
1C00
1C00
1C00
1C00
3C00
F800
F000
ENDCHAR
STARTCHAR 0285
ENCODING 645
SWIDTH 461 0
DWIDTH 12 0
BBX 10 19 1 -5
BITMAP
F800
FC00
0E00
0E00
0E00
0E00
0E00
0E00
0E00
0E00
0E00
0E00
0E00
0E00
0E00
0E00
0F00
07C0
03C0
ENDCHAR
STARTCHAR 0286
ENCODING 646
SWIDTH 346 0
DWIDTH 9 0
BBX 13 25 -3 -5
BITMAP
00F8
01F8
0380
0380
0380
0380
0380
0380
0380
0380
0380
0380
0380
0380
0380
0380
0380
0380
0380
0380
7FE0
FFE0
C380
FF00
7E00
ENDCHAR
STARTCHAR 0287
ENCODING 647
SWIDTH 384 0
DWIDTH 10 0
BBX 10 18 1 -4
BITMAP
FC00
FE00
0700
0700
0700
0700
0700
0700
0700
0700
0700
0700
FFC0
FFC0
0700
0700
0700
0700
ENDCHAR
STARTCHAR 0288
ENCODING 648
SWIDTH 384 0
DWIDTH 10 0
BBX 10 23 0 -5
BITMAP
3800
3800
3800
3800
FFC0
FFC0
3800
3800
3800
3800
3800
3800
3800
3800
3800
3800
3800
3800
3800
3800
3C00
1FC0
0FC0
ENDCHAR
STARTCHAR 0289
ENCODING 649
SWIDTH 615 0
DWIDTH 16 0
BBX 16 14 0 0
BITMAP
381C
381C
381C
381C
381C
381C
FFFF
FFFF
381C
381C
383C
1C7C
1FDC
0F9C
ENDCHAR
STARTCHAR 028A
ENCODING 650
SWIDTH 692 0
DWIDTH 18 0
BBX 14 14 2 0
BITMAP
FCFC
FCFC
3CF0
7878
7038
E01C
E01C
E01C
E01C
E01C
7038
7878
3FF0
0FC0
ENDCHAR
STARTCHAR 028B
ENCODING 651
SWIDTH 615 0
DWIDTH 16 0
BBX 13 14 2 0
BITMAP
E180
E1E0
E0F0
E070
E038
E038
E038
E038
E038
E038
E070
F0F0
7FE0
3F80
ENDCHAR
STARTCHAR 028C
ENCODING 652
SWIDTH 576 0
DWIDTH 15 0
BBX 14 14 1 -1
BITMAP
0780
0780
0FC0
0FC0
0FC0
1EE0
1CE0
1CE0
3870
3870
7878
7038
7038
E01C
ENDCHAR
STARTCHAR 028D
ENCODING 653
SWIDTH 807 0
DWIDTH 21 0
BBX 19 14 1 0
BITMAP
0E0E00
1E0F00
1E0F00
1E0F00
3F1F00
3B1B80
3B1B80
3B1B80
79B3C0
71B1C0
71B1C0
71F1C0
F0E0E0
E0E0E0
ENDCHAR
STARTCHAR 028E
ENCODING 654
SWIDTH 615 0
DWIDTH 16 0
BBX 14 20 1 0
BITMAP
0078
00F8
01C0
01C0
03C0
0380
0780
07C0
07C0
0FC0
0FE0
1EE0
1CE0
1C70
3870
3870
7838
7038
7038
E01C
ENDCHAR
STARTCHAR 028F
ENCODING 655
SWIDTH 615 0
DWIDTH 16 0
BBX 13 14 1 0
BITMAP
F078
78F0
38E0
3DE0
1DC0
0F80
0F80
0700
0700
0700
0700
0700
0700
0700
ENDCHAR
STARTCHAR 0290
ENCODING 656
SWIDTH 538 0
DWIDTH 14 0
BBX 14 19 1 -5
BITMAP
FFE0
FFE0
01E0
03C0
0780
0780
0F00
1E00
1C00
3C00
7800
F000
FFE0
FFE0
0060
0060
0070
003C
001C
ENDCHAR
STARTCHAR 0291
ENCODING 657
SWIDTH 538 0
DWIDTH 14 0
BBX 11 15 1 -1
BITMAP
FFE0
FFE0
01E0
03C0
0780
0780
0F00
1E00
1FC0
3FE0
7EE0
FEE0
FFC0
FF80
0E00
ENDCHAR
STARTCHAR 0292
ENCODING 658
SWIDTH 538 0
DWIDTH 14 0
BBX 12 19 1 -5
BITMAP
FFE0
FFE0
01E0
03C0
0780
0F00
1E00
1C00
1F00
1FC0
01E0
00F0
0070
0070
0070
00F0
81E0
FFC0
3F00
ENDCHAR
STARTCHAR 0293
ENCODING 659
SWIDTH 576 0
DWIDTH 15 0
BBX 13 20 1 -5
BITMAP
FFE0
FFE0
00E0
01C0
0380
0300
0700
0E00
1F80
1FE0
00E0
0070
0030
0038
3FB8
7FF0
6070
7FF8
7FD8
0018
ENDCHAR
STARTCHAR 0294
ENCODING 660
SWIDTH 500 0
DWIDTH 13 0
BBX 11 20 1 0
BITMAP
7E00
FF80
83C0
01C0
00E0
00E0
00E0
00E0
01E0
03C0
1F80
1F00
1C00
1C00
1C00
1C00
1C00
1C00
1C00
1C00
ENDCHAR
STARTCHAR 0295
ENCODING 661
SWIDTH 500 0
DWIDTH 13 0
BBX 11 20 1 0
BITMAP
0FC0
3FE0
7820
7000
E000
E000
E000
E000
F000
7800
3F00
1F00
0700
0700
0700
0700
0700
0700
0700
0700
ENDCHAR
STARTCHAR 0296
ENCODING 662
SWIDTH 500 0
DWIDTH 13 0
BBX 11 20 1 0
BITMAP
1C00
1C00
1C00
1C00
1C00
1C00
1C00
1C00
1F00
1F80
03C0
01E0
00E0
00E0
00E0
00E0
01C0
83C0
FF80
7E00
ENDCHAR
STARTCHAR 0297
ENCODING 663
SWIDTH 500 0
DWIDTH 13 0
BBX 11 25 1 -5
BITMAP
0FC0
3FE0
7820
F000
E000
E000
E000
E000
E000
E000
E000
E000
E000
E000
E000
E000
E000
E000
E000
E000
E000
F000
7820
3FE0
0FC0
ENDCHAR
STARTCHAR 0298
ENCODING 664
SWIDTH 769 0
DWIDTH 20 0
BBX 18 19 1 0
BITMAP
07F800
0FFE00
1C0F00
380700
700380
700180
7001C0
6001C0
E0C1C0
E0E1C0
E0C1C0
6001C0
6001C0
700180
700380
380780
1C0F00
0FFE00
07F800
ENDCHAR
STARTCHAR 0299
ENCODING 665
SWIDTH 576 0
DWIDTH 15 0
BBX 11 14 2 0
BITMAP
FF00
FF80
E3C0
E1C0
E1C0
E380
FE00
FFC0
E1E0
E0E0
E0E0
E1E0
FFC0
FF80
ENDCHAR
STARTCHAR 029A
ENCODING 666
SWIDTH 653 0
DWIDTH 17 0
BBX 14 14 1 0
BITMAP
3F80
7FF0
F078
E038
F01C
3F1C
7F1C
F01C
E01C
E01C
E038
F078
7FF0
1FC0
ENDCHAR
STARTCHAR 029B
ENCODING 667
SWIDTH 692 0
DWIDTH 18 0
BBX 17 20 1 0
BITMAP
000F80
001F80
003800
003000
003000
003000
0FF000
3FF000
783000
701000
E00000
E00000
E0F800
E0F800
E03800
E03800
703800
783800
3FF800
0FF000
ENDCHAR
STARTCHAR 029C
ENCODING 668
SWIDTH 653 0
DWIDTH 17 0
BBX 12 14 2 0
BITMAP
E070
E070
E070
E070
E070
E070
FFF0
FFF0
E070
E070
E070
E070
E070
E070
ENDCHAR
STARTCHAR 029D
ENCODING 669
SWIDTH 307 0
DWIDTH 8 0
BBX 11 25 -4 -5
BITMAP
0380
0380
0380
0000
0000
0000
0380
0380
0380
0380
0380
0380
0380
0380
0380
0380
0380
0380
0380
0380
7FE0
FFE0
E380
FF00
7E00
ENDCHAR
STARTCHAR 029E
ENCODING 670
SWIDTH 653 0
DWIDTH 17 0
BBX 12 20 3 -5
BITMAP
E030
7030
3830
1C30
0E30
0730
03B0
01F0
03B0
0730
0E30
3C30
7030
E030
0030
0030
0030
0030
0030
0030
ENDCHAR
STARTCHAR 029F
ENCODING 671
SWIDTH 500 0
DWIDTH 13 0
BBX 11 14 2 0
BITMAP
E000
E000
E000
E000
E000
E000
E000
E000
E000
E000
E000
E000
FFE0
FFE0
ENDCHAR
STARTCHAR 02A0
ENCODING 672
SWIDTH 730 0
DWIDTH 19 0
BBX 18 25 1 -5
BITMAP
0007C0
001FC0
001C00
003800
003800
003800
1F3800
3FB800
78F800
707800
E03800
E03800
E03800
E03800
E03800
E03800
707800
78F800
3FB800
1F3800
003800
003800
003800
003800
003800
ENDCHAR
STARTCHAR 02A1
ENCODING 673
SWIDTH 500 0
DWIDTH 13 0
BBX 11 20 1 0
BITMAP
7E00
FF80
83C0
01C0
00E0
00E0
00E0
00E0
01E0
03C0
1F80
1F00
1C00
1C00
FF80
FF80
1C00
1C00
1C00
1C00
ENDCHAR
STARTCHAR 02A2
ENCODING 674
SWIDTH 500 0
DWIDTH 13 0
BBX 11 20 1 0
BITMAP
0FC0
3FE0
7820
7000
E000
E000
E000
E000
F000
7800
3F00
1F00
0700
0700
3FE0
3FE0
0700
0700
0700
0700
ENDCHAR
STARTCHAR 02A3
ENCODING 675
SWIDTH 1000 0
DWIDTH 26 0
BBX 24 20 1 -1
BITMAP
001800
001800
001800
001800
001800
021800
1FDFFF
3DFFFF
707807
70380E
60381C
601838
E01870
E01860
6018E0
6039C0
703B80
707F00
3FDFFF
1F9FFF
ENDCHAR
STARTCHAR 02A4
ENCODING 676
SWIDTH 1076 0
DWIDTH 28 0
BBX 25 25 1 -6
BITMAP
00180000
00180000
00180000
00180000
00180000
02180000
1FDFFF00
3DFFFF00
70780700
70380E00
60381C00
60183800
E0187000
E0186000
6018FC00
6038FE00
70380700
70780380
3FD80180
1F980180
00000180
00000380
00040780
0007FF00
0007FE00
ENDCHAR
STARTCHAR 02A5
ENCODING 677
SWIDTH 1000 0
DWIDTH 26 0
BBX 24 21 1 -2
BITMAP
001800
001800
001800
001800
001800
021800
1FDFFF
3DFFFF
707807
70380E
60381C
601838
E01870
E01860
6018E0
6039DF
703BBB
707F33
3FDFFF
1F9FFE
000060
ENDCHAR
STARTCHAR 02A6
ENCODING 678
SWIDTH 807 0
DWIDTH 21 0
BBX 19 18 1 0
BITMAP
700000
700000
700000
700600
FFBFE0
FFF9E0
706000
706000
706000
707800
703F80
700FC0
7000E0
700060
700060
3080E0
3FFFC0
1FFF80
ENDCHAR
STARTCHAR 02A7
ENCODING 679
SWIDTH 615 0
DWIDTH 16 0
BBX 15 25 1 -6
BITMAP
001E
007E
7070
7060
7060
7060
FFE0
FFE0
7060
7060
7060
7060
7060
7060
7060
7060
7060
3060
3FE0
1FE0
0060
00E0
00E0
03C0
03C0
ENDCHAR
STARTCHAR 02A8
ENCODING 680
SWIDTH 769 0
DWIDTH 20 0
BBX 18 20 1 -1
BITMAP
700000
700000
700000
700400
FFBFC0
FFFBC0
70E000
71C000
718000
718000
718000
718000
718000
718F80
71DF80
30F0C0
3FFFC0
1FFF80
003000
003000
ENDCHAR
STARTCHAR 02A9
ENCODING 681
SWIDTH 846 0
DWIDTH 22 0
BBX 20 25 1 -6
BITMAP
078000
1F8000
380000
300000
300000
300200
FFCFC0
FFDDE0
30F060
30E070
30E030
30C030
30C030
30C030
30C030
30C030
30C030
30C030
30C030
30C030
000030
000070
000070
000FE0
000FE0
ENDCHAR
STARTCHAR 02AA
ENCODING 682
SWIDTH 653 0
DWIDTH 17 0
BBX 14 20 2 -1
BITMAP
E000
E000
E000
E000
E000
E080
EFF8
FE78
F800
F800
F800
FE00
EFE0
E3F8
E038
E018
E01C
F018
FFF8
FFF0
ENDCHAR
STARTCHAR 02AB
ENCODING 683
SWIDTH 653 0
DWIDTH 17 0
BBX 14 20 2 0
BITMAP
E000
E000
E000
E000
E000
E000
FFFC
FFFC
E03C
E078
E0F0
E0E0
E1E0
E3C0
E780
E700
EF00
FE00
FFFC
FFFC
ENDCHAR
STARTCHAR 02AC
ENCODING 684
SWIDTH 500 0
DWIDTH 13 0
BBX 12 17 1 -1
BITMAP
8630
CE20
CE20
4B60
4940
7940
31C0
31C0
0000
8630
8E20
CE20
4A60
4B60
7940
71C0
31C0
ENDCHAR
STARTCHAR 02AD
ENCODING 685
SWIDTH 538 0
DWIDTH 14 0
BBX 12 14 1 3
BITMAP
FFF0
FFF0
E070
E070
E070
0000
0000
0000
0000
FFF0
FFF0
E070
E070
E070
ENDCHAR
STARTCHAR 02AE
ENCODING 686
SWIDTH 615 0
DWIDTH 16 0
BBX 14 25 0 -5
BITMAP
E000
F000
3800
3800
3800
3800
381C
381C
381C
381C
381C
381C
381C
381C
381C
381C
383C
1C7C
1FDC
0F9C
001C
001C
001C
001C
001C
ENDCHAR
STARTCHAR 02AF
ENCODING 687
SWIDTH 615 0
DWIDTH 16 0
BBX 17 25 0 -5
BITMAP
E00000
F00000
380000
380000
380000
380000
381C00
381C00
381C00
381C00
381C00
381C00
381C00
381C00
381C00
381C00
383C00
1C7C00
1FDC00
0F9C00
001C00
001C00
001E00
000F80
000780
ENDCHAR
STARTCHAR 02B0
ENCODING 688
SWIDTH 423 0
DWIDTH 11 0
BBX 8 11 1 8
BITMAP
80
80
80
BE
C3
81
81
81
81
81
81
ENDCHAR
STARTCHAR 02B1
ENCODING 689
SWIDTH 423 0
DWIDTH 11 0
BBX 8 11 1 8
BITMAP
70
80
80
BE
C3
81
81
81
81
81
81
ENDCHAR
STARTCHAR 02B2
ENCODING 690
SWIDTH 192 0
DWIDTH 5 0
BBX 3 14 0 5
BITMAP
20
20
00
20
20
20
20
20
20
20
20
20
20
C0
ENDCHAR
STARTCHAR 02B3
ENCODING 691
SWIDTH 269 0
DWIDTH 7 0
BBX 5 8 1 9
BITMAP
F8
C0
80
80
80
80
80
80
ENDCHAR
STARTCHAR 02B4
ENCODING 692
SWIDTH 307 0
DWIDTH 8 0
BBX 5 8 1 8
BITMAP
08
08
08
08
08
08
18
E8
ENDCHAR
STARTCHAR 02B5
ENCODING 693
SWIDTH 307 0
DWIDTH 8 0
BBX 7 11 1 5
BITMAP
08
08
08
08
08
08
18
E8
08
08
06
ENDCHAR
STARTCHAR 02B6
ENCODING 694
SWIDTH 384 0
DWIDTH 10 0
BBX 8 8 0 9
BITMAP
C3
C2
C4
FC
C6
C6
FE
F0
ENDCHAR
STARTCHAR 02B7
ENCODING 695
SWIDTH 500 0
DWIDTH 13 0
BBX 11 8 1 9
BITMAP
8620
CE20
4A60
4B60
7940
71C0
31C0
3080
ENDCHAR
STARTCHAR 02B8
ENCODING 696
SWIDTH 384 0
DWIDTH 10 0
BBX 8 11 1 6
BITMAP
83
C2
46
64
2C
3C
18
18
10
F0
C0
ENDCHAR
STARTCHAR 02B9
ENCODING 697
SWIDTH 269 0
DWIDTH 7 0
BBX 3 6 2 14
BITMAP
60
60
C0
C0
C0
C0
ENDCHAR
STARTCHAR 02BA
ENCODING 698
SWIDTH 461 0
DWIDTH 12 0
BBX 8 6 2 14
BITMAP
63
63
C6
C6
C6
C6
ENDCHAR
STARTCHAR 02BB
ENCODING 699
SWIDTH 307 0
DWIDTH 8 0
BBX 4 6 2 13
BITMAP
30
70
60
E0
E0
E0
ENDCHAR
STARTCHAR 02BC
ENCODING 700
SWIDTH 307 0
DWIDTH 8 0
BBX 4 6 2 13
BITMAP
70
70
70
60
E0
C0
ENDCHAR
STARTCHAR 02BD
ENCODING 701
SWIDTH 307 0
DWIDTH 8 0
BBX 4 6 2 16
BITMAP
E0
E0
E0
60
70
30
ENDCHAR
STARTCHAR 02BE
ENCODING 702
SWIDTH 307 0
DWIDTH 8 0
BBX 3 7 2 13
BITMAP
C0
C0
60
60
60
C0
C0
ENDCHAR
STARTCHAR 02BF
ENCODING 703
SWIDTH 307 0
DWIDTH 8 0
BBX 3 7 1 13
BITMAP
60
60
C0
C0
C0
60
60
ENDCHAR
STARTCHAR 02C0
ENCODING 704
SWIDTH 384 0
DWIDTH 10 0
BBX 7 11 2 8
BITMAP
78
8C
06
06
0E
38
30
30
30
30
30
ENDCHAR
STARTCHAR 02C1
ENCODING 705
SWIDTH 384 0
DWIDTH 10 0
BBX 7 11 2 8
BITMAP
3C
E2
C0
C0
E0
38
18
18
18
18
18
ENDCHAR
STARTCHAR 02C2
ENCODING 706
SWIDTH 500 0
DWIDTH 13 0
BBX 7 8 3 13
BITMAP
02
0E
3C
F0
C0
70
1C
06
ENDCHAR
STARTCHAR 02C3
ENCODING 707
SWIDTH 500 0
DWIDTH 13 0
BBX 7 8 3 13
BITMAP
80
E0
78
1E
06
1C
70
C0
ENDCHAR
STARTCHAR 02C4
ENCODING 708
SWIDTH 500 0
DWIDTH 13 0
BBX 8 6 2 15
BITMAP
18
3C
3C
66
66
C3
ENDCHAR
STARTCHAR 02C5
ENCODING 709
SWIDTH 500 0
DWIDTH 13 0
BBX 8 6 2 15
BITMAP
C3
66
66
3C
3C
18
ENDCHAR
STARTCHAR 02C6
ENCODING 710
SWIDTH 500 0
DWIDTH 13 0
BBX 8 5 2 16
BITMAP
18
3C
24
66
C3
ENDCHAR
STARTCHAR 02C7
ENCODING 711
SWIDTH 500 0
DWIDTH 13 0
BBX 8 5 2 16
BITMAP
C3
66
24
3C
18
ENDCHAR
STARTCHAR 02C8
ENCODING 712
SWIDTH 307 0
DWIDTH 8 0
BBX 2 7 3 13
BITMAP
C0
C0
C0
C0
C0
C0
C0
ENDCHAR
STARTCHAR 02C9
ENCODING 713
SWIDTH 500 0
DWIDTH 13 0
BBX 8 2 3 17
BITMAP
FF
FF
ENDCHAR
STARTCHAR 02CA
ENCODING 714
SWIDTH 500 0
DWIDTH 13 0
BBX 6 5 5 16
BITMAP
1C
38
30
60
C0
ENDCHAR
STARTCHAR 02CB
ENCODING 715
SWIDTH 500 0
DWIDTH 13 0
BBX 6 5 2 16
BITMAP
E0
70
30
18
0C
ENDCHAR
STARTCHAR 02CC
ENCODING 716
SWIDTH 307 0
DWIDTH 8 0
BBX 2 7 3 -4
BITMAP
C0
C0
C0
C0
C0
C0
C0
ENDCHAR
STARTCHAR 02CD
ENCODING 717
SWIDTH 500 0
DWIDTH 13 0
BBX 8 2 3 -5
BITMAP
FF
FF
ENDCHAR
STARTCHAR 02CE
ENCODING 718
SWIDTH 500 0
DWIDTH 13 0
BBX 6 5 2 -7
BITMAP
E0
60
30
18
0C
ENDCHAR
STARTCHAR 02CF
ENCODING 719
SWIDTH 500 0
DWIDTH 13 0
BBX 6 5 5 -7
BITMAP
1C
38
30
60
C0
ENDCHAR
STARTCHAR 02D0
ENCODING 720
SWIDTH 346 0
DWIDTH 9 0
BBX 5 13 1 0
BITMAP
F8
70
20
20
00
00
00
00
00
20
20
70
F8
ENDCHAR
STARTCHAR 02D1
ENCODING 721
SWIDTH 346 0
DWIDTH 9 0
BBX 5 4 1 9
BITMAP
F8
70
20
20
ENDCHAR
STARTCHAR 02D2
ENCODING 722
SWIDTH 307 0
DWIDTH 8 0
BBX 3 7 2 7
BITMAP
C0
C0
60
60
60
C0
C0
ENDCHAR
STARTCHAR 02D3
ENCODING 723
SWIDTH 307 0
DWIDTH 8 0
BBX 3 7 1 7
BITMAP
60
60
C0
C0
C0
60
60
ENDCHAR
STARTCHAR 02D4
ENCODING 724
SWIDTH 500 0
DWIDTH 13 0
BBX 5 6 4 5
BITMAP
20
20
20
20
F8
F8
ENDCHAR
STARTCHAR 02D5
ENCODING 725
SWIDTH 500 0
DWIDTH 13 0
BBX 5 6 4 5
BITMAP
F8
F8
20
20
20
20
ENDCHAR
STARTCHAR 02D6
ENCODING 726
SWIDTH 384 0
DWIDTH 10 0
BBX 8 8 1 3
BITMAP
18
18
18
FF
FF
18
18
18
ENDCHAR
STARTCHAR 02D7
ENCODING 727
SWIDTH 307 0
DWIDTH 8 0
BBX 6 2 1 6
BITMAP
FC
FC
ENDCHAR
STARTCHAR 02D8
ENCODING 728
SWIDTH 500 0
DWIDTH 13 0
BBX 8 4 3 17
BITMAP
C3
E7
7E
3C
ENDCHAR
STARTCHAR 02D9
ENCODING 729
SWIDTH 500 0
DWIDTH 13 0
BBX 3 3 5 17
BITMAP
E0
E0
E0
ENDCHAR
STARTCHAR 02DA
ENCODING 730
SWIDTH 500 0
DWIDTH 13 0
BBX 7 7 3 16
BITMAP
38
7C
C6
C6
C6
7C
38
ENDCHAR
STARTCHAR 02DB
ENCODING 731
SWIDTH 500 0
DWIDTH 13 0
BBX 5 5 4 -5
BITMAP
60
C0
C0
F8
78
ENDCHAR
STARTCHAR 02DC
ENCODING 732
SWIDTH 500 0
DWIDTH 13 0
BBX 8 4 2 16
BITMAP
73
F3
CF
CE
ENDCHAR
STARTCHAR 02DD
ENCODING 733
SWIDTH 500 0
DWIDTH 13 0
BBX 9 5 3 16
BITMAP
3980
3300
6600
6600
CC00
ENDCHAR
STARTCHAR 02DE
ENCODING 734
SWIDTH 307 0
DWIDTH 8 0
BBX 9 7 0 7
BITMAP
3C00
7C00
EC00
8C00
0E00
0F80
0380
ENDCHAR
STARTCHAR 02DF
ENCODING 735
SWIDTH 500 0
DWIDTH 13 0
BBX 7 5 3 16
BITMAP
EE
7C
38
7C
EE
ENDCHAR
STARTCHAR 02E0
ENCODING 736
SWIDTH 423 0
DWIDTH 11 0
BBX 7 11 2 6
BITMAP
C6
6C
38
18
28
6C
44
46
C6
FE
10
ENDCHAR
STARTCHAR 02E1
ENCODING 737
SWIDTH 153 0
DWIDTH 4 0
BBX 1 11 2 8
BITMAP
80
80
80
80
80
80
80
80
80
80
80
ENDCHAR
STARTCHAR 02E2
ENCODING 738
SWIDTH 384 0
DWIDTH 10 0
BBX 7 9 1 8
BITMAP
3E
62
40
60
3C
06
02
FE
10
ENDCHAR
STARTCHAR 02E3
ENCODING 739
SWIDTH 461 0
DWIDTH 12 0
BBX 9 8 1 9
BITMAP
2300
3200
1E00
0C00
1E00
3200
6100
C180
ENDCHAR
STARTCHAR 02E4
ENCODING 740
SWIDTH 384 0
DWIDTH 10 0
BBX 7 11 2 8
BITMAP
3C
E2
C0
C0
E0
38
18
18
18
18
18
ENDCHAR
STARTCHAR 02E5
ENCODING 741
SWIDTH 500 0
DWIDTH 13 0
BBX 7 17 3 0
BITMAP
FE
FE
0E
0E
0E
0E
0E
0E
0E
0E
0E
0E
0E
0E
0E
0E
0E
ENDCHAR
STARTCHAR 02E6
ENCODING 742
SWIDTH 500 0
DWIDTH 13 0
BBX 7 17 3 0
BITMAP
0E
0E
0E
0E
FE
FE
0E
0E
0E
0E
0E
0E
0E
0E
0E
0E
0E
ENDCHAR
STARTCHAR 02E7
ENCODING 743
SWIDTH 500 0
DWIDTH 13 0
BBX 7 17 3 0
BITMAP
0E
0E
0E
0E
0E
0E
0E
0E
FE
FE
0E
0E
0E
0E
0E
0E
0E
ENDCHAR
STARTCHAR 02E8
ENCODING 744
SWIDTH 500 0
DWIDTH 13 0
BBX 7 17 3 0
BITMAP
0E
0E
0E
0E
0E
0E
0E
0E
0E
0E
0E
FE
FE
0E
0E
0E
0E
ENDCHAR
STARTCHAR 02E9
ENCODING 745
SWIDTH 500 0
DWIDTH 13 0
BBX 7 17 3 0
BITMAP
0E
0E
0E
0E
0E
0E
0E
0E
0E
0E
0E
0E
0E
0E
0E
FE
FE
ENDCHAR
STARTCHAR 02EC
ENCODING 748
SWIDTH 500 0
DWIDTH 13 0
BBX 8 6 2 -6
BITMAP
C3
66
66
3C
3C
18
ENDCHAR
STARTCHAR 02ED
ENCODING 749
SWIDTH 500 0
DWIDTH 13 0
BBX 8 6 3 15
BITMAP
FF
FF
00
00
FF
FF
ENDCHAR
STARTCHAR 02EE
ENCODING 750
SWIDTH 500 0
DWIDTH 13 0
BBX 10 6 2 13
BITMAP
71C0
71C0
71C0
6180
E380
C300
ENDCHAR
STARTCHAR 02F3
ENCODING 755
SWIDTH 500 0
DWIDTH 13 0
BBX 7 7 3 -6
BITMAP
38
7C
C6
C6
C6
7C
38
ENDCHAR
STARTCHAR 02F7
ENCODING 759
SWIDTH 500 0
DWIDTH 13 0
BBX 8 4 2 -5
BITMAP
73
F3
CF
CE
ENDCHAR
STARTCHAR 0300
ENCODING 768
SWIDTH 0 0
DWIDTH 0 0
BBX 6 5 -11 14
BITMAP
E0
70
30
18
0C
ENDCHAR
STARTCHAR 0301
ENCODING 769
SWIDTH 0 0
DWIDTH 0 0
BBX 6 5 -8 14
BITMAP
1C
38
30
60
C0
ENDCHAR
STARTCHAR 0302
ENCODING 770
SWIDTH 0 0
DWIDTH 0 0
BBX 8 5 -11 14
BITMAP
18
3C
24
66
C3
ENDCHAR
STARTCHAR 0303
ENCODING 771
SWIDTH 0 0
DWIDTH 0 0
BBX 8 4 -11 16
BITMAP
73
F3
CF
CE
ENDCHAR
STARTCHAR 0304
ENCODING 772
SWIDTH 0 0
DWIDTH 0 0
BBX 8 2 -10 17
BITMAP
FF
FF
ENDCHAR
STARTCHAR 0305
ENCODING 773
SWIDTH 0 0
DWIDTH 0 0
BBX 13 2 -13 18
BITMAP
FFF8
FFF8
ENDCHAR
STARTCHAR 0306
ENCODING 774
SWIDTH 0 0
DWIDTH 0 0
BBX 8 4 -10 17
BITMAP
C3
E7
7E
3C
ENDCHAR
STARTCHAR 0307
ENCODING 775
SWIDTH 0 0
DWIDTH 0 0
BBX 3 3 -8 14
BITMAP
E0
E0
E0
ENDCHAR
STARTCHAR 0308
ENCODING 776
SWIDTH 0 0
DWIDTH 0 0
BBX 8 3 -10 14
BITMAP
E7
E7
E7
ENDCHAR
STARTCHAR 0309
ENCODING 777
SWIDTH 0 0
DWIDTH 0 0
BBX 6 5 -9 16
BITMAP
78
FC
0C
18
30
ENDCHAR
STARTCHAR 030A
ENCODING 778
SWIDTH 0 0
DWIDTH 0 0
BBX 7 7 -10 16
BITMAP
38
7C
C6
C6
C6
7C
38
ENDCHAR
STARTCHAR 030B
ENCODING 779
SWIDTH 0 0
DWIDTH 0 0
BBX 9 5 -10 16
BITMAP
3980
3300
6600
6600
CC00
ENDCHAR
STARTCHAR 030C
ENCODING 780
SWIDTH 0 0
DWIDTH 0 0
BBX 8 5 -11 14
BITMAP
C3
66
24
3C
18
ENDCHAR
STARTCHAR 030D
ENCODING 781
SWIDTH 0 0
DWIDTH 0 0
BBX 2 6 -8 16
BITMAP
C0
C0
C0
C0
C0
C0
ENDCHAR
STARTCHAR 030E
ENCODING 782
SWIDTH 0 0
DWIDTH 0 0
BBX 8 6 -11 16
BITMAP
C3
C3
C3
C3
C3
C3
ENDCHAR
STARTCHAR 030F
ENCODING 783
SWIDTH 0 0
DWIDTH 0 0
BBX 9 5 -12 16
BITMAP
CE00
6600
3300
3300
1980
ENDCHAR
STARTCHAR 0310
ENCODING 784
SWIDTH 0 0
DWIDTH 0 0
BBX 8 7 -10 17
BITMAP
38
38
38
C3
E7
7E
3C
ENDCHAR
STARTCHAR 0311
ENCODING 785
SWIDTH 0 0
DWIDTH 0 0
BBX 8 4 -11 17
BITMAP
3C
7E
E7
C3
ENDCHAR
STARTCHAR 0312
ENCODING 786
SWIDTH 0 0
DWIDTH 0 0
BBX 3 4 -6 13
BITMAP
20
60
60
E0
ENDCHAR
STARTCHAR 0313
ENCODING 787
SWIDTH 0 0
DWIDTH 0 0
BBX 3 6 -8 15
BITMAP
E0
E0
E0
60
60
E0
ENDCHAR
STARTCHAR 0314
ENCODING 788
SWIDTH 0 0
DWIDTH 0 0
BBX 3 6 -8 15
BITMAP
E0
E0
E0
C0
C0
60
ENDCHAR
STARTCHAR 0315
ENCODING 789
SWIDTH 0 0
DWIDTH 0 0
BBX 4 5 -2 14
BITMAP
70
60
60
60
C0
ENDCHAR
STARTCHAR 0316
ENCODING 790
SWIDTH 0 0
DWIDTH 0 0
BBX 6 5 -11 -7
BITMAP
E0
70
30
18
0C
ENDCHAR
STARTCHAR 0317
ENCODING 791
SWIDTH 0 0
DWIDTH 0 0
BBX 6 5 -8 -7
BITMAP
1C
38
30
60
C0
ENDCHAR
STARTCHAR 0318
ENCODING 792
SWIDTH 0 0
DWIDTH 0 0
BBX 3 5 -9 -6
BITMAP
20
20
E0
20
20
ENDCHAR
STARTCHAR 0319
ENCODING 793
SWIDTH 0 0
DWIDTH 0 0
BBX 3 5 -7 -6
BITMAP
80
80
E0
80
80
ENDCHAR
STARTCHAR 031A
ENCODING 794
SWIDTH 0 0
DWIDTH 0 0
BBX 6 6 -5 18
BITMAP
FC
FC
0C
0C
0C
0C
ENDCHAR
STARTCHAR 031B
ENCODING 795
SWIDTH 0 0
DWIDTH 0 0
BBX 5 5 -3 11
BITMAP
18
18
98
F8
70
ENDCHAR
STARTCHAR 031C
ENCODING 796
SWIDTH 0 0
DWIDTH 0 0
BBX 3 6 -8 -6
BITMAP
60
E0
C0
C0
E0
60
ENDCHAR
STARTCHAR 031D
ENCODING 797
SWIDTH 0 0
DWIDTH 0 0
BBX 7 4 -10 -7
BITMAP
10
10
10
FE
ENDCHAR
STARTCHAR 031E
ENCODING 798
SWIDTH 0 0
DWIDTH 0 0
BBX 7 4 -10 -7
BITMAP
FE
FE
10
10
ENDCHAR
STARTCHAR 031F
ENCODING 799
SWIDTH 0 0
DWIDTH 0 0
BBX 5 5 -9 -6
BITMAP
20
20
F8
20
20
ENDCHAR
STARTCHAR 0320
ENCODING 800
SWIDTH 0 0
DWIDTH 0 0
BBX 7 2 -10 -5
BITMAP
FE
FE
ENDCHAR
STARTCHAR 0321
ENCODING 801
SWIDTH 0 0
DWIDTH 0 0
BBX 7 7 -8 -6
BITMAP
06
06
06
06
06
FE
FC
ENDCHAR
STARTCHAR 0322
ENCODING 802
SWIDTH 0 0
DWIDTH 0 0
BBX 7 7 -8 -6
BITMAP
C0
C0
C0
C0
C0
FE
7E
ENDCHAR
STARTCHAR 0323
ENCODING 803
SWIDTH 0 0
DWIDTH 0 0
BBX 3 3 -8 -4
BITMAP
E0
E0
E0
ENDCHAR
STARTCHAR 0324
ENCODING 804
SWIDTH 0 0
DWIDTH 0 0
BBX 8 3 -10 -5
BITMAP
E7
E7
E7
ENDCHAR
STARTCHAR 0325
ENCODING 805
SWIDTH 0 0
DWIDTH 0 0
BBX 5 6 -9 -6
BITMAP
70
F8
D8
D8
F8
70
ENDCHAR
STARTCHAR 0326
ENCODING 806
SWIDTH 0 0
DWIDTH 0 0
BBX 3 4 -8 -6
BITMAP
E0
E0
C0
C0
ENDCHAR
STARTCHAR 0327
ENCODING 807
SWIDTH 0 0
DWIDTH 0 0
BBX 5 5 -9 -5
BITMAP
30
18
18
F8
F0
ENDCHAR
STARTCHAR 0328
ENCODING 808
SWIDTH 0 0
DWIDTH 0 0
BBX 5 5 -9 -5
BITMAP
60
C0
C0
F8
78
ENDCHAR
STARTCHAR 0329
ENCODING 809
SWIDTH 0 0
DWIDTH 0 0
BBX 2 5 -8 -6
BITMAP
C0
C0
C0
C0
C0
ENDCHAR
STARTCHAR 032A
ENCODING 810
SWIDTH 0 0
DWIDTH 0 0
BBX 7 4 -10 -6
BITMAP
FE
FE
C6
C6
ENDCHAR
STARTCHAR 032B
ENCODING 811
SWIDTH 0 0
DWIDTH 0 0
BBX 11 4 -12 -6
BITMAP
C460
CE40
7FC0
3B80
ENDCHAR
STARTCHAR 032C
ENCODING 812
SWIDTH 0 0
DWIDTH 0 0
BBX 8 5 -11 -6
BITMAP
C3
66
24
3C
18
ENDCHAR
STARTCHAR 032D
ENCODING 813
SWIDTH 0 0
DWIDTH 0 0
BBX 8 5 -11 -6
BITMAP
18
3C
24
66
C3
ENDCHAR
STARTCHAR 032E
ENCODING 814
SWIDTH 0 0
DWIDTH 0 0
BBX 8 4 -10 -6
BITMAP
C3
E7
7E
3C
ENDCHAR
STARTCHAR 032F
ENCODING 815
SWIDTH 0 0
DWIDTH 0 0
BBX 8 4 -11 -6
BITMAP
1C
7F
63
C1
ENDCHAR
STARTCHAR 0330
ENCODING 816
SWIDTH 0 0
DWIDTH 0 0
BBX 8 4 -11 -6
BITMAP
73
F3
CF
CE
ENDCHAR
STARTCHAR 0331
ENCODING 817
SWIDTH 0 0
DWIDTH 0 0
BBX 8 2 -10 -5
BITMAP
FF
FF
ENDCHAR
STARTCHAR 0332
ENCODING 818
SWIDTH 0 0
DWIDTH 0 0
BBX 13 2 -13 -6
BITMAP
FFF8
FFF8
ENDCHAR
STARTCHAR 0333
ENCODING 819
SWIDTH 0 0
DWIDTH 0 0
BBX 13 6 -13 -6
BITMAP
FFF8
FFF8
0000
0000
FFF8
FFF8
ENDCHAR
STARTCHAR 0334
ENCODING 820
SWIDTH 0 0
DWIDTH 0 0
BBX 13 4 -14 6
BITMAP
7C08
FF38
C7F8
00E0
ENDCHAR
STARTCHAR 0335
ENCODING 821
SWIDTH 0 0
DWIDTH 0 0
BBX 6 2 -8 5
BITMAP
FC
FC
ENDCHAR
STARTCHAR 0336
ENCODING 822
SWIDTH 0 0
DWIDTH 0 0
BBX 16 2 -16 5
BITMAP
FFFF
FFFF
ENDCHAR
STARTCHAR 0337
ENCODING 823
SWIDTH 0 0
DWIDTH 0 0
BBX 14 16 -15 -1
BITMAP
000C
0018
0018
0030
0060
00C0
0180
0300
0300
0600
0C00
1800
3000
7000
6000
C000
ENDCHAR
STARTCHAR 0338
ENCODING 824
SWIDTH 0 0
DWIDTH 0 0
BBX 17 20 -19 -1
BITMAP
000080
000180
000380
000700
000600
000C00
001800
003000
007000
00E000
00C000
018000
030000
060000
0C0000
1C0000
380000
300000
600000
C00000
ENDCHAR
STARTCHAR 0339
ENCODING 825
SWIDTH 0 0
DWIDTH 0 0
BBX 3 6 -8 -6
BITMAP
C0
E0
60
60
E0
C0
ENDCHAR
STARTCHAR 033A
ENCODING 826
SWIDTH 0 0
DWIDTH 0 0
BBX 7 4 -10 -6
BITMAP
C6
C6
C6
FE
ENDCHAR
STARTCHAR 033B
ENCODING 827
SWIDTH 0 0
DWIDTH 0 0
BBX 5 5 -9 -6
BITMAP
F8
88
88
88
F8
ENDCHAR
STARTCHAR 033C
ENCODING 828
SWIDTH 0 0
DWIDTH 0 0
BBX 11 4 -12 -6
BITMAP
3B80
7FC0
CE40
C460
ENDCHAR
STARTCHAR 033D
ENCODING 829
SWIDTH 0 0
DWIDTH 0 0
BBX 5 5 -9 17
BITMAP
D8
70
70
D8
08
ENDCHAR
STARTCHAR 033E
ENCODING 830
SWIDTH 0 0
DWIDTH 0 0
BBX 3 6 -6 16
BITMAP
E0
C0
C0
60
20
E0
ENDCHAR
STARTCHAR 033F
ENCODING 831
SWIDTH 0 0
DWIDTH 0 0
BBX 13 6 -13 14
BITMAP
FFF8
FFF8
0000
0000
FFF8
FFF8
ENDCHAR
STARTCHAR 0340
ENCODING 832
SWIDTH 0 0
DWIDTH 0 0
BBX 6 5 -11 16
BITMAP
E0
70
30
18
0C
ENDCHAR
STARTCHAR 0341
ENCODING 833
SWIDTH 0 0
DWIDTH 0 0
BBX 6 5 -8 16
BITMAP
1C
38
30
60
C0
ENDCHAR
STARTCHAR 0342
ENCODING 834
SWIDTH 0 0
DWIDTH 0 0
BBX 8 4 -11 16
BITMAP
73
F3
CF
CE
ENDCHAR
STARTCHAR 0343
ENCODING 835
SWIDTH 0 0
DWIDTH 0 0
BBX 3 6 -8 15
BITMAP
E0
E0
E0
60
60
E0
ENDCHAR
STARTCHAR 0344
ENCODING 836
SWIDTH 0 0
DWIDTH 0 0
BBX 8 9 -10 17
BITMAP
07
0E
0C
18
30
00
E7
E7
E7
ENDCHAR
STARTCHAR 0345
ENCODING 837
SWIDTH 0 0
DWIDTH 0 0
BBX 2 4 -7 -6
BITMAP
80
80
80
C0
ENDCHAR
STARTCHAR 0346
ENCODING 838
SWIDTH 0 0
DWIDTH 0 0
BBX 7 3 -10 17
BITMAP
FE
C6
C6
ENDCHAR
STARTCHAR 0347
ENCODING 839
SWIDTH 0 0
DWIDTH 0 0
BBX 5 5 -9 -5
BITMAP
F8
00
00
F8
F8
ENDCHAR
STARTCHAR 0348
ENCODING 840
SWIDTH 0 0
DWIDTH 0 0
BBX 5 5 -9 -7
BITMAP
88
88
88
88
88
ENDCHAR
STARTCHAR 0349
ENCODING 841
SWIDTH 0 0
DWIDTH 0 0
BBX 5 5 -9 -6
BITMAP
F8
18
18
18
18
ENDCHAR
STARTCHAR 034A
ENCODING 842
SWIDTH 0 0
DWIDTH 0 0
BBX 9 5 -11 16
BITMAP
0600
7D80
7D00
DF00
1000
ENDCHAR
STARTCHAR 034B
ENCODING 843
SWIDTH 0 0
DWIDTH 0 0
BBX 9 7 -11 15
BITMAP
0600
0600
7180
7F00
C700
3000
3000
ENDCHAR
STARTCHAR 034C
ENCODING 844
SWIDTH 0 0
DWIDTH 0 0
BBX 8 6 -11 16
BITMAP
73
FF
CE
73
FF
CE
ENDCHAR
STARTCHAR 034D
ENCODING 845
SWIDTH 0 0
DWIDTH 0 0
BBX 11 5 -12 -5
BITMAP
2080
60C0
FFE0
60C0
3180
ENDCHAR
STARTCHAR 034E
ENCODING 846
SWIDTH 0 0
DWIDTH 0 0
BBX 5 5 -9 -7
BITMAP
20
70
F8
20
20
ENDCHAR
STARTCHAR 034F
ENCODING 847
SWIDTH 0 0
DWIDTH 0 0
BBX 0 0 0 0
BITMAP
ENDCHAR
STARTCHAR 0351
ENCODING 849
SWIDTH 0 0
DWIDTH 0 0
BBX 3 7 -8 15
BITMAP
20
E0
C0
80
80
E0
60
ENDCHAR
STARTCHAR 0352
ENCODING 850
SWIDTH 0 0
DWIDTH 0 0
BBX 8 6 -11 14
BITMAP
3C
7E
E7
DF
1C
1C
ENDCHAR
STARTCHAR 0353
ENCODING 851
SWIDTH 0 0
DWIDTH 0 0
BBX 5 5 -9 -5
BITMAP
D8
70
70
D8
08
ENDCHAR
STARTCHAR 0357
ENCODING 855
SWIDTH 0 0
DWIDTH 0 0
BBX 3 7 -8 15
BITMAP
80
C0
60
20
60
E0
C0
ENDCHAR
STARTCHAR 0358
ENCODING 856
SWIDTH 0 0
DWIDTH 0 0
BBX 3 3 -3 17
BITMAP
E0
E0
E0
ENDCHAR
STARTCHAR 035A
ENCODING 858
SWIDTH 0 0
DWIDTH 0 0
BBX 9 5 -11 -6
BITMAP
7700
DD80
8880
DD80
7700
ENDCHAR
STARTCHAR 035C
ENCODING 860
SWIDTH 0 0
DWIDTH 0 0
BBX 23 5 -11 -6
BITMAP
800002
E0000E
7E00FC
1FFFF0
01FF00
ENDCHAR
STARTCHAR 035D
ENCODING 861
SWIDTH 0 0
DWIDTH 0 0
BBX 23 5 -11 21
BITMAP
800002
E0000E
7E00FC
1FFFF0
01FF00
ENDCHAR
STARTCHAR 035E
ENCODING 862
SWIDTH 0 0
DWIDTH 0 0
BBX 24 2 -12 23
BITMAP
FFFFFF
FFFFFF
ENDCHAR
STARTCHAR 035F
ENCODING 863
SWIDTH 0 0
DWIDTH 0 0
BBX 24 2 -12 -5
BITMAP
FFFFFF
FFFFFF
ENDCHAR
STARTCHAR 0360
ENCODING 864
SWIDTH 0 0
DWIDTH 0 0
BBX 18 3 -9 20
BITMAP
3F80C0
F3F3C0
C07F80
ENDCHAR
STARTCHAR 0361
ENCODING 865
SWIDTH 0 0
DWIDTH 0 0
BBX 23 5 -11 19
BITMAP
01FF00
1FFFF0
7E00FC
E0000E
800002
ENDCHAR
STARTCHAR 0362
ENCODING 866
SWIDTH 0 0
DWIDTH 0 0
BBX 23 5 -11 -5
BITMAP
000018
00000C
FFFFFE
00000C
000018
ENDCHAR
STARTCHAR 0370
ENCODING 880
SWIDTH 653 0
DWIDTH 17 0
BBX 11 19 3 0
BITMAP
C000
C000
C000
C000
C000
C000
C000
C000
FFE0
FFE0
C000
C000
C000
C000
C000
C000
C000
C000
C000
ENDCHAR
STARTCHAR 0371
ENCODING 881
SWIDTH 576 0
DWIDTH 15 0
BBX 10 14 2 1
BITMAP
E000
E000
E000
E000
E000
E000
FFC0
E000
E000
E000
E000
E000
E000
E000
ENDCHAR
STARTCHAR 0372
ENCODING 882
SWIDTH 846 0
DWIDTH 22 0
BBX 17 19 3 0
BITMAP
FFFF80
FFFF80
C1C380
C1C380
C1C380
C1C380
C1C380
C1C380
C1C380
C1C380
01C000
01C000
01C000
01C000
01C000
01C000
01C000
01C000
01C000
ENDCHAR
STARTCHAR 0373
ENCODING 883
SWIDTH 653 0
DWIDTH 17 0
BBX 11 19 3 0
BITMAP
FFE0
FFE0
CE60
CE60
CE60
CE60
CE60
CE60
CE60
CE60
0E00
0E00
0E00
0E00
0E00
0E00
0E00
0E00
0E00
ENDCHAR
STARTCHAR 0374
ENCODING 884
SWIDTH 269 0
DWIDTH 7 0
BBX 3 6 2 14
BITMAP
60
60
C0
C0
C0
C0
ENDCHAR
STARTCHAR 0375
ENCODING 885
SWIDTH 269 0
DWIDTH 7 0
BBX 3 6 2 -5
BITMAP
60
60
60
60
C0
C0
ENDCHAR
STARTCHAR 0376
ENCODING 886
SWIDTH 730 0
DWIDTH 19 0
BBX 14 19 2 0
BITMAP
E03C
E07C
E07C
E0FC
E0FC
E1FC
E1DC
E3DC
E39C
E79C
E71C
EF1C
EE1C
FE1C
FC1C
FC1C
F81C
F81C
F01C
ENDCHAR
STARTCHAR 0377
ENCODING 887
SWIDTH 653 0
DWIDTH 17 0
BBX 12 14 2 0
BITMAP
E0F0
E1F0
E1F0
E3F0
E7F0
E770
EF70
FE70
FE70
FC70
FC70
F870
F070
F070
ENDCHAR
STARTCHAR 037A
ENCODING 890
SWIDTH 500 0
DWIDTH 13 0
BBX 2 4 6 -6
BITMAP
80
80
80
C0
ENDCHAR
STARTCHAR 037B
ENCODING 891
SWIDTH 538 0
DWIDTH 14 0
BBX 11 14 2 0
BITMAP
7E00
FF80
83C0
01C0
00E0
00E0
00E0
00E0
00E0
00E0
01C0
83C0
FF80
7E00
ENDCHAR
STARTCHAR 037C
ENCODING 892
SWIDTH 538 0
DWIDTH 14 0
BBX 11 14 1 0
BITMAP
0FC0
3FE0
7820
7000
E000
E380
E380
E380
E000
E000
7000
7820
3FE0
0FC0
ENDCHAR
STARTCHAR 037D
ENCODING 893
SWIDTH 538 0
DWIDTH 14 0
BBX 11 14 2 0
BITMAP
7E00
FF80
83C0
01C0
00E0
1CE0
1CE0
1CE0
00E0
00E0
01C0
83C0
FF80
7E00
ENDCHAR
STARTCHAR 037E
ENCODING 894
SWIDTH 346 0
DWIDTH 9 0
BBX 4 16 2 -3
BITMAP
70
70
70
00
00
00
00
00
00
00
70
70
70
60
E0
C0
ENDCHAR
STARTCHAR 0384
ENCODING 900
SWIDTH 500 0
DWIDTH 13 0
BBX 6 5 5 16
BITMAP
1C
38
30
60
C0
ENDCHAR
STARTCHAR 0385
ENCODING 901
SWIDTH 500 0
DWIDTH 13 0
BBX 8 9 3 17
BITMAP
07
0E
0C
18
30
00
E7
E7
E7
ENDCHAR
STARTCHAR 0386
ENCODING 902
SWIDTH 692 0
DWIDTH 18 0
BBX 17 21 0 0
BITMAP
0E0000
1C0000
19C000
31C000
63E000
03E000
07F000
077000
077000
0F3800
0E3800
0E3800
1C1C00
1C1C00
3FFE00
3FFE00
380E00
780F00
700700
700700
E00380
ENDCHAR
STARTCHAR 0387
ENCODING 903
SWIDTH 307 0
DWIDTH 8 0
BBX 3 3 3 8
BITMAP
E0
E0
E0
ENDCHAR
STARTCHAR 0388
ENCODING 904
SWIDTH 730 0
DWIDTH 19 0
BBX 17 21 0 0
BITMAP
1C0000
380000
37FF80
67FF80
C70000
070000
070000
070000
070000
070000
07FF00
07FF00
070000
070000
070000
070000
070000
070000
070000
07FF80
07FF80
ENDCHAR
STARTCHAR 0389
ENCODING 905
SWIDTH 884 0
DWIDTH 23 0
BBX 19 21 0 0
BITMAP
1C0000
380000
3700E0
6700E0
C700E0
0700E0
0700E0
0700E0
0700E0
0700E0
07FFE0
07FFE0
0700E0
0700E0
0700E0
0700E0
0700E0
0700E0
0700E0
0700E0
0700E0
ENDCHAR
STARTCHAR 038A
ENCODING 906
SWIDTH 423 0
DWIDTH 11 0
BBX 8 21 0 0
BITMAP
1C
38
37
67
C7
07
07
07
07
07
07
07
07
07
07
07
07
07
07
07
07
ENDCHAR
STARTCHAR 038C
ENCODING 908
SWIDTH 807 0
DWIDTH 21 0
BBX 20 21 0 0
BITMAP
1C0000
380000
30FC00
63FF00
C78780
0E01C0
1C00E0
1C00E0
380070
380070
380070
380070
380070
380070
380070
1C00E0
1C00E0
0E01C0
078780
03FF00
00FC00
ENDCHAR
STARTCHAR 038E
ENCODING 910
SWIDTH 807 0
DWIDTH 21 0
BBX 22 21 0 0
BITMAP
1C0000
380000
37803C
63C078
C1C070
01E0F0
00F1E0
007BC0
003B80
003F80
001F00
000E00
000E00
000E00
000E00
000E00
000E00
000E00
000E00
000E00
000E00
ENDCHAR
STARTCHAR 038F
ENCODING 911
SWIDTH 807 0
DWIDTH 21 0
BBX 19 21 0 0
BITMAP
1C0000
380000
30F800
63FE00
CF0780
0E0380
1C01C0
1C01C0
3800E0
3800E0
3800E0
3800E0
3800E0
3800E0
1C01C0
1C01C0
0E0380
0F0780
078F00
3FDFE0
3FDFE0
ENDCHAR
STARTCHAR 0390
ENCODING 912
SWIDTH 346 0
DWIDTH 9 0
BBX 8 26 0 0
BITMAP
07
0E
0C
18
30
00
E7
E7
E7
00
00
00
38
38
38
38
38
38
38
38
38
38
38
3C
1F
0F
ENDCHAR
STARTCHAR 0391
ENCODING 913
SWIDTH 692 0
DWIDTH 18 0
BBX 17 19 0 0
BITMAP
01C000
01C000
03E000
03E000
07F000
077000
077000
0F3800
0E3800
0E3800
1C1C00
1C1C00
3FFE00
3FFE00
380E00
780F00
700700
700700
E00380
ENDCHAR
STARTCHAR 0392
ENCODING 914
SWIDTH 692 0
DWIDTH 18 0
BBX 13 19 2 0
BITMAP
FF80
FFE0
E0E0
E070
E070
E070
E070
E0E0
FFC0
FFC0
E070
E030
E038
E038
E038
E038
E070
FFE0
FFC0
ENDCHAR
STARTCHAR 0393
ENCODING 915
SWIDTH 538 0
DWIDTH 14 0
BBX 12 19 2 0
BITMAP
FFF0
FFF0
E000
E000
E000
E000
E000
E000
E000
E000
E000
E000
E000
E000
E000
E000
E000
E000
E000
ENDCHAR
STARTCHAR 0394
ENCODING 916
SWIDTH 692 0
DWIDTH 18 0
BBX 17 19 0 0
BITMAP
01C000
01C000
03E000
03E000
07F000
077000
077000
0F3800
0E3800
0E3800
1C1C00
1C1C00
3C1E00
380E00
380E00
780700
700700
7FFF00
FFFF80
ENDCHAR
STARTCHAR 0395
ENCODING 917
SWIDTH 615 0
DWIDTH 16 0
BBX 12 19 2 0
BITMAP
FFF0
FFF0
E000
E000
E000
E000
E000
E000
FFE0
FFE0
E000
E000
E000
E000
E000
E000
E000
FFF0
FFF0
ENDCHAR
STARTCHAR 0396
ENCODING 918
SWIDTH 692 0
DWIDTH 18 0
BBX 15 19 1 0
BITMAP
FFFE
FFFE
001E
003C
0078
0070
00F0
01E0
03C0
0380
0780
0F00
1E00
1C00
3C00
7800
F000
FFFE
FFFE
ENDCHAR
STARTCHAR 0397
ENCODING 919
SWIDTH 769 0
DWIDTH 20 0
BBX 14 19 2 0
BITMAP
E01C
E01C
E01C
E01C
E01C
E01C
E01C
E01C
FFFC
FFFC
E01C
E01C
E01C
E01C
E01C
E01C
E01C
E01C
E01C
ENDCHAR
STARTCHAR 0398
ENCODING 920
SWIDTH 769 0
DWIDTH 20 0
BBX 18 19 1 0
BITMAP
03F000
0FFC00
1E1E00
380700
700380
700380
E001C0
E001C0
EFFDC0
EFFDC0
E001C0
E001C0
E001C0
700380
700380
380700
1E1E00
0FFC00
03F000
ENDCHAR
STARTCHAR 0399
ENCODING 921
SWIDTH 307 0
DWIDTH 8 0
BBX 3 19 2 0
BITMAP
E0
E0
E0
E0
E0
E0
E0
E0
E0
E0
E0
E0
E0
E0
E0
E0
E0
E0
E0
ENDCHAR
STARTCHAR 039A
ENCODING 922
SWIDTH 653 0
DWIDTH 17 0
BBX 15 19 2 0
BITMAP
E03C
E078
E0F0
E1E0
E3C0
E780
EF00
FE00
FC00
FC00
FE00
EF00
E780
E3C0
E1E0
E0F0
E078
E03C
E01E
ENDCHAR
STARTCHAR 039B
ENCODING 923
SWIDTH 692 0
DWIDTH 18 0
BBX 17 19 0 0
BITMAP
01C000
01C000
03E000
03E000
07F000
077000
077000
0F3800
0E3800
0E3800
1C1C00
1C1C00
3C1E00
380E00
380E00
780F00
700700
700700
E00380
ENDCHAR
STARTCHAR 039C
ENCODING 924
SWIDTH 846 0
DWIDTH 22 0
BBX 17 19 2 0
BITMAP
FC1F80
FC1F80
FC1F80
FE3F80
EE3B80
EE3B80
EF7B80
E77380
E77380
E7F380
E3E380
E3E380
E1E380
E1C380
E1C380
E00380
E00380
E00380
E00380
ENDCHAR
STARTCHAR 039D
ENCODING 925
SWIDTH 730 0
DWIDTH 19 0
BBX 14 19 2 0
BITMAP
F01C
F81C
F81C
FC1C
FC1C
FE1C
EE1C
EF1C
E71C
E79C
E39C
E3DC
E1DC
E1FC
E0FC
E0FC
E07C
E07C
E03C
ENDCHAR
STARTCHAR 039E
ENCODING 926
SWIDTH 615 0
DWIDTH 16 0
BBX 12 19 2 0
BITMAP
FFF0
FFF0
0000
0000
0000
0000
0000
0000
7FE0
7FE0
0000
0000
0000
0000
0000
0000
0000
FFF0
FFF0
ENDCHAR
STARTCHAR 039F
ENCODING 927
SWIDTH 769 0
DWIDTH 20 0
BBX 18 19 1 0
BITMAP
03F000
0FFC00
1E1E00
380700
700380
700380
E001C0
E001C0
E001C0
E001C0
E001C0
E001C0
E001C0
700380
700380
380700
1E1E00
0FFC00
03F000
ENDCHAR
STARTCHAR 03A0
ENCODING 928
SWIDTH 692 0
DWIDTH 18 0
BBX 14 19 2 0
BITMAP
FFFC
FFFC
E01C
E01C
E01C
E01C
E01C
E01C
E01C
E01C
E01C
E01C
E01C
E01C
E01C
E01C
E01C
E01C
E01C
ENDCHAR
STARTCHAR 03A1
ENCODING 929
SWIDTH 615 0
DWIDTH 16 0
BBX 12 19 2 0
BITMAP
FF80
FFE0
E0E0
E070
E070
E070
E070
E070
E0E0
FFE0
FF80
E000
E000
E000
E000
E000
E000
E000
E000
ENDCHAR
STARTCHAR 03A3
ENCODING 931
SWIDTH 615 0
DWIDTH 16 0
BBX 12 19 2 0
BITMAP
FFF0
FFF0
F000
7800
3C00
1E00
0F00
0780
03C0
0380
0780
0F00
1E00
1C00
3C00
7800
F000
FFF0
FFF0
ENDCHAR
STARTCHAR 03A4
ENCODING 932
SWIDTH 615 0
DWIDTH 16 0
BBX 17 19 0 0
BITMAP
FFFF80
FFFF80
01C000
01C000
01C000
01C000
01C000
01C000
01C000
01C000
01C000
01C000
01C000
01C000
01C000
01C000
01C000
01C000
01C000
ENDCHAR
STARTCHAR 03A5
ENCODING 933
SWIDTH 615 0
DWIDTH 16 0
BBX 17 19 0 0
BITMAP
F00780
780F00
380E00
3C1E00
1E3C00
0F7800
077000
07F000
03E000
01C000
01C000
01C000
01C000
01C000
01C000
01C000
01C000
01C000
01C000
ENDCHAR
STARTCHAR 03A6
ENCODING 934
SWIDTH 730 0
DWIDTH 19 0
BBX 17 19 1 0
BITMAP
01C000
01C000
07F000
1FFC00
3DDE00
71C700
71C700
E1C380
E1C380
E1C380
E1C380
E1C380
71C700
71C700
3DDE00
1FFC00
07F000
01C000
01C000
ENDCHAR
STARTCHAR 03A7
ENCODING 935
SWIDTH 692 0
DWIDTH 18 0
BBX 16 19 1 0
BITMAP
780F
3C1E
1C1C
1E3C
0E78
0F70
07F0
03E0
03C0
03C0
03E0
07E0
0F70
0E78
1E38
3C3C
381C
780E
F00F
ENDCHAR
STARTCHAR 03A8
ENCODING 936
SWIDTH 730 0
DWIDTH 19 0
BBX 17 19 1 0
BITMAP
E1C380
E1C380
E1C380
E1C380
E1C380
E1C380
E1C380
E1C380
E1C380
71C700
71C700
39CE00
3DDE00
1FFC00
07F000
01C000
01C000
01C000
01C000
ENDCHAR
STARTCHAR 03A9
ENCODING 937
SWIDTH 730 0
DWIDTH 19 0
BBX 17 19 1 0
BITMAP
03E000
0FF800
3C1E00
380E00
700700
700700
E00380
E00380
E00380
E00380
E00380
E00380
700700
700700
380E00
3C1E00
1E3C00
FF7F80
FF7F80
ENDCHAR
STARTCHAR 03AA
ENCODING 938
SWIDTH 307 0
DWIDTH 8 0
BBX 7 24 0 0
BITMAP
EE
EE
EE
00
00
38
38
38
38
38
38
38
38
38
38
38
38
38
38
38
38
38
38
38
ENDCHAR
STARTCHAR 03AB
ENCODING 939
SWIDTH 615 0
DWIDTH 16 0
BBX 17 24 0 0
BITMAP
077000
077000
077000
000000
000000
F00780
780F00
380E00
3C1E00
1E3C00
0F7800
077000
07F000
03E000
01C000
01C000
01C000
01C000
01C000
01C000
01C000
01C000
01C000
01C000
ENDCHAR
STARTCHAR 03AC
ENCODING 940
SWIDTH 615 0
DWIDTH 16 0
BBX 14 21 1 0
BITMAP
00E0
01C0
0180
0300
0600
0000
0000
1F9C
3FF8
71F8
71F8
E0F0
E0F0
E0F0
E0E0
E0E0
E1F0
F1F0
73F0
3FFC
1F3C
ENDCHAR
STARTCHAR 03AD
ENCODING 941
SWIDTH 500 0
DWIDTH 13 0
BBX 11 21 1 0
BITMAP
00E0
01C0
0180
0300
0600
0000
0000
3F00
7FC0
F040
E000
F000
7E00
1E00
7000
E000
E000
E000
F040
7FC0
1F80
ENDCHAR
STARTCHAR 03AE
ENCODING 942
SWIDTH 615 0
DWIDTH 16 0
BBX 12 26 2 -5
BITMAP
0070
00E0
00C0
0180
0300
0000
0000
E7C0
EFE0
F8E0
F070
E070
E070
E070
E070
E070
E070
E070
E070
E070
E070
0070
0070
0070
0070
0070
ENDCHAR
STARTCHAR 03AF
ENCODING 943
SWIDTH 346 0
DWIDTH 9 0
BBX 7 21 2 0
BITMAP
0E
1C
18
30
60
00
00
E0
E0
E0
E0
E0
E0
E0
E0
E0
E0
E0
F0
7C
3C
ENDCHAR
STARTCHAR 03B0
ENCODING 944
SWIDTH 576 0
DWIDTH 15 0
BBX 12 26 2 0
BITMAP
0380
0700
0600
0C00
1800
0000
7380
7380
7380
0000
0000
0000
E1C0
E0E0
E060
E070
E070
E070
E070
E070
E070
E0E0
E0E0
71C0
7F80
1F00
ENDCHAR
STARTCHAR 03B1
ENCODING 945
SWIDTH 615 0
DWIDTH 16 0
BBX 14 14 1 0
BITMAP
1F9C
3FF8
71F8
71F8
E0F0
E0F0
E0F0
E0E0
E0E0
E1F0
F1F0
73F0
3FFC
1F3C
ENDCHAR
STARTCHAR 03B2
ENCODING 946
SWIDTH 576 0
DWIDTH 15 0
BBX 12 25 2 -5
BITMAP
1F00
7FC0
71C0
E0E0
E0E0
E0E0
E0E0
E1E0
E3C0
EF80
EFC0
E1E0
E070
E070
E070
E070
E070
F0E0
FFE0
EF80
E000
E000
E000
E000
E000
ENDCHAR
STARTCHAR 03B3
ENCODING 947
SWIDTH 538 0
DWIDTH 14 0
BBX 13 19 0 -5
BITMAP
C038
F070
7870
3870
38E0
1CE0
1DE0
1DC0
1DC0
0FC0
0F80
0F80
0780
0700
0700
0700
0700
0700
0700
ENDCHAR
STARTCHAR 03B4
ENCODING 948
SWIDTH 576 0
DWIDTH 15 0
BBX 13 20 1 0
BITMAP
1FC0
3FE0
7820
7000
7800
3F00
0FC0
39E0
7070
6078
E038
E038
E038
E038
E038
E038
7070
78F0
3FE0
0F80
ENDCHAR
STARTCHAR 03B5
ENCODING 949
SWIDTH 500 0
DWIDTH 13 0
BBX 10 14 1 0
BITMAP
3F00
7FC0
F040
E000
F000
7E00
1E00
7000
E000
E000
E000
F040
7FC0
1F80
ENDCHAR
STARTCHAR 03B6
ENCODING 950
SWIDTH 538 0
DWIDTH 14 0
BBX 12 25 1 -5
BITMAP
7FF0
7FF0
01E0
0780
0F00
1E00
3C00
3800
7000
7000
E000
E000
E000
E000
E000
E000
7000
7C00
3FC0
0FE0
0070
0070
0070
01E0
01C0
ENDCHAR
STARTCHAR 03B7
ENCODING 951
SWIDTH 615 0
DWIDTH 16 0
BBX 12 19 2 -5
BITMAP
E7C0
EFE0
F8E0
F070
E070
E070
E070
E070
E070
E070
E070
E070
E070
E070
0070
0070
0070
0070
0070
ENDCHAR
STARTCHAR 03B8
ENCODING 952
SWIDTH 576 0
DWIDTH 15 0
BBX 13 20 1 0
BITMAP
0F80
1FC0
38E0
7070
7070
E030
E038
E038
E038
FFF8
FFF8
E038
E038
E038
6030
7070
7070
38E0
1FC0
0F80
ENDCHAR
STARTCHAR 03B9
ENCODING 953
SWIDTH 346 0
DWIDTH 9 0
BBX 6 14 2 0
BITMAP
E0
E0
E0
E0
E0
E0
E0
E0
E0
E0
E0
F0
7C
3C
ENDCHAR
STARTCHAR 03BA
ENCODING 954
SWIDTH 576 0
DWIDTH 15 0
BBX 12 14 2 0
BITMAP
E3E0
E7C0
EF80
FF00
FE00
FC00
FC00
FE00
EF00
E780
E380
E3C0
E1E0
E0F0
ENDCHAR
STARTCHAR 03BB
ENCODING 955
SWIDTH 615 0
DWIDTH 16 0
BBX 14 20 1 0
BITMAP
3C00
3E00
0E00
0700
0700
0780
0380
0780
07C0
0FC0
0FC0
1EE0
1CE0
1CF0
3C70
3870
7878
7038
7038
E01C
ENDCHAR
STARTCHAR 03BC
ENCODING 956
SWIDTH 653 0
DWIDTH 17 0
BBX 14 19 2 -5
BITMAP
E070
E070
E070
E070
E070
E070
E070
E070
E070
E070
E070
F0F0
FFFC
EF3C
E000
E000
E000
E000
E000
ENDCHAR
STARTCHAR 03BD
ENCODING 957
SWIDTH 538 0
DWIDTH 14 0
BBX 12 14 1 0
BITMAP
E1C0
F0E0
70E0
7070
7070
3870
3870
38F0
3CE0
1DC0
1DC0
1D80
0F00
0E00
ENDCHAR
STARTCHAR 03BE
ENCODING 958
SWIDTH 538 0
DWIDTH 14 0
BBX 12 25 1 -5
BITMAP
7FE0
7FE0
1E00
3800
7000
7000
7000
3C00
1FC0
1FC0
3C00
7000
E000
E000
E000
E000
F000
7800
3FC0
0FE0
0070
0070
0070
01E0
01C0
ENDCHAR
STARTCHAR 03BF
ENCODING 959
SWIDTH 615 0
DWIDTH 16 0
BBX 13 14 1 0
BITMAP
0F80
3FE0
78F0
7070
E038
E038
E038
E038
E038
E038
7070
78F0
3FE0
0F80
ENDCHAR
STARTCHAR 03C0
ENCODING 960
SWIDTH 615 0
DWIDTH 16 0
BBX 14 14 1 0
BITMAP
FFFC
FFFC
3870
3870
3870
3870
3870
3870
3870
3870
3870
3870
387C
383C
ENDCHAR
STARTCHAR 03C1
ENCODING 961
SWIDTH 615 0
DWIDTH 16 0
BBX 13 19 2 -5
BITMAP
0F80
3FE0
78F0
7070
E038
E038
E038
E038
E038
E038
F070
F8F0
EFE0
E7C0
E000
E000
E000
E000
E000
ENDCHAR
STARTCHAR 03C2
ENCODING 962
SWIDTH 576 0
DWIDTH 15 0
BBX 11 19 1 -5
BITMAP
0FC0
3FE0
7820
7000
E000
E000
E000
E000
E000
E000
7000
7800
3F80
0FC0
00E0
00E0
00E0
03C0
0380
ENDCHAR
STARTCHAR 03C3
ENCODING 963
SWIDTH 615 0
DWIDTH 16 0
BBX 14 14 1 0
BITMAP
1FFC
3FFC
78F0
7070
E038
E038
E038
E038
E038
E038
7070
78F0
3FE0
0F80
ENDCHAR
STARTCHAR 03C4
ENCODING 964
SWIDTH 653 0
DWIDTH 17 0
BBX 13 14 2 0
BITMAP
FFF8
FFF8
0700
0700
0700
0700
0700
0700
0700
0700
0700
0780
03E0
01E0
ENDCHAR
STARTCHAR 03C5
ENCODING 965
SWIDTH 576 0
DWIDTH 15 0
BBX 12 14 2 0
BITMAP
E1C0
E0E0
E060
E070
E070
E070
E070
E070
E070
E0E0
E0E0
71C0
7F80
1F00
ENDCHAR
STARTCHAR 03C6
ENCODING 966
SWIDTH 653 0
DWIDTH 17 0
BBX 15 19 1 -5
BITMAP
19E0
3BF8
739C
739C
E38E
E38E
E38E
E38E
E38E
E38E
739C
7BBC
3FF8
0FE0
0380
0380
0380
0380
0380
ENDCHAR
STARTCHAR 03C7
ENCODING 967
SWIDTH 615 0
DWIDTH 16 0
BBX 14 19 1 -5
BITMAP
F03C
FC38
3C78
1C70
0EF0
0FE0
0FC0
07C0
0780
0780
0780
0F80
0FC0
1FC0
3DC0
38E0
78E0
70FC
F03C
ENDCHAR
STARTCHAR 03C8
ENCODING 968
SWIDTH 692 0
DWIDTH 18 0
BBX 15 19 1 -5
BITMAP
E38E
E38E
E38E
E38E
E38E
E38E
E38E
E38E
E38E
E38E
F39E
7BBC
3FF8
0FE0
0380
0380
0380
0380
0380
ENDCHAR
STARTCHAR 03C9
ENCODING 969
SWIDTH 730 0
DWIDTH 19 0
BBX 17 14 1 0
BITMAP
380E00
700700
700700
700700
E00380
E00380
E1C380
E1C380
E1C380
E1C380
E14380
736700
7F7F00
1E3C00
ENDCHAR
STARTCHAR 03CA
ENCODING 970
SWIDTH 346 0
DWIDTH 9 0
BBX 8 20 0 0
BITMAP
E7
E7
E7
00
00
00
38
38
38
38
38
38
38
38
38
38
38
3C
1F
0F
ENDCHAR
STARTCHAR 03CB
ENCODING 971
SWIDTH 576 0
DWIDTH 15 0
BBX 12 20 2 0
BITMAP
7380
7380
7380
0000
0000
0000
E1C0
E0E0
E060
E070
E070
E070
E070
E070
E070
E0E0
E0E0
71C0
7F80
1F00
ENDCHAR
STARTCHAR 03CC
ENCODING 972
SWIDTH 615 0
DWIDTH 16 0
BBX 13 21 1 0
BITMAP
0070
00E0
00C0
0180
0300
0000
0000
0F80
3FE0
78F0
7070
E038
E038
E038
E038
E038
E038
7070
78F0
3FE0
0F80
ENDCHAR
STARTCHAR 03CD
ENCODING 973
SWIDTH 576 0
DWIDTH 15 0
BBX 12 21 2 0
BITMAP
0380
0700
0600
0C00
1800
0000
0000
E1C0
E0E0
E060
E070
E070
E070
E070
E070
E070
E0E0
E0E0
71C0
7F80
1F00
ENDCHAR
STARTCHAR 03CE
ENCODING 974
SWIDTH 730 0
DWIDTH 19 0
BBX 17 21 1 0
BITMAP
001C00
003800
003000
006000
00C000
000000
000000
380E00
700700
700700
700700
E00380
E00380
E1C380
E1C380
E1C380
E1C380
E14380
736700
7F7F00
1E3C00
ENDCHAR
STARTCHAR 03CF
ENCODING 975
SWIDTH 653 0
DWIDTH 17 0
BBX 14 24 3 -6
BITMAP
C038
C070
C0E0
C1C0
C380
C700
CE00
DC00
F800
F800
DC00
CE00
C700
C380
C1C0
C0E0
C070
C038
C01C
000C
0018
0030
0030
0060
ENDCHAR
STARTCHAR 03D0
ENCODING 976
SWIDTH 576 0
DWIDTH 15 0
BBX 12 20 2 1
BITMAP
0F00
3FC0
39C0
70E0
70E0
E0E0
E0E0
E1E0
E3C0
FF80
FFC0
E1E0
E0E0
E070
E070
6070
7070
38E0
3FC0
0F80
ENDCHAR
STARTCHAR 03D1
ENCODING 977
SWIDTH 576 0
DWIDTH 15 0
BBX 13 20 1 0
BITMAP
0780
1FE0
1CE0
3870
3830
3838
3838
3C38
1E38
EFF8
E7F8
E038
E038
E038
6030
7070
7070
38E0
1FC0
0F80
ENDCHAR
STARTCHAR 03D2
ENCODING 978
SWIDTH 730 0
DWIDTH 19 0
BBX 17 19 1 0
BITMAP
F00700
FC1F80
1E3B80
077180
077000
036000
03E000
01C000
01C000
01C000
01C000
01C000
01C000
01C000
01C000
01C000
01C000
01C000
01C000
ENDCHAR
STARTCHAR 03D3
ENCODING 979
SWIDTH 846 0
DWIDTH 22 0
BBX 22 21 0 0
BITMAP
1C0000
380000
378038
67E0FC
C0F1DC
003B8C
003B80
001B00
001F00
000E00
000E00
000E00
000E00
000E00
000E00
000E00
000E00
000E00
000E00
000E00
000E00
ENDCHAR
STARTCHAR 03D4
ENCODING 980
SWIDTH 730 0
DWIDTH 19 0
BBX 17 24 1 0
BITMAP
073800
073800
073800
000000
000000
F00700
FC1F80
1E3B80
077180
077000
036000
03E000
01C000
01C000
01C000
01C000
01C000
01C000
01C000
01C000
01C000
01C000
01C000
01C000
ENDCHAR
STARTCHAR 03D5
ENCODING 981
SWIDTH 692 0
DWIDTH 18 0
BBX 15 25 1 -5
BITMAP
0380
0380
0380
0380
0380
0380
0FE0
3FF8
7BBC
739C
E38E
E38E
E38E
E38E
E38E
E38E
739C
7BBC
3FF8
0FE0
0380
0380
0380
0380
0380
ENDCHAR
STARTCHAR 03D6
ENCODING 982
SWIDTH 730 0
DWIDTH 19 0
BBX 19 14 0 0
BITMAP
FFFFE0
FFFFE0
300180
7001C0
7001C0
7001C0
70E1C0
70E1C0
70E1C0
70E1C0
70A1C0
39B380
3FBF80
0F1E00
ENDCHAR
STARTCHAR 03D7
ENCODING 983
SWIDTH 653 0
DWIDTH 17 0
BBX 15 19 1 -5
BITMAP
780E
7C1C
0E3C
0638
0670
06E0
07E0
0FC0
1EC0
3CC0
38C0
7864
F07C
E03C
000C
001C
0018
01F8
01F0
ENDCHAR
STARTCHAR 03D8
ENCODING 984
SWIDTH 807 0
DWIDTH 21 0
BBX 19 24 1 -5
BITMAP
03F800
0FFE00
1E0F00
380380
7001C0
7001C0
E000E0
E000E0
E000E0
E000E0
E000E0
E000E0
E000E0
7001C0
7001C0
380380
1E0F00
0FFE00
03F800
00E000
00E000
00E000
00E000
00E000
ENDCHAR
STARTCHAR 03D9
ENCODING 985
SWIDTH 615 0
DWIDTH 16 0
BBX 14 19 1 -5
BITMAP
0FC0
3FF0
7878
7038
E01C
E01C
E01C
E01C
E01C
E01C
7038
7878
3FF0
0FE0
0380
0380
0380
0380
0380
ENDCHAR
STARTCHAR 03DA
ENCODING 986
SWIDTH 692 0
DWIDTH 18 0
BBX 13 24 2 -5
BITMAP
07F8
1FF8
3C00
7000
7000
6000
E000
E000
E000
E000
E000
E000
E000
E000
7000
7000
3C00
1FC0
07E0
0070
0070
0070
01E0
01C0
ENDCHAR
STARTCHAR 03DB
ENCODING 987
SWIDTH 576 0
DWIDTH 15 0
BBX 13 19 1 -5
BITMAP
0FF8
3FF8
7800
7000
E000
E000
E000
E000
E000
E000
7000
7800
3F00
1F80
01C0
01C0
01C0
0780
0700
ENDCHAR
STARTCHAR 03DC
ENCODING 988
SWIDTH 576 0
DWIDTH 15 0
BBX 11 19 2 0
BITMAP
FFE0
FFE0
E000
E000
E000
E000
E000
E000
FFC0
FFC0
E000
E000
E000
E000
E000
E000
E000
E000
E000
ENDCHAR
STARTCHAR 03DD
ENCODING 989
SWIDTH 461 0
DWIDTH 12 0
BBX 13 25 -2 -5
BITMAP
00F8
01F8
0380
0700
0700
0700
0700
0700
0700
07F0
07F0
0700
0700
0700
0700
0700
0700
0700
0700
0700
0700
0F00
8E00
FC00
7800
ENDCHAR
STARTCHAR 03DE
ENCODING 990
SWIDTH 653 0
DWIDTH 17 0
BBX 13 19 2 -1
BITMAP
E000
F800
3800
1800
1800
1808
3838
30F8
33F8
7FB0
7E30
7870
4060
0060
00E0
00C0
00E0
0078
0038
ENDCHAR
STARTCHAR 03DF
ENCODING 991
SWIDTH 653 0
DWIDTH 17 0
BBX 12 20 2 0
BITMAP
1C00
1C00
1C00
3C00
3800
3800
7800
7000
7000
FFF0
FFF0
00E0
00E0
01E0
01C0
01C0
03C0
0380
0380
0380
ENDCHAR
STARTCHAR 03E0
ENCODING 992
SWIDTH 884 0
DWIDTH 23 0
BBX 20 24 1 -5
BITMAP
1FF800
7FFE00
FE0F00
CE0780
8E01C0
0E03C0
0E07E0
0E0EE0
0E1C60
0E1860
003860
003870
003870
003870
003870
003870
003870
003860
003860
0000E0
0000E0
0000C0
0001C0
000380
ENDCHAR
STARTCHAR 03E1
ENCODING 993
SWIDTH 615 0
DWIDTH 16 0
BBX 13 19 2 -4
BITMAP
F000
F800
1E00
0700
0300
0380
07C0
06C0
0CE0
19E0
39F0
7330
6630
CE30
0038
0018
0018
0018
0018
ENDCHAR
STARTCHAR 03E2
ENCODING 994
SWIDTH 884 0
DWIDTH 23 0
BBX 21 25 1 -6
BITMAP
1C01C0
3800E0
3800E0
700070
700070
700070
E00038
E00038
E07038
E07038
E07038
E07038
E07038
E07038
605038
70D870
79DCF0
3F8FF0
1F07E0
0003C0
000F80
001F00
007E00
01F800
00C000
ENDCHAR
STARTCHAR 03E3
ENCODING 995
SWIDTH 730 0
DWIDTH 19 0
BBX 17 19 1 -5
BITMAP
380E00
700700
700700
700700
E00380
E00380
E1C380
E1C380
E1C380
E1C380
E1C300
736700
7F7F00
1E3E00
001C00
003800
00F000
07C000
060000
ENDCHAR
STARTCHAR 03E4
ENCODING 996
SWIDTH 769 0
DWIDTH 20 0
BBX 16 24 1 -5
BITMAP
0707
1F07
3C07
3807
7007
7007
E007
E007
E007
E007
E007
E007
E007
700F
700F
781F
3C3F
1FF7
07C7
0007
0007
0007
0007
0007
ENDCHAR
STARTCHAR 03E5
ENCODING 997
SWIDTH 653 0
DWIDTH 17 0
BBX 14 19 1 -5
BITMAP
0E1C
3E1C
381C
701C
F01C
E01C
E01C
E01C
E01C
E01C
703C
787C
3FDC
0F9C
001C
001C
001C
001C
001C
ENDCHAR
STARTCHAR 03E6
ENCODING 998
SWIDTH 769 0
DWIDTH 20 0
BBX 17 24 2 -5
BITMAP
E00000
E00000
E00000
E00000
E00000
E3F000
EFFC00
EC1E00
F80F00
F00700
E00380
E00380
E00380
E00380
E00380
E00380
E00700
E00F00
E01E00
003C00
00F800
07F000
1FC000
0C0000
ENDCHAR
STARTCHAR 03E7
ENCODING 999
SWIDTH 615 0
DWIDTH 16 0
BBX 14 15 1 -1
BITMAP
0208
1FDC
3FF8
70F8
6070
60F8
7FD8
3F98
0018
001C
0018
0018
3038
FFF0
DFE0
ENDCHAR
STARTCHAR 03E8
ENCODING 1000
SWIDTH 692 0
DWIDTH 18 0
BBX 15 24 1 -5
BITMAP
0FF0
1FF8
3C3C
781E
700E
000E
000E
000E
000E
001E
001C
0038
0070
01E0
03C0
0780
0F00
3C00
7800
F000
7802
3C0E
1FFC
07F8
ENDCHAR
STARTCHAR 03E9
ENCODING 1001
SWIDTH 615 0
DWIDTH 16 0
BBX 13 20 1 -6
BITMAP
0200
1FE0
3FF0
7038
7018
0018
0018
0018
0038
0070
00E0
01C0
0780
0E00
3C00
F000
7000
3808
1FF8
0FE0
ENDCHAR
STARTCHAR 03EA
ENCODING 1002
SWIDTH 769 0
DWIDTH 20 0
BBX 18 19 1 1
BITMAP
7803C0
7807C0
1C0E00
0E1C00
061800
073800
03F000
01E000
01E000
01E000
01E000
03F000
073800
061800
0E1C00
1C0E00
380700
FFFF80
FFFF80
ENDCHAR
STARTCHAR 03EB
ENCODING 1003
SWIDTH 615 0
DWIDTH 16 0
BBX 15 15 1 0
BITMAP
4004
F03E
3878
1C70
0EE0
07C0
0780
0380
0780
0EC0
1CE0
1870
3830
FFFE
FFFE
ENDCHAR
STARTCHAR 03EC
ENCODING 1004
SWIDTH 692 0
DWIDTH 18 0
BBX 16 20 1 -1
BITMAP
0001
07FF
1FFF
3C00
3800
7080
77F8
7FFC
781E
700E
E006
E007
E007
6007
6007
600E
700E
381C
1FFC
0FF0
ENDCHAR
STARTCHAR 03ED
ENCODING 1005
SWIDTH 615 0
DWIDTH 16 0
BBX 13 20 1 -1
BITMAP
0010
0FF0
1FF0
3800
7000
6100
6FE0
7DF0
7070
E038
E038
E018
E018
E018
6018
6038
6038
7070
3FE0
1FC0
ENDCHAR
STARTCHAR 03EE
ENCODING 1006
SWIDTH 615 0
DWIDTH 16 0
BBX 15 24 1 -5
BITMAP
0380
0380
0380
0380
0380
FFFE
FFFE
E38E
0380
0380
0380
0380
0380
0380
0380
0380
0380
0380
0380
0380
0380
0380
0380
0380
ENDCHAR
STARTCHAR 03EF
ENCODING 1007
SWIDTH 538 0
DWIDTH 14 0
BBX 13 24 1 -5
BITMAP
0700
0700
0700
0700
0700
FFF8
FFF8
E738
0700
0700
0700
0700
0700
0700
0700
0700
0700
0700
0700
0700
0700
0700
0700
0700
ENDCHAR
STARTCHAR 03F0
ENCODING 1008
SWIDTH 653 0
DWIDTH 17 0
BBX 15 14 1 0
BITMAP
780E
7C1C
0E3C
0638
0670
06E0
07E0
0FC0
1EC0
3CC0
38C0
78E4
F07C
E03C
ENDCHAR
STARTCHAR 03F1
ENCODING 1009
SWIDTH 615 0
DWIDTH 16 0
BBX 13 19 2 -5
BITMAP
0F80
3FE0
78F0
7070
E038
E038
E038
E038
E038
E038
F070
F8F0
EFE0
E7C0
6000
7000
7800
3FF8
0FF8
ENDCHAR
STARTCHAR 03F2
ENCODING 1010
SWIDTH 538 0
DWIDTH 14 0
BBX 11 14 1 0
BITMAP
0FC0
3FE0
7820
7000
E000
E000
E000
E000
E000
E000
7000
7820
3FE0
0FC0
ENDCHAR
STARTCHAR 03F3
ENCODING 1011
SWIDTH 269 0
DWIDTH 7 0
BBX 6 25 -1 -5
BITMAP
1C
1C
1C
00
00
00
1C
1C
1C
1C
1C
1C
1C
1C
1C
1C
1C
1C
1C
1C
1C
1C
3C
F8
F0
ENDCHAR
STARTCHAR 03F4
ENCODING 1012
SWIDTH 769 0
DWIDTH 20 0
BBX 18 19 1 0
BITMAP
03F000
0FFC00
1E1E00
380700
700380
700380
E001C0
E001C0
FFFFC0
FFFFC0
E001C0
E001C0
E001C0
700380
700380
380700
1E0E00
0FFC00
03F000
ENDCHAR
STARTCHAR 03F5
ENCODING 1013
SWIDTH 615 0
DWIDTH 16 0
BBX 12 15 1 -1
BITMAP
0100
0FF0
3E70
3800
7000
6000
6000
FFF0
FFF0
6000
6000
7000
3800
1FF0
0FF0
ENDCHAR
STARTCHAR 03F6
ENCODING 1014
SWIDTH 615 0
DWIDTH 16 0
BBX 12 15 2 -1
BITMAP
0800
FF00
E7C0
01C0
00E0
0060
0060
FFF0
FFF0
0060
0060
00E0
01C0
FF80
FF00
ENDCHAR
STARTCHAR 03F7
ENCODING 1015
SWIDTH 615 0
DWIDTH 16 0
BBX 12 19 2 0
BITMAP
E000
E000
E000
FF80
FFE0
E0E0
E070
E070
E070
E070
E070
E0E0
FFE0
FF80
E000
E000
E000
E000
E000
ENDCHAR
STARTCHAR 03F8
ENCODING 1016
SWIDTH 653 0
DWIDTH 17 0
BBX 13 25 2 -5
BITMAP
E000
E000
E000
E000
E000
E000
E7C0
EFE0
F8F0
F070
E038
E038
E038
E038
E038
E038
F070
F8F0
EFE0
E7C0
E000
E000
E000
E000
E000
ENDCHAR
STARTCHAR 03F9
ENCODING 1017
SWIDTH 692 0
DWIDTH 18 0
BBX 15 19 1 0
BITMAP
03F0
0FFC
3E0E
3806
7000
7000
E000
E000
E000
E000
E000
E000
E000
7000
7000
3806
3E0E
0FFC
03F0
ENDCHAR
STARTCHAR 03FA
ENCODING 1018
SWIDTH 846 0
DWIDTH 22 0
BBX 17 19 2 0
BITMAP
F80F80
FC1F80
FE3F80
EE3B80
EF7B80
E7F380
E3E380
E3E380
E1C380
E00380
E00380
E00380
E00380
E00380
E00380
E00380
E00380
E00380
E00380
ENDCHAR
STARTCHAR 03FB
ENCODING 1019
SWIDTH 692 0
DWIDTH 18 0
BBX 14 19 2 -5
BITMAP
FCFC
FCFC
FFFC
EFDC
E79C
E79C
E31C
E01C
E01C
E01C
E01C
E01C
E01C
E01C
E000
E000
E000
E000
E000
ENDCHAR
STARTCHAR 03FC
ENCODING 1020
SWIDTH 653 0
DWIDTH 17 0
BBX 14 20 1 -6
BITMAP
0080
0FE0
1EF0
3838
301C
301C
700C
700C
700C
700C
701C
7018
7838
7FF0
77E0
7000
7000
FFC0
FFC0
7000
ENDCHAR
STARTCHAR 03FD
ENCODING 1021
SWIDTH 653 0
DWIDTH 17 0
BBX 15 19 1 0
BITMAP
1F80
7FE0
E0F8
8038
001C
001C
000E
000E
000E
000E
000E
000E
000E
001C
001C
8038
E0F8
7FE0
1F80
ENDCHAR
STARTCHAR 03FE
ENCODING 1022
SWIDTH 692 0
DWIDTH 18 0
BBX 15 19 1 0
BITMAP
03F0
0FFC
3E0E
3806
7000
7000
E000
E000
E070
E070
E070
E000
E000
7000
7000
3806
3E0E
0FFC
03F0
ENDCHAR
STARTCHAR 03FF
ENCODING 1023
SWIDTH 653 0
DWIDTH 17 0
BBX 15 19 1 0
BITMAP
1F80
7FE0
E0F8
8038
001C
001C
000E
000E
070E
070E
070E
000E
000E
001C
001C
8038
E0F8
7FE0
1F80
ENDCHAR
STARTCHAR 0400
ENCODING 1024
SWIDTH 615 0
DWIDTH 16 0
BBX 12 24 2 0
BITMAP
0E00
0700
0300
0000
0000
FFF0
FFF0
E000
E000
E000
E000
E000
E000
FFE0
FFE0
E000
E000
E000
E000
E000
E000
E000
FFF0
FFF0
ENDCHAR
STARTCHAR 0401
ENCODING 1025
SWIDTH 615 0
DWIDTH 16 0
BBX 12 24 2 0
BITMAP
39C0
39C0
39C0
0000
0000
FFF0
FFF0
E000
E000
E000
E000
E000
E000
FFE0
FFE0
E000
E000
E000
E000
E000
E000
E000
FFF0
FFF0
ENDCHAR
STARTCHAR 0402
ENCODING 1026
SWIDTH 769 0
DWIDTH 20 0
BBX 18 24 0 -5
BITMAP
FFFE00
FFFE00
070000
070000
070000
070000
070000
070000
07FE00
07FF80
070380
0701C0
0701C0
0701C0
0701C0
0701C0
0701C0
0701C0
0701C0
0001C0
0001C0
000380
001F80
001E00
ENDCHAR
STARTCHAR 0403
ENCODING 1027
SWIDTH 615 0
DWIDTH 16 0
BBX 12 24 2 0
BITMAP
0180
0300
0600
0000
0000
FFF0
FFF0
E000
E000
E000
E000
E000
E000
E000
E000
E000
E000
E000
E000
E000
E000
E000
E000
E000
ENDCHAR
STARTCHAR 0404
ENCODING 1028
SWIDTH 653 0
DWIDTH 17 0
BBX 15 19 1 0
BITMAP
03F0
0FFC
3C0E
3806
7000
7000
E000
E000
FFF8
FFF8
E000
E000
E000
7000
7000
3806
3C0E
0FFC
03F0
ENDCHAR
STARTCHAR 0405
ENCODING 1029
SWIDTH 653 0
DWIDTH 17 0
BBX 13 19 2 0
BITMAP
1FC0
3FF0
7870
E010
E000
E000
F000
FE00
7FC0
1FF0
03F0
0078
0038
0038
0038
8038
E0F0
FFE0
3F80
ENDCHAR
STARTCHAR 0406
ENCODING 1030
SWIDTH 307 0
DWIDTH 8 0
BBX 3 19 2 0
BITMAP
E0
E0
E0
E0
E0
E0
E0
E0
E0
E0
E0
E0
E0
E0
E0
E0
E0
E0
E0
ENDCHAR
STARTCHAR 0407
ENCODING 1031
SWIDTH 307 0
DWIDTH 8 0
BBX 7 24 0 0
BITMAP
EE
EE
EE
00
00
38
38
38
38
38
38
38
38
38
38
38
38
38
38
38
38
38
38
38
ENDCHAR
STARTCHAR 0408
ENCODING 1032
SWIDTH 307 0
DWIDTH 8 0
BBX 7 24 -2 -5
BITMAP
0E
0E
0E
0E
0E
0E
0E
0E
0E
0E
0E
0E
0E
0E
0E
0E
0E
0E
0E
0E
0E
1C
FC
F0
ENDCHAR
STARTCHAR 0409
ENCODING 1033
SWIDTH 1076 0
DWIDTH 28 0
BBX 26 19 1 0
BITMAP
07FF0000
07FF0000
07070000
07070000
07070000
07070000
07070000
07070000
0707FC00
0707FF00
07070780
0F0703C0
0E0701C0
0E0701C0
0E0701C0
1C0701C0
7C070780
F007FF00
C007FC00
ENDCHAR
STARTCHAR 040A
ENCODING 1034
SWIDTH 1038 0
DWIDTH 27 0
BBX 23 19 2 0
BITMAP
E03800
E03800
E03800
E03800
E03800
E03800
E03800
E03800
FFFFE0
FFFFF8
E0383C
E0380E
E0380E
E0380E
E0380E
E0381E
E0383C
E03FF8
E03FE0
ENDCHAR
STARTCHAR 040B
ENCODING 1035
SWIDTH 769 0
DWIDTH 20 0
BBX 18 19 0 0
BITMAP
FFFE00
FFFE00
070000
070000
070000
070000
070000
070000
07FE00
07FF80
070380
0701C0
0701C0
0701C0
0701C0
0701C0
0701C0
0701C0
0701C0
ENDCHAR
STARTCHAR 040C
ENCODING 1036
SWIDTH 692 0
DWIDTH 18 0
BBX 15 24 2 0
BITMAP
00C0
0180
0300
0000
0000
E03E
E07C
E078
E0F0
E1E0
E3C0
E780
EF00
FF80
FF80
FBC0
F1C0
E0E0
E0F0
E070
E078
E038
E01C
E01E
ENDCHAR
STARTCHAR 040D
ENCODING 1037
SWIDTH 730 0
DWIDTH 19 0
BBX 14 24 2 0
BITMAP
0E00
0700
0300
0000
0000
E03C
E07C
E07C
E0FC
E0FC
E1FC
E1DC
E3DC
E39C
E79C
E71C
EF1C
EE1C
FE1C
FC1C
FC1C
F81C
F81C
F01C
ENDCHAR
STARTCHAR 040E
ENCODING 1038
SWIDTH 576 0
DWIDTH 15 0
BBX 15 24 0 0
BITMAP
0C30
0FF0
03C0
0000
0000
E00E
701C
701C
783C
3838
3C78
1C70
1C70
0EE0
0EE0
0FE0
07C0
07C0
0380
0380
0300
0700
3E00
3C00
ENDCHAR
STARTCHAR 040F
ENCODING 1039
SWIDTH 692 0
DWIDTH 18 0
BBX 14 23 2 -4
BITMAP
E01C
E01C
E01C
E01C
E01C
E01C
E01C
E01C
E01C
E01C
E01C
E01C
E01C
E01C
E01C
E01C
E01C
FFFC
FFFC
0300
0300
0300
0300
ENDCHAR
STARTCHAR 0410
ENCODING 1040
SWIDTH 692 0
DWIDTH 18 0
BBX 17 19 0 0
BITMAP
01C000
01C000
03E000
03E000
07F000
077000
077000
0F3800
0E3800
0E3800
1C1C00
1C1C00
3FFE00
3FFE00
380E00
780F00
700700
700700
E00380
ENDCHAR
STARTCHAR 0411
ENCODING 1041
SWIDTH 653 0
DWIDTH 17 0
BBX 13 19 2 0
BITMAP
FFF0
FFF0
E000
E000
E000
E000
E000
E000
FFC0
FFF0
E070
E038
E038
E038
E038
E038
E070
FFF0
FFC0
ENDCHAR
STARTCHAR 0412
ENCODING 1042
SWIDTH 692 0
DWIDTH 18 0
BBX 13 19 2 0
BITMAP
FF80
FFE0
E0E0
E070
E070
E070
E070
E0E0
FFC0
FFC0
E070
E030
E038
E038
E038
E038
E070
FFE0
FFC0
ENDCHAR
STARTCHAR 0413
ENCODING 1043
SWIDTH 615 0
DWIDTH 16 0
BBX 12 19 2 0
BITMAP
FFF0
FFF0
E000
E000
E000
E000
E000
E000
E000
E000
E000
E000
E000
E000
E000
E000
E000
E000
E000
ENDCHAR
STARTCHAR 0414
ENCODING 1044
SWIDTH 769 0
DWIDTH 20 0
BBX 18 23 1 -4
BITMAP
0FFF00
0FFF00
0E0700
0E0700
0E0700
0E0700
0E0700
0E0700
0E0700
0E0700
0E0700
1E0700
1C0700
1C0700
1C0700
3C0700
380700
FFFFC0
FFFFC0
C000C0
C000C0
C000C0
C000C0
ENDCHAR
STARTCHAR 0415
ENCODING 1045
SWIDTH 615 0
DWIDTH 16 0
BBX 12 19 2 0
BITMAP
FFF0
FFF0
E000
E000
E000
E000
E000
E000
FFE0
FFE0
E000
E000
E000
E000
E000
E000
E000
FFF0
FFF0
ENDCHAR
STARTCHAR 0416
ENCODING 1046
SWIDTH 1076 0
DWIDTH 28 0
BBX 27 19 1 0
BITMAP
F80E03E0
7C0E07C0
3C0E0780
1E0E0F00
0F0E1E00
078E3C00
03CE7800
01EEF000
03FFF800
03FFF800
07BFBC00
071F1C00
0F0E1E00
1E0E0F00
1C0E0700
3C0E0780
380E0380
700E01C0
F00E01E0
ENDCHAR
STARTCHAR 0417
ENCODING 1047
SWIDTH 653 0
DWIDTH 17 0
BBX 13 19 2 0
BITMAP
1F80
7FE0
E070
C038
8038
0038
0078
1FF0
1FC0
00E0
0070
0038
0038
0038
0038
8078
E0F0
7FE0
1F80
ENDCHAR
STARTCHAR 0418
ENCODING 1048
SWIDTH 730 0
DWIDTH 19 0
BBX 14 19 2 0
BITMAP
E03C
E07C
E07C
E0FC
E0FC
E1FC
E1DC
E3DC
E39C
E79C
E71C
EF1C
EE1C
FE1C
FC1C
FC1C
F81C
F81C
F01C
ENDCHAR
STARTCHAR 0419
ENCODING 1049
SWIDTH 730 0
DWIDTH 19 0
BBX 14 24 2 0
BITMAP
1860
1FE0
0780
0000
0000
E03C
E07C
E07C
E0FC
E0FC
E1FC
E1DC
E3DC
E39C
E79C
E71C
EF1C
EE1C
FE1C
FC1C
FC1C
F81C
F81C
F01C
ENDCHAR
STARTCHAR 041A
ENCODING 1050
SWIDTH 692 0
DWIDTH 18 0
BBX 15 19 2 0
BITMAP
E03E
E07C
E078
E0F0
E1E0
E3C0
E780
EF00
FF80
FF80
FBC0
F1C0
E0E0
E0F0
E070
E078
E038
E01C
E01E
ENDCHAR
STARTCHAR 041B
ENCODING 1051
SWIDTH 730 0
DWIDTH 19 0
BBX 16 19 1 0
BITMAP
07FF
07FF
0707
0707
0707
0707
0707
0707
0707
0707
0707
0F07
0E07
0E07
0E07
1C07
3C07
F007
C007
ENDCHAR
STARTCHAR 041C
ENCODING 1052
SWIDTH 846 0
DWIDTH 22 0
BBX 17 19 2 0
BITMAP
FC1F80
FC1F80
FC1F80
FE3F80
EE3B80
EE3B80
EF7B80
E77380
E77380
E7F380
E3E380
E3E380
E1E380
E1C380
E1C380
E00380
E00380
E00380
E00380
ENDCHAR
STARTCHAR 041D
ENCODING 1053
SWIDTH 769 0
DWIDTH 20 0
BBX 14 19 2 0
BITMAP
E01C
E01C
E01C
E01C
E01C
E01C
E01C
E01C
FFFC
FFFC
E01C
E01C
E01C
E01C
E01C
E01C
E01C
E01C
E01C
ENDCHAR
STARTCHAR 041E
ENCODING 1054
SWIDTH 769 0
DWIDTH 20 0
BBX 18 19 1 0
BITMAP
03F000
0FFC00
1E1E00
380700
700380
700380
E001C0
E001C0
E001C0
E001C0
E001C0
E001C0
E001C0
700380
700380
380700
1E1E00
0FFC00
03F000
ENDCHAR
STARTCHAR 041F
ENCODING 1055
SWIDTH 692 0
DWIDTH 18 0
BBX 14 19 2 0
BITMAP
FFFC
FFFC
E01C
E01C
E01C
E01C
E01C
E01C
E01C
E01C
E01C
E01C
E01C
E01C
E01C
E01C
E01C
E01C
E01C
ENDCHAR
STARTCHAR 0420
ENCODING 1056
SWIDTH 615 0
DWIDTH 16 0
BBX 12 19 2 0
BITMAP
FF80
FFE0
E0E0
E070
E070
E070
E070
E070
E0E0
FFE0
FF80
E000
E000
E000
E000
E000
E000
E000
E000
ENDCHAR
STARTCHAR 0421
ENCODING 1057
SWIDTH 692 0
DWIDTH 18 0
BBX 15 19 1 0
BITMAP
03F0
0FFC
3E0E
3806
7000
7000
E000
E000
E000
E000
E000
E000
E000
7000
7000
3806
3E0E
0FFC
03F0
ENDCHAR
STARTCHAR 0422
ENCODING 1058
SWIDTH 615 0
DWIDTH 16 0
BBX 17 19 0 0
BITMAP
FFFF80
FFFF80
01C000
01C000
01C000
01C000
01C000
01C000
01C000
01C000
01C000
01C000
01C000
01C000
01C000
01C000
01C000
01C000
01C000
ENDCHAR
STARTCHAR 0423
ENCODING 1059
SWIDTH 576 0
DWIDTH 15 0
BBX 15 19 0 0
BITMAP
E00E
701C
701C
783C
3838
3C78
1C70
1C70
0EE0
0EE0
0FE0
07C0
07C0
0380
0380
0300
0700
3E00
3C00
ENDCHAR
STARTCHAR 0424
ENCODING 1060
SWIDTH 807 0
DWIDTH 21 0
BBX 19 19 1 0
BITMAP
00E000
00E000
07FC00
1FFF00
3CE780
70E1C0
70E1C0
E0E0E0
E0E0E0
E0E0E0
E0E0E0
E0E0E0
F0E1C0
70E1C0
38E380
1FFF00
07FC00
00E000
00E000
ENDCHAR
STARTCHAR 0425
ENCODING 1061
SWIDTH 692 0
DWIDTH 18 0
BBX 16 19 1 0
BITMAP
780F
3C1E
1C1C
1E3C
0E78
0F70
07F0
03E0
03C0
03C0
03E0
07E0
0F70
0E78
1E38
3C3C
381C
780E
F00F
ENDCHAR
STARTCHAR 0426
ENCODING 1062
SWIDTH 730 0
DWIDTH 19 0
BBX 16 23 2 -4
BITMAP
E01C
E01C
E01C
E01C
E01C
E01C
E01C
E01C
E01C
E01C
E01C
E01C
E01C
E01C
E01C
E01C
E01C
FFFF
FFFF
0003
0003
0003
0003
ENDCHAR
STARTCHAR 0427
ENCODING 1063
SWIDTH 653 0
DWIDTH 17 0
BBX 13 19 2 0
BITMAP
E038
E038
E038
E038
E038
E038
E038
E038
7038
7FF8
1FF8
0038
0038
0038
0038
0038
0038
0038
0038
ENDCHAR
STARTCHAR 0428
ENCODING 1064
SWIDTH 1038 0
DWIDTH 27 0
BBX 23 19 2 0
BITMAP
E0380E
E0380E
E0380E
E0380E
E0380E
E0380E
E0380E
E0380E
E0380E
E0380E
E0380E
E0380E
E0380E
E0380E
E0380E
E0380E
E0380E
FFFFFE
FFFFFE
ENDCHAR
STARTCHAR 0429
ENCODING 1065
SWIDTH 1076 0
DWIDTH 28 0
BBX 25 23 2 -4
BITMAP
E0380E00
E0380E00
E0380E00
E0380E00
E0380E00
E0380E00
E0380E00
E0380E00
E0380E00
E0380E00
E0380E00
E0380E00
E0380E00
E0380E00
E0380E00
E0380E00
E0380E00
FFFFFF80
FFFFFF80
00000180
00000180
00000180
00000180
ENDCHAR
STARTCHAR 042A
ENCODING 1066
SWIDTH 846 0
DWIDTH 22 0
BBX 18 19 1 0
BITMAP
FF0000
FF0000
070000
070000
070000
070000
070000
070000
07FE00
07FF80
070780
0701C0
0701C0
0701C0
0701C0
0701C0
070380
07FF00
07FE00
ENDCHAR
STARTCHAR 042B
ENCODING 1067
SWIDTH 884 0
DWIDTH 23 0
BBX 18 19 2 0
BITMAP
E001C0
E001C0
E001C0
E001C0
E001C0
E001C0
E001C0
E001C0
FFC1C0
FFF1C0
E071C0
E039C0
E039C0
E039C0
E039C0
E039C0
E071C0
FFE1C0
FFC1C0
ENDCHAR
STARTCHAR 042C
ENCODING 1068
SWIDTH 653 0
DWIDTH 17 0
BBX 13 19 2 0
BITMAP
E000
E000
E000
E000
E000
E000
E000
E000
FFC0
FFF0
E070
E038
E038
E038
E038
E038
E070
FFE0
FFC0
ENDCHAR
STARTCHAR 042D
ENCODING 1069
SWIDTH 653 0
DWIDTH 17 0
BBX 15 19 1 0
BITMAP
1F80
7FE0
E078
C038
001C
001C
000E
000E
3FFE
3FFE
000E
000E
000E
001C
001C
C038
E0F8
7FE0
1F80
ENDCHAR
STARTCHAR 042E
ENCODING 1070
SWIDTH 1038 0
DWIDTH 27 0
BBX 24 19 2 0
BITMAP
E00FC0
E03FF0
E0F878
E0E01C
E1C00E
E3C00E
E38007
E38007
FF8007
FF8007
E38007
E38007
E38007
E1C00E
E1C00E
E0E01C
E07878
E03FF0
E00FC0
ENDCHAR
STARTCHAR 042F
ENCODING 1071
SWIDTH 653 0
DWIDTH 17 0
BBX 14 19 1 0
BITMAP
0FFC
1FFC
381C
701C
701C
701C
701C
701C
381C
1FFC
07FC
079C
0F1C
0E1C
1E1C
3C1C
381C
781C
F01C
ENDCHAR
STARTCHAR 0430
ENCODING 1072
SWIDTH 615 0
DWIDTH 16 0
BBX 12 14 1 0
BITMAP
1F80
7FC0
40E0
0070
0070
1FF0
7FF0
F070
E070
E070
E0F0
F1F0
7F70
3E70
ENDCHAR
STARTCHAR 0431
ENCODING 1073
SWIDTH 576 0
DWIDTH 15 0
BBX 13 20 1 1
BITMAP
07E0
1FF0
3C00
7800
7000
E000
EF80
FFE0
F8F0
F070
E038
E038
E038
E038
E038
E038
7070
78F0
3FE0
0F80
ENDCHAR
STARTCHAR 0432
ENCODING 1074
SWIDTH 576 0
DWIDTH 15 0
BBX 11 14 2 0
BITMAP
FF00
FF80
E3C0
E1C0
E1C0
E380
FE00
FFC0
E1E0
E0E0
E0E0
E1E0
FFC0
FF80
ENDCHAR
STARTCHAR 0433
ENCODING 1075
SWIDTH 538 0
DWIDTH 14 0
BBX 11 14 2 0
BITMAP
FFE0
FFE0
E000
E000
E000
E000
E000
E000
E000
E000
E000
E000
E000
E000
ENDCHAR
STARTCHAR 0434
ENCODING 1076
SWIDTH 653 0
DWIDTH 17 0
BBX 15 18 1 -4
BITMAP
0FF8
0FF8
0E38
0E38
0E38
0E38
0E38
0E38
1E38
1C38
1C38
3838
FFFE
FFFE
C006
C006
C006
C006
ENDCHAR
STARTCHAR 0435
ENCODING 1077
SWIDTH 615 0
DWIDTH 16 0
BBX 13 14 1 0
BITMAP
0FC0
3FE0
78F0
7070
E038
E038
FFF8
FFF8
E000
E000
7000
7810
3FF0
0FE0
ENDCHAR
STARTCHAR 0436
ENCODING 1078
SWIDTH 884 0
DWIDTH 23 0
BBX 21 14 2 0
BITMAP
7870F0
3C71E0
1E73C0
0F7780
07FF00
07FE00
07FF00
0FFF80
0EFB80
1E71C0
3C71E0
3870E0
7870F0
F07078
ENDCHAR
STARTCHAR 0437
ENCODING 1079
SWIDTH 576 0
DWIDTH 15 0
BBX 11 14 2 0
BITMAP
3F00
FFC0
81E0
00E0
01E0
1FC0
1F00
01C0
00E0
00E0
00E0
81E0
FFC0
7F00
ENDCHAR
STARTCHAR 0438
ENCODING 1080
SWIDTH 615 0
DWIDTH 16 0
BBX 12 14 2 0
BITMAP
E0F0
E1F0
E1F0
E3F0
E7F0
E770
EF70
FE70
FE70
FC70
FC70
F870
F070
F070
ENDCHAR
STARTCHAR 0439
ENCODING 1081
SWIDTH 615 0
DWIDTH 16 0
BBX 12 20 2 0
BITMAP
30C0
39C0
1F80
0F00
0000
0000
E0F0
E1F0
E1F0
E3F0
E7F0
E770
EF70
FE70
FE70
FC70
FC70
F870
F070
F070
ENDCHAR
STARTCHAR 043A
ENCODING 1082
SWIDTH 615 0
DWIDTH 16 0
BBX 12 14 2 0
BITMAP
E1E0
E3C0
E780
EF00
FE00
FC00
FE00
FF00
F700
E780
E3C0
E1C0
E1E0
E0F0
ENDCHAR
STARTCHAR 043B
ENCODING 1083
SWIDTH 653 0
DWIDTH 17 0
BBX 14 14 1 0
BITMAP
0FFC
0FFC
0E1C
0E1C
0E1C
0E1C
0E1C
0E1C
0E1C
1C1C
1C1C
3C1C
F81C
E01C
ENDCHAR
STARTCHAR 043C
ENCODING 1084
SWIDTH 730 0
DWIDTH 19 0
BBX 15 14 2 0
BITMAP
FC7E
FC7E
FC7E
EEFE
EEEE
EFEE
E7CE
E7CE
E7CE
E38E
E38E
E00E
E00E
E00E
ENDCHAR
STARTCHAR 043D
ENCODING 1085
SWIDTH 615 0
DWIDTH 16 0
BBX 12 14 2 0
BITMAP
E070
E070
E070
E070
E070
E070
FFF0
FFF0
E070
E070
E070
E070
E070
E070
ENDCHAR
STARTCHAR 043E
ENCODING 1086
SWIDTH 615 0
DWIDTH 16 0
BBX 13 14 1 0
BITMAP
0F80
3FE0
78F0
7070
E038
E038
E038
E038
E038
E038
7070
78F0
3FE0
0F80
ENDCHAR
STARTCHAR 043F
ENCODING 1087
SWIDTH 615 0
DWIDTH 16 0
BBX 12 14 2 0
BITMAP
FFF0
FFF0
E070
E070
E070
E070
E070
E070
E070
E070
E070
E070
E070
E070
ENDCHAR
STARTCHAR 0440
ENCODING 1088
SWIDTH 653 0
DWIDTH 17 0
BBX 13 19 2 -5
BITMAP
E7C0
EFE0
F8F0
F070
E038
E038
E038
E038
E038
E038
F070
F8F0
EFE0
E7C0
E000
E000
E000
E000
E000
ENDCHAR
STARTCHAR 0441
ENCODING 1089
SWIDTH 538 0
DWIDTH 14 0
BBX 11 14 1 0
BITMAP
0FC0
3FE0
7820
7000
E000
E000
E000
E000
E000
E000
7000
7820
3FE0
0FC0
ENDCHAR
STARTCHAR 0442
ENCODING 1090
SWIDTH 653 0
DWIDTH 17 0
BBX 15 14 1 0
BITMAP
FFFE
FFFE
0380
0380
0380
0380
0380
0380
0380
0380
0380
0380
0380
0380
ENDCHAR
STARTCHAR 0443
ENCODING 1091
SWIDTH 576 0
DWIDTH 15 0
BBX 14 19 1 -5
BITMAP
E03C
7038
7038
7870
3870
3CF0
1CE0
1DE0
0FC0
0FC0
0F80
0780
0780
0700
0F00
0E00
1E00
7C00
7800
ENDCHAR
STARTCHAR 0444
ENCODING 1092
SWIDTH 807 0
DWIDTH 21 0
BBX 19 25 1 -5
BITMAP
00E000
00E000
00E000
00E000
00E000
00E000
1EEF00
3FFF80
71F1C0
70E1C0
E0E0E0
E0E0E0
E0E0E0
E0E0E0
E0E0E0
E0E0E0
70E1C0
71F1C0
3FFF80
1EEF00
00E000
00E000
00E000
00E000
00E000
ENDCHAR
STARTCHAR 0445
ENCODING 1093
SWIDTH 576 0
DWIDTH 15 0
BBX 14 14 1 0
BITMAP
F03C
7878
3CF0
1FE0
0FC0
0FC0
0780
0780
0FC0
1FE0
1CE0
3CF0
7878
F03C
ENDCHAR
STARTCHAR 0446
ENCODING 1094
SWIDTH 653 0
DWIDTH 17 0
BBX 14 18 2 -4
BITMAP
E070
E070
E070
E070
E070
E070
E070
E070
E070
E070
E070
E070
FFFC
FFFC
000C
000C
000C
000C
ENDCHAR
STARTCHAR 0447
ENCODING 1095
SWIDTH 576 0
DWIDTH 15 0
BBX 11 14 2 0
BITMAP
E0E0
E0E0
E0E0
E0E0
E0E0
F0E0
7FE0
3FE0
00E0
00E0
00E0
00E0
00E0
00E0
ENDCHAR
STARTCHAR 0448
ENCODING 1096
SWIDTH 884 0
DWIDTH 23 0
BBX 19 14 2 0
BITMAP
E0E0E0
E0E0E0
E0E0E0
E0E0E0
E0E0E0
E0E0E0
E0E0E0
E0E0E0
E0E0E0
E0E0E0
E0E0E0
E0E0E0
FFFFE0
FFFFE0
ENDCHAR
STARTCHAR 0449
ENCODING 1097
SWIDTH 923 0
DWIDTH 24 0
BBX 21 18 2 -4
BITMAP
E0E0E0
E0E0E0
E0E0E0
E0E0E0
E0E0E0
E0E0E0
E0E0E0
E0E0E0
E0E0E0
E0E0E0
E0E0E0
E0E0E0
FFFFF8
FFFFF8
000018
000018
000018
000018
ENDCHAR
STARTCHAR 044A
ENCODING 1098
SWIDTH 653 0
DWIDTH 17 0
BBX 15 14 1 0
BITMAP
FE00
FE00
0E00
0E00
0E00
0E00
0FF8
0FFC
0E1E
0E0E
0E0E
0E1E
0FFC
0FF8
ENDCHAR
STARTCHAR 044B
ENCODING 1099
SWIDTH 807 0
DWIDTH 21 0
BBX 16 14 2 0
BITMAP
E007
E007
E007
E007
E007
E007
FF87
FFC7
E1E7
E0E7
E0E7
E1E7
FFC7
FF87
ENDCHAR
STARTCHAR 044C
ENCODING 1100
SWIDTH 538 0
DWIDTH 14 0
BBX 11 14 2 0
BITMAP
E000
E000
E000
E000
E000
E000
FF80
FFC0
E1E0
E0E0
E0E0
E1E0
FFC0
FF80
ENDCHAR
STARTCHAR 044D
ENCODING 1101
SWIDTH 538 0
DWIDTH 14 0
BBX 11 14 1 0
BITMAP
7E00
FF80
83C0
01C0
00E0
00E0
3FE0
3FE0
00E0
00E0
01C0
83C0
FF80
7E00
ENDCHAR
STARTCHAR 044E
ENCODING 1102
SWIDTH 807 0
DWIDTH 21 0
BBX 18 14 2 0
BITMAP
E0FC00
E1FF00
E3C780
E78380
E701C0
FF01C0
FF01C0
E701C0
E701C0
E701C0
E38380
E3C780
E1FF00
E07C00
ENDCHAR
STARTCHAR 044F
ENCODING 1103
SWIDTH 615 0
DWIDTH 16 0
BBX 12 14 1 0
BITMAP
1FF0
3FF0
7870
7070
7070
7870
3FF0
1FF0
0F70
1E70
1C70
3C70
7870
F070
ENDCHAR
STARTCHAR 0450
ENCODING 1104
SWIDTH 615 0
DWIDTH 16 0
BBX 13 21 1 0
BITMAP
3800
1C00
0C00
0600
0300
0000
0000
0FC0
3FE0
78F0
7070
E038
E038
FFF8
FFF8
E000
E000
7000
7810
3FF0
0FE0
ENDCHAR
STARTCHAR 0451
ENCODING 1105
SWIDTH 615 0
DWIDTH 16 0
BBX 13 20 1 0
BITMAP
38E0
38E0
38E0
0000
0000
0000
0FC0
3FE0
78F0
7070
E038
E038
FFF8
FFF8
E000
E000
7000
7810
3FF0
0FE0
ENDCHAR
STARTCHAR 0452
ENCODING 1106
SWIDTH 615 0
DWIDTH 16 0
BBX 14 25 0 -5
BITMAP
3800
3800
3800
3800
3800
3800
FFE0
FFE0
3800
3800
39E0
3BF8
3E38
3C1C
381C
381C
381C
381C
381C
3838
0038
0070
01E0
03C0
0300
ENDCHAR
STARTCHAR 0453
ENCODING 1107
SWIDTH 538 0
DWIDTH 14 0
BBX 11 21 2 0
BITMAP
00E0
01C0
0180
0300
0600
0000
0000
FFE0
FFE0
E000
E000
E000
E000
E000
E000
E000
E000
E000
E000
E000
E000
ENDCHAR
STARTCHAR 0454
ENCODING 1108
SWIDTH 538 0
DWIDTH 14 0
BBX 11 14 1 0
BITMAP
0FC0
3FE0
7820
7000
E000
E000
FFC0
FFC0
E000
E000
7000
7820
3FE0
0FC0
ENDCHAR
STARTCHAR 0455
ENCODING 1109
SWIDTH 538 0
DWIDTH 14 0
BBX 11 14 1 0
BITMAP
3F80
7FC0
F040
E000
E000
F400
7F80
1FC0
01E0
00E0
00E0
81E0
FFC0
3F00
ENDCHAR
STARTCHAR 0456
ENCODING 1110
SWIDTH 269 0
DWIDTH 7 0
BBX 3 20 2 0
BITMAP
E0
E0
E0
00
00
00
E0
E0
E0
E0
E0
E0
E0
E0
E0
E0
E0
E0
E0
E0
ENDCHAR
STARTCHAR 0457
ENCODING 1111
SWIDTH 269 0
DWIDTH 7 0
BBX 7 20 0 0
BITMAP
EE
EE
EE
00
00
00
38
38
38
38
38
38
38
38
38
38
38
38
38
38
ENDCHAR
STARTCHAR 0458
ENCODING 1112
SWIDTH 269 0
DWIDTH 7 0
BBX 6 25 -1 -5
BITMAP
1C
1C
1C
00
00
00
1C
1C
1C
1C
1C
1C
1C
1C
1C
1C
1C
1C
1C
1C
1C
1C
3C
F8
F0
ENDCHAR
STARTCHAR 0459
ENCODING 1113
SWIDTH 884 0
DWIDTH 23 0
BBX 21 14 1 0
BITMAP
0FF800
0FF800
0E3800
0E3800
0E3800
0E3800
0E3FC0
0E3FF0
0E3878
1C3838
1C3838
3C3878
F83FF0
E03FC0
ENDCHAR
STARTCHAR 045A
ENCODING 1114
SWIDTH 884 0
DWIDTH 23 0
BBX 20 14 2 0
BITMAP
E07000
E07000
E07000
E07000
E07000
E07000
FFFF80
FFFFE0
E070F0
E07070
E07070
E070F0
E07FE0
E07F80
ENDCHAR
STARTCHAR 045B
ENCODING 1115
SWIDTH 653 0
DWIDTH 17 0
BBX 14 20 0 0
BITMAP
3800
3800
3800
3800
3800
3800
FFF0
FFF0
3800
3800
39E0
3BF8
3E38
3C1C
381C
381C
381C
381C
381C
381C
ENDCHAR
STARTCHAR 045C
ENCODING 1116
SWIDTH 615 0
DWIDTH 16 0
BBX 12 21 2 0
BITMAP
01C0
0380
0300
0600
0C00
0000
0000
E1E0
E3C0
E780
EF00
FE00
FC00
FE00
FF00
F700
E780
E3C0
E1C0
E1E0
E0F0
ENDCHAR
STARTCHAR 045D
ENCODING 1117
SWIDTH 615 0
DWIDTH 16 0
BBX 12 21 2 0
BITMAP
7000
3800
1800
0C00
0600
0000
0000
E0F0
E1F0
E1F0
E3F0
E7F0
E770
EF70
FE70
FE70
FC70
FC70
F870
F070
F070
ENDCHAR
STARTCHAR 045E
ENCODING 1118
SWIDTH 576 0
DWIDTH 15 0
BBX 14 25 1 -5
BITMAP
1860
1CE0
0FC0
0780
0000
0000
E03C
7038
7038
7878
3870
3CF0
1CE0
1DE0
0FC0
0FC0
0F80
0780
0780
0700
0F00
0E00
1E00
7C00
7800
ENDCHAR
STARTCHAR 045F
ENCODING 1119
SWIDTH 615 0
DWIDTH 16 0
BBX 12 18 2 -4
BITMAP
E070
E070
E070
E070
E070
E070
E070
E070
E070
E070
E070
E070
FFF0
FFF0
0600
0600
0600
0600
ENDCHAR
STARTCHAR 0460
ENCODING 1120
SWIDTH 884 0
DWIDTH 23 0
BBX 21 19 1 0
BITMAP
1C01C0
3800E0
3800E0
700070
700070
700070
E00038
E00038
E07038
E07038
E07038
E07038
E07038
E07038
605030
70D870
79DCF0
3F8FE0
1F07C0
ENDCHAR
STARTCHAR 0461
ENCODING 1121
SWIDTH 846 0
DWIDTH 22 0
BBX 17 14 1 0
BITMAP
380E00
700700
700700
700700
E00380
E00380
E1C380
E1C380
E1C380
E1C380
E14380
736700
7F7F00
1E3C00
ENDCHAR
STARTCHAR 0462
ENCODING 1122
SWIDTH 769 0
DWIDTH 20 0
BBX 18 19 0 0
BITMAP
070000
070000
070000
FFF800
FFF800
070000
070000
070000
07FE00
07FF80
070380
0701C0
0701C0
0701C0
0701C0
0701C0
070380
07FF00
07FE00
ENDCHAR
STARTCHAR 0463
ENCODING 1123
SWIDTH 653 0
DWIDTH 17 0
BBX 15 20 1 0
BITMAP
0E00
0E00
0E00
0E00
0E00
0E00
FFF0
FFF0
0E00
0E00
0E00
0E00
0FF8
0FFC
0E1E
0E0E
0E0E
0E1E
0FFC
0FF8
ENDCHAR
STARTCHAR 0464
ENCODING 1124
SWIDTH 961 0
DWIDTH 25 0
BBX 20 19 3 0
BITMAP
C03FC0
C0FFF0
C1E030
C3C010
C38000
C70000
C70000
C70000
FFFF00
FFFF00
C70000
C70000
C70000
C70000
C38000
C38010
C1E030
C0FFF0
C03FC0
ENDCHAR
STARTCHAR 0465
ENCODING 1125
SWIDTH 730 0
DWIDTH 19 0
BBX 16 15 2 -1
BITMAP
0010
E0FF
E3EF
E380
E700
E600
E600
FFF8
E600
E600
E600
E700
E381
E1FF
E0FF
ENDCHAR
STARTCHAR 0466
ENCODING 1126
SWIDTH 884 0
DWIDTH 23 0
BBX 22 19 0 0
BITMAP
003800
007C00
007C00
00EE00
00EE00
01C700
01C700
038380
030380
0701C0
07FFC0
0FFFE0
0C38E0
1C3870
183870
383838
703838
70381C
E0380C
ENDCHAR
STARTCHAR 0467
ENCODING 1127
SWIDTH 769 0
DWIDTH 20 0
BBX 18 14 1 1
BITMAP
00E000
01E000
03B000
033800
071800
061C00
0E0C00
1FFE00
1FFE00
38C300
30C380
70C180
60C1C0
C0C0C0
ENDCHAR
STARTCHAR 0468
ENCODING 1128
SWIDTH 1153 0
DWIDTH 30 0
BBX 26 19 3 0
BITMAP
C0038000
C0078000
C007C000
C00EE000
C00CE000
C01C7000
C0387000
C0383800
FFF03800
FFF01C00
C0FFFC00
C0FFFE00
C1C38E00
C1C38700
C3838700
C3838380
C7038380
C70381C0
CE0381C0
ENDCHAR
STARTCHAR 0469
ENCODING 1129
SWIDTH 1000 0
DWIDTH 26 0
BBX 23 14 2 1
BITMAP
E00F00
E00F00
E01F80
E03980
E031C0
E070C0
FFE060
FFFFF0
E0FFF0
E18638
E38618
E3061C
E7060E
E60606
ENDCHAR
STARTCHAR 046A
ENCODING 1130
SWIDTH 769 0
DWIDTH 20 0
BBX 18 19 1 0
BITMAP
7FFFC0
3FFF80
1C0700
1E0F00
0F1E00
071C00
07BC00
03F800
07F800
0FFE00
1FFF00
3EEF00
78E780
70E380
70E380
E0E1C0
E0E1C0
E0E1C0
E0E1C0
ENDCHAR
STARTCHAR 046B
ENCODING 1131
SWIDTH 615 0
DWIDTH 16 0
BBX 13 14 2 0
BITMAP
FFF8
7FF0
38E0
3DE0
1DC0
1FC0
1FC0
3FE0
7FF0
7770
F778
E738
E738
E738
ENDCHAR
STARTCHAR 046C
ENCODING 1132
SWIDTH 1038 0
DWIDTH 27 0
BBX 22 19 3 0
BITMAP
C3FFFC
C3FFF8
C1C070
C1C070
C0E0E0
C0E0E0
C071C0
C03980
FFFB80
FFFF00
C07FC0
C1FFF0
C1CE70
C38E38
C70E18
C70E1C
C70E1C
C60E1C
C60E0C
ENDCHAR
STARTCHAR 046D
ENCODING 1133
SWIDTH 807 0
DWIDTH 21 0
BBX 18 14 2 1
BITMAP
E7FFC0
E3FF80
E38380
E1C700
E0C600
E0EE00
FFFC00
FFFE00
E1FF00
E3BB80
E33980
E739C0
E739C0
E638C0
ENDCHAR
STARTCHAR 046E
ENCODING 1134
SWIDTH 653 0
DWIDTH 17 0
BBX 13 29 1 -5
BITMAP
1860
08C0
0C80
0580
0700
3FC0
3FF0
2078
0038
0038
0038
0038
00F0
0FC0
0FE0
0070
0038
0018
0018
0018
0038
0078
3FF0
7FC0
6000
E000
6000
7FF0
3FF0
ENDCHAR
STARTCHAR 046F
ENCODING 1135
SWIDTH 538 0
DWIDTH 14 0
BBX 11 25 1 -6
BITMAP
0040
31C0
1100
1B00
0B00
0E00
7FC0
7BC0
00E0
0060
00E0
1FC0
1F00
03C0
00E0
0060
0060
00E0
7FC0
FF80
C000
C000
C000
7FC0
3FC0
ENDCHAR
STARTCHAR 0470
ENCODING 1136
SWIDTH 846 0
DWIDTH 22 0
BBX 22 19 0 0
BITMAP
006000
E0603C
606070
7060E0
3060C0
3060C0
3861C0
186180
1C6380
1C6380
0C6300
0E6700
066600
07FE00
07FE00
006000
006000
006000
006000
ENDCHAR
STARTCHAR 0471
ENCODING 1137
SWIDTH 884 0
DWIDTH 23 0
BBX 21 25 1 -6
BITMAP
00C000
00C000
00C000
00C000
00C000
00C010
C0C078
E0C0E0
60C0C0
60C1C0
70C180
30C380
38C300
18C300
18C700
1CC600
0CCE00
0CCE00
0FFC00
07FC00
00C000
00C000
00C000
00C000
00C000
ENDCHAR
STARTCHAR 0472
ENCODING 1138
SWIDTH 769 0
DWIDTH 20 0
BBX 18 19 1 0
BITMAP
03F000
0FFC00
1E1E00
380700
700380
700380
E001C0
E001C0
FFFFC0
FFFFC0
E001C0
E001C0
E001C0
700380
700380
380700
1E0E00
0FFC00
03F000
ENDCHAR
STARTCHAR 0473
ENCODING 1139
SWIDTH 615 0
DWIDTH 16 0
BBX 13 14 1 0
BITMAP
0F80
3FE0
78F0
7070
E038
FFF8
FFF8
E038
E038
E038
7070
78F0
3FE0
0F80
ENDCHAR
STARTCHAR 0474
ENCODING 1140
SWIDTH 769 0
DWIDTH 20 0
BBX 20 19 0 1
BITMAP
E000F0
6001F0
700380
300300
380700
380700
180E00
1C0E00
1C0C00
0C1C00
0E1C00
061800
073800
073000
037000
03F000
03E000
01E000
01E000
ENDCHAR
STARTCHAR 0475
ENCODING 1141
SWIDTH 653 0
DWIDTH 17 0
BBX 16 15 1 0
BITMAP
0002
C01F
E01C
6038
6030
7070
3060
38E0
18E0
18C0
1DC0
0D80
0D80
0F80
0700
ENDCHAR
STARTCHAR 0476
ENCODING 1142
SWIDTH 769 0
DWIDTH 20 0
BBX 20 24 0 1
BITMAP
066000
033000
031800
000000
000000
E000F0
6001F0
700380
300300
380700
380700
180E00
1C0E00
1C0C00
0C1C00
0E1C00
061800
073800
073000
037000
03F000
03E000
01E000
01E000
ENDCHAR
STARTCHAR 0477
ENCODING 1143
SWIDTH 653 0
DWIDTH 17 0
BBX 16 21 1 0
BITMAP
3380
1980
0CC0
0CC0
0660
0000
0002
C01F
E01C
6038
6030
7070
3060
38E0
18E0
18C0
1DC0
0D80
0D80
0F80
0700
ENDCHAR
STARTCHAR 0478
ENCODING 1144
SWIDTH 1000 0
DWIDTH 26 0
BBX 24 24 1 -5
BITMAP
0F8000
1FC000
38E000
306000
707000
603607
603706
60330E
E03B8E
E0398C
E0399C
6039D8
6030F8
6030F8
707070
707070
38E060
1FC0E0
0F80E0
0000C0
0001C0
000180
001F80
001F00
ENDCHAR
STARTCHAR 0479
ENCODING 1145
SWIDTH 923 0
DWIDTH 24 0
BBX 21 20 1 -6
BITMAP
040000
1F9818
3B9C18
70DC38
60CC30
60EE70
E0E660
E0E760
E0E7E0
60E3C0
60E3C0
60C180
70C180
3F8380
1F0300
000700
000600
000E00
007C00
007C00
ENDCHAR
STARTCHAR 047A
ENCODING 1146
SWIDTH 961 0
DWIDTH 25 0
BBX 22 19 1 0
BITMAP
003800
07FFC0
1FFFF0
3C1070
380038
70001C
70001C
60001C
E0000C
E0000C
E0000C
60001C
70001C
70001C
380038
3C0078
1FBBF0
07FFC0
003800
ENDCHAR
STARTCHAR 047B
ENCODING 1147
SWIDTH 769 0
DWIDTH 20 0
BBX 17 14 1 0
BITMAP
07F800
1FFE00
388700
700380
600380
600180
E00180
E00180
600180
600380
700300
38C700
1FFE00
03F000
ENDCHAR
STARTCHAR 047C
ENCODING 1148
SWIDTH 1192 0
DWIDTH 31 0
BBX 28 24 1 1
BITMAP
000FC000
007CE000
00706000
00070000
00070000
00030000
00020000
1C060380
380001C0
380001C0
700000E0
700000E0
700000E0
E0000070
E0000070
E0000070
E0000070
E0000070
E0000070
E01F8070
603FC0E0
70F070E0
3FC03FC0
1F000F80
ENDCHAR
STARTCHAR 047D
ENCODING 1149
SWIDTH 1038 0
DWIDTH 27 0
BBX 23 19 1 1
BITMAP
003F00
01F380
01C180
001C00
001C00
000C00
000800
381838
70001C
70001C
F0001E
E0000E
E0000E
E0000E
E07C0E
E0FE0E
F3C79E
7F01FC
3E00F8
ENDCHAR
STARTCHAR 047E
ENCODING 1150
SWIDTH 923 0
DWIDTH 24 0
BBX 21 23 1 0
BITMAP
07FF80
033300
020100
000000
1C01C0
3800E0
3800E0
700070
700070
700070
E00038
E00038
E07038
E07038
E07038
E07038
E07038
E07038
605030
70D870
79DCF0
3F8FE0
1F07C0
ENDCHAR
STARTCHAR 047F
ENCODING 1151
SWIDTH 846 0
DWIDTH 22 0
BBX 17 19 1 0
BITMAP
0FFF00
066600
040200
000000
000000
380E00
700700
700700
700700
E00380
E00380
E1C380
E1C380
E1C380
E1C380
E14380
736700
7F7F00
1E3C00
ENDCHAR
STARTCHAR 0480
ENCODING 1152
SWIDTH 692 0
DWIDTH 18 0
BBX 15 24 1 -5
BITMAP
03F0
0FFC
1E0E
3806
7000
7000
E000
E000
E000
E000
E000
E000
E000
7000
7000
3800
3E00
1FFC
03FC
001C
001C
001C
001C
001C
ENDCHAR
STARTCHAR 0481
ENCODING 1153
SWIDTH 538 0
DWIDTH 14 0
BBX 11 19 1 -5
BITMAP
0FC0
3FE0
7820
7000
E000
E000
E000
E000
E000
E000
7000
7800
3FC0
0FC0
01C0
01C0
01C0
01C0
01C0
ENDCHAR
STARTCHAR 0482
ENCODING 1154
SWIDTH 500 0
DWIDTH 13 0
BBX 11 13 1 -2
BITMAP
0100
19C0
1F80
1F80
07C0
07E0
EEE0
FC00
7C00
3F00
3F00
7100
3000
ENDCHAR
STARTCHAR 0483
ENCODING 1155
SWIDTH 0 0
DWIDTH 0 0
BBX 11 5 -13 16
BITMAP
00C0
01E0
FFC0
E000
E000
ENDCHAR
STARTCHAR 0484
ENCODING 1156
SWIDTH 0 0
DWIDTH 0 0
BBX 10 3 -10 17
BITMAP
1F80
F9C0
E0C0
ENDCHAR
STARTCHAR 0485
ENCODING 1157
SWIDTH 0 0
DWIDTH 0 0
BBX 3 6 -7 15
BITMAP
E0
E0
80
80
E0
20
ENDCHAR
STARTCHAR 0486
ENCODING 1158
SWIDTH 0 0
DWIDTH 0 0
BBX 3 5 -7 15
BITMAP
E0
E0
60
40
C0
ENDCHAR
STARTCHAR 0487
ENCODING 1159
SWIDTH 0 0
DWIDTH 0 0
BBX 20 4 -20 16
BITMAP
1FE000
78FC00
E01FC0
C003F0
ENDCHAR
STARTCHAR 0488
ENCODING 1160
SWIDTH 423 0
DWIDTH 11 0
BBX 37 29 -26 -5
BITMAP
0000F00000
0001F80000
00030C0000
00030C0000
07C0003E00
0EE0007700
0C3000C100
0000000000
0000000000
0000000000
0000000000
0000000000
0000000000
7C000003F0
EE00000770
8200000418
0000000000
0000000000
0000000000
0000000000
0000000000
0180001800
07E0007E00
0C60006300
083000C100
0000F00000
0001F80000
00030C0000
00030C0000
ENDCHAR
STARTCHAR 0489
ENCODING 1161
SWIDTH 423 0
DWIDTH 11 0
BBX 34 34 -25 -8
BITMAP
0000200000
0000600000
0000600000
0000E00000
0200C00000
0300C00000
0300C00C00
0380007C00
01C000F000
01C000E000
0080004000
0000000000
0000000000
0000000000
0000000000
C000000000
FC00000E00
3C00000F80
0C00000FC0
0000000040
0000000000
0000000000
0000000000
0000000000
0080004000
01C000E000
07C000E000
0F80007000
0800C03000
0000C03000
0000C01000
0001C00000
0001800000
0001800000
ENDCHAR
STARTCHAR 048A
ENCODING 1162
SWIDTH 769 0
DWIDTH 20 0
BBX 16 29 3 -6
BITMAP
1860
1FE0
0780
0000
0000
C03C
C03C
C07C
C07C
C0FC
C0DC
C1DC
C39C
C39C
C71C
C71C
CE1C
CC1C
DC1C
D81C
F81C
F01C
F01F
E01F
0003
0006
000C
0018
0018
ENDCHAR
STARTCHAR 048B
ENCODING 1163
SWIDTH 692 0
DWIDTH 18 0
BBX 15 25 2 -6
BITMAP
1860
1CE0
0FC0
0780
0000
0000
E078
E078
E0F8
E1F8
E1B8
E3B8
E338
E638
EE38
EC38
FC38
F838
F03E
F03E
000E
000C
0018
0018
0030
ENDCHAR
STARTCHAR 048C
ENCODING 1164
SWIDTH 692 0
DWIDTH 18 0
BBX 15 19 1 0
BITMAP
3800
3800
3800
FE00
FE00
3800
3800
3800
3FF0
3FFC
381C
380E
380E
380E
380E
380E
381C
3FF8
3FF0
ENDCHAR
STARTCHAR 048D
ENCODING 1165
SWIDTH 538 0
DWIDTH 14 0
BBX 13 18 0 0
BITMAP
3800
3800
3800
3800
FE00
FE00
3800
3800
3800
3800
3FE0
3FF0
3878
3838
3838
3878
3FF0
3FE0
ENDCHAR
STARTCHAR 048E
ENCODING 1166
SWIDTH 615 0
DWIDTH 16 0
BBX 13 19 3 0
BITMAP
FF00
FFC0
C1E0
C0E0
C070
C270
C770
C3F0
C1E0
FFF0
FFB8
C010
C000
C000
C000
C000
C000
C000
C000
ENDCHAR
STARTCHAR 048F
ENCODING 1167
SWIDTH 653 0
DWIDTH 17 0
BBX 13 20 2 -6
BITMAP
0100
EFC0
FDE0
F070
E038
E038
E018
E018
E018
E018
E1B8
E1B0
F0F0
FFE0
EFF0
E038
E010
E000
E000
E000
ENDCHAR
STARTCHAR 0490
ENCODING 1168
SWIDTH 615 0
DWIDTH 16 0
BBX 12 23 2 0
BITMAP
0030
0030
0030
0030
FFF0
FFF0
E000
E000
E000
E000
E000
E000
E000
E000
E000
E000
E000
E000
E000
E000
E000
E000
E000
ENDCHAR
STARTCHAR 0491
ENCODING 1169
SWIDTH 538 0
DWIDTH 14 0
BBX 11 18 2 0
BITMAP
0060
0060
0060
0060
FFE0
FFE0
E000
E000
E000
E000
E000
E000
E000
E000
E000
E000
E000
E000
ENDCHAR
STARTCHAR 0492
ENCODING 1170
SWIDTH 692 0
DWIDTH 18 0
BBX 15 19 1 0
BITMAP
1FFE
1FFE
1C00
1C00
1C00
1C00
1C00
1C00
FFF8
FFF8
1C00
1C00
1C00
1C00
1C00
1C00
1C00
1C00
1C00
ENDCHAR
STARTCHAR 0493
ENCODING 1171
SWIDTH 615 0
DWIDTH 16 0
BBX 14 14 1 0
BITMAP
1FFC
1FFC
1C00
1C00
1C00
1C00
FFE0
FFE0
1C00
1C00
1C00
1C00
1C00
1C00
ENDCHAR
STARTCHAR 0494
ENCODING 1172
SWIDTH 615 0
DWIDTH 16 0
BBX 13 24 2 -5
BITMAP
FFF0
FFF0
E000
E000
E000
E000
E000
E000
FFC0
FFF0
E070
E038
E038
E038
E038
E038
E038
E038
E038
0038
0038
0070
03F0
03C0
ENDCHAR
STARTCHAR 0495
ENCODING 1173
SWIDTH 538 0
DWIDTH 14 0
BBX 11 19 2 -5
BITMAP
FFC0
FFC0
E000
E000
E000
E000
FF80
FFC0
E0E0
E0E0
E0E0
E0E0
E0E0
E0E0
00E0
00E0
01E0
0FC0
0F80
ENDCHAR
STARTCHAR 0496
ENCODING 1174
SWIDTH 1076 0
DWIDTH 28 0
BBX 27 23 1 -5
BITMAP
E00C03C0
700C0380
380C0700
1C0C0E00
0E0C1C00
070C3800
038C7000
01CCE000
03EDF000
037FB000
073F3800
0E1E1C00
0C1E0C00
1C0C0E00
380C0700
300C0300
700C0380
E00C01E0
E00C01E0
000000E0
000000E0
000000E0
000000E0
ENDCHAR
STARTCHAR 0497
ENCODING 1175
SWIDTH 884 0
DWIDTH 23 0
BBX 22 18 1 -3
BITMAP
703070
3830E0
1C30C0
0E3180
073300
03B700
07FF80
0EFD80
0C79C0
1830E0
383060
303070
60303C
E0301C
00001C
00001C
00001C
00001C
ENDCHAR
STARTCHAR 0498
ENCODING 1176
SWIDTH 653 0
DWIDTH 17 0
BBX 13 24 2 -5
BITMAP
1F80
7FE0
E070
C038
8038
0038
0078
1FF0
1FC0
00E0
0070
0038
0038
0038
0038
8078
E0F0
7FE0
1F80
0600
0300
0300
1F00
1E00
ENDCHAR
STARTCHAR 0499
ENCODING 1177
SWIDTH 576 0
DWIDTH 15 0
BBX 11 19 2 -5
BITMAP
3F00
FFC0
81E0
00E0
01E0
1FC0
1F00
01C0
00E0
00E0
00E0
81E0
FFC0
7F00
1800
0C00
0C00
7C00
7800
ENDCHAR
STARTCHAR 049A
ENCODING 1178
SWIDTH 692 0
DWIDTH 18 0
BBX 16 23 3 -5
BITMAP
C01C
C038
C070
C0E0
C1C0
C380
C700
CE00
DF00
FB80
F380
E1C0
C0E0
C0E0
C070
C038
C038
C01F
C00F
0007
0007
0007
0007
ENDCHAR
STARTCHAR 049B
ENCODING 1179
SWIDTH 615 0
DWIDTH 16 0
BBX 13 18 2 -3
BITMAP
E060
E0C0
E180
E300
E600
EE00
FF00
FB00
F380
E1C0
E0C0
E0E0
E078
E038
0018
0018
0018
0018
ENDCHAR
STARTCHAR 049C
ENCODING 1180
SWIDTH 692 0
DWIDTH 18 0
BBX 15 19 3 0
BITMAP
C01C
C038
C070
CCE0
CDC0
CF80
CF00
CE00
DF00
FF80
FF80
EDC0
CCE0
CCE0
CC70
C038
C038
C01C
C00E
ENDCHAR
STARTCHAR 049D
ENCODING 1181
SWIDTH 615 0
DWIDTH 16 0
BBX 13 14 2 1
BITMAP
E060
E0C0
E980
EB00
EE00
EE00
FF00
FB00
FB80
E9C0
E8C0
E0E0
E070
E038
ENDCHAR
STARTCHAR 049E
ENCODING 1182
SWIDTH 692 0
DWIDTH 18 0
BBX 18 19 0 0
BITMAP
180380
180700
180E00
FE1C00
FE3800
187000
18E000
19C000
1BE000
1F7000
1E7000
1C3800
181C00
181C00
180E00
180700
180700
180380
1801C0
ENDCHAR
STARTCHAR 049F
ENCODING 1183
SWIDTH 615 0
DWIDTH 16 0
BBX 14 20 1 0
BITMAP
7000
7000
FF00
7000
7000
7000
7030
7060
70C0
7180
7300
7700
7F80
7D80
79C0
70E0
7060
7070
7038
701C
ENDCHAR
STARTCHAR 04A0
ENCODING 1184
SWIDTH 846 0
DWIDTH 22 0
BBX 21 19 1 0
BITMAP
FF80F8
FF81F0
0381E0
0383C0
038780
038F00
039E00
03BC00
03FE00
03FE00
03EF00
03C700
038780
0383C0
0381C0
0381E0
0380E0
038070
038078
ENDCHAR
STARTCHAR 04A1
ENCODING 1185
SWIDTH 846 0
DWIDTH 22 0
BBX 17 14 1 0
BITMAP
FF0F00
FF1E00
073C00
077800
07F000
07E000
07F000
07F800
07B800
073C00
071E00
070E00
070F00
070780
ENDCHAR
STARTCHAR 04A2
ENCODING 1186
SWIDTH 769 0
DWIDTH 20 0
BBX 16 23 2 -4
BITMAP
E01C
E01C
E01C
E01C
E01C
E01C
E01C
E01C
FFFC
FFFC
E01C
E01C
E01C
E01C
E01C
E01C
E01C
E01F
E01F
0003
0003
0003
0003
ENDCHAR
STARTCHAR 04A3
ENCODING 1187
SWIDTH 615 0
DWIDTH 16 0
BBX 14 18 2 -4
BITMAP
E070
E070
E070
E070
E070
E070
FFF0
FFF0
E070
E070
E070
E070
E07C
E07C
000C
000C
000C
000C
ENDCHAR
STARTCHAR 04A4
ENCODING 1188
SWIDTH 1000 0
DWIDTH 26 0
BBX 23 19 2 0
BITMAP
E01FFE
E01FFE
E01C00
E01C00
E01C00
E01C00
E01C00
E01C00
FFFC00
FFFC00
E01C00
E01C00
E01C00
E01C00
E01C00
E01C00
E01C00
E01C00
E01C00
ENDCHAR
STARTCHAR 04A5
ENCODING 1189
SWIDTH 884 0
DWIDTH 23 0
BBX 20 14 2 0
BITMAP
E07FF0
E07FF0
E07000
E07000
E07000
E07000
FFF000
FFF000
E07000
E07000
E07000
E07000
E07000
E07000
ENDCHAR
STARTCHAR 04A6
ENCODING 1190
SWIDTH 1076 0
DWIDTH 28 0
BBX 25 24 2 -5
BITMAP
FFFC0000
FFFC0000
E01C0000
E01C0000
E01C0000
E01C0000
E01C0000
E01C0000
E01FFC00
E01FFF00
E01C0700
E01C0780
E01C0380
E01C0380
E01C0380
E01C0380
E01C0380
E01C0380
E01C0380
00000380
00000380
00000700
00003F00
00003C00
ENDCHAR
STARTCHAR 04A7
ENCODING 1191
SWIDTH 923 0
DWIDTH 24 0
BBX 21 19 2 -5
BITMAP
FFF000
FFF000
E07000
E07000
E07000
E07000
E07FE0
E07FF0
E07038
E07038
E07038
E07038
E07038
E07038
000038
000038
000078
0003F0
0003E0
ENDCHAR
STARTCHAR 04A8
ENCODING 1192
SWIDTH 884 0
DWIDTH 23 0
BBX 22 19 1 0
BITMAP
038000
0F8F80
1E1FC0
3838E0
3870E0
707070
707070
607070
E06070
E07070
E07070
607060
7030E0
7038E0
7019C0
381D80
1C0F80
0FFFFC
03FDFC
ENDCHAR
STARTCHAR 04A9
ENCODING 1193
SWIDTH 692 0
DWIDTH 18 0
BBX 17 15 1 -1
BITMAP
010000
0F0000
3E7800
38FC00
70CE00
60C600
61C600
E1C600
E1C600
60CE00
60CE00
70EC00
387800
3FFF80
0FFF80
ENDCHAR
STARTCHAR 04AA
ENCODING 1194
SWIDTH 692 0
DWIDTH 18 0
BBX 15 24 1 -5
BITMAP
03F0
0FFC
3E0E
3806
7000
7000
E000
E000
E000
E000
E000
E000
E000
7000
7000
3806
3E0E
0FFC
03F0
0060
0030
0030
01F0
01E0
ENDCHAR
STARTCHAR 04AB
ENCODING 1195
SWIDTH 538 0
DWIDTH 14 0
BBX 11 19 1 -5
BITMAP
0FC0
3FE0
7820
7000
E000
E000
E000
E000
E000
E000
7000
7820
3FE0
0FC0
0180
00C0
00C0
07C0
0780
ENDCHAR
STARTCHAR 04AC
ENCODING 1196
SWIDTH 653 0
DWIDTH 17 0
BBX 17 23 0 -4
BITMAP
FFFF80
FFFF80
01C000
01C000
01C000
01C000
01C000
01C000
01C000
01C000
01C000
01C000
01C000
01C000
01C000
01C000
01C000
01F800
01F800
003800
003800
003800
003800
ENDCHAR
STARTCHAR 04AD
ENCODING 1197
SWIDTH 653 0
DWIDTH 17 0
BBX 15 18 1 -4
BITMAP
FFFE
FFFE
0380
0380
0380
0380
0380
0380
0380
0380
0380
0380
03F0
03F0
0070
0070
0070
0070
ENDCHAR
STARTCHAR 04AE
ENCODING 1198
SWIDTH 615 0
DWIDTH 16 0
BBX 17 19 0 0
BITMAP
F00780
780F00
380E00
3C1E00
1E3C00
0F7800
077000
07F000
03E000
01C000
01C000
01C000
01C000
01C000
01C000
01C000
01C000
01C000
01C000
ENDCHAR
STARTCHAR 04AF
ENCODING 1199
SWIDTH 576 0
DWIDTH 15 0
BBX 15 19 1 -5
BITMAP
F01E
701C
701C
3838
3838
3C78
1C70
1EF0
0EE0
0FE0
07C0
07C0
0380
0380
0380
0380
0380
0380
0380
ENDCHAR
STARTCHAR 04B0
ENCODING 1200
SWIDTH 615 0
DWIDTH 16 0
BBX 16 19 0 0
BITMAP
E007
700E
300C
381C
1C38
0C70
0E70
07E0
03C0
03C0
0180
0180
1FF8
1FF8
0180
0180
0180
0180
0180
ENDCHAR
STARTCHAR 04B1
ENCODING 1201
SWIDTH 576 0
DWIDTH 15 0
BBX 13 19 1 -5
BITMAP
E018
6038
6038
7030
3070
3860
18E0
18E0
1CC0
0DC0
0F80
0780
0780
0700
0300
3FE0
3FE0
0300
0300
ENDCHAR
STARTCHAR 04B2
ENCODING 1202
SWIDTH 692 0
DWIDTH 18 0
BBX 16 23 1 -5
BITMAP
7006
300E
381C
1C38
0C38
0E70
07E0
03E0
03C0
03C0
07C0
07E0
0E70
1C30
1C38
381C
700C
700F
E007
0007
0007
0007
0007
ENDCHAR
STARTCHAR 04B3
ENCODING 1203
SWIDTH 576 0
DWIDTH 15 0
BBX 14 18 1 -3
BITMAP
7038
3070
38E0
1CE0
0DC0
0F80
0700
0780
0F80
1DC0
38E0
3070
703C
E03C
001C
001C
001C
001C
ENDCHAR
STARTCHAR 04B4
ENCODING 1204
SWIDTH 923 0
DWIDTH 24 0
BBX 23 23 0 -4
BITMAP
FFFFB8
FFFFB8
01C038
01C038
01C038
01C038
01C038
01C038
01C038
01C038
01C038
01C038
01C038
01C038
01C038
01C038
01C038
01FFFE
01FFFE
000006
000006
000006
000006
ENDCHAR
STARTCHAR 04B5
ENCODING 1205
SWIDTH 807 0
DWIDTH 21 0
BBX 20 18 0 -4
BITMAP
FFFFC0
FFFFC0
0381C0
0381C0
0381C0
0381C0
0381C0
0381C0
0381C0
0381C0
0381C0
0381C0
03FFF0
03FFF0
000030
000030
000030
000030
ENDCHAR
STARTCHAR 04B6
ENCODING 1206
SWIDTH 653 0
DWIDTH 17 0
BBX 15 23 2 -4
BITMAP
E038
E038
E038
E038
E038
E038
E038
7038
7FF8
1FF8
0038
0038
0038
0038
0038
0038
0038
003E
003E
0006
0006
0006
0006
ENDCHAR
STARTCHAR 04B7
ENCODING 1207
SWIDTH 576 0
DWIDTH 15 0
BBX 13 18 2 -4
BITMAP
E0E0
E0E0
E0E0
E0E0
E0E0
F0E0
7FE0
3FE0
00E0
00E0
00E0
00E0
00F8
00F8
0018
0018
0018
0018
ENDCHAR
STARTCHAR 04B8
ENCODING 1208
SWIDTH 692 0
DWIDTH 18 0
BBX 13 19 2 0
BITMAP
E018
E018
E018
E018
E318
E318
6318
7318
3FF8
1FF8
0318
0318
0318
0318
0018
0018
0018
0018
0018
ENDCHAR
STARTCHAR 04B9
ENCODING 1209
SWIDTH 576 0
DWIDTH 15 0
BBX 11 14 2 1
BITMAP
C060
C060
C060
CC60
EC60
7FE0
7FE0
0C60
0C60
0C60
0060
0060
0060
0060
ENDCHAR
STARTCHAR 04BA
ENCODING 1210
SWIDTH 692 0
DWIDTH 18 0
BBX 13 19 2 0
BITMAP
E000
E000
E000
E000
E000
E000
E000
E000
FFC0
FFF0
E070
E038
E038
E038
E038
E038
E038
E038
E038
ENDCHAR
STARTCHAR 04BB
ENCODING 1211
SWIDTH 615 0
DWIDTH 16 0
BBX 12 20 2 0
BITMAP
E000
E000
E000
E000
E000
E000
E7C0
EFE0
F8E0
F070
E070
E070
E070
E070
E070
E070
E070
E070
E070
E070
ENDCHAR
STARTCHAR 04BC
ENCODING 1212
SWIDTH 923 0
DWIDTH 24 0
BBX 23 19 0 0
BITMAP
001F80
00FFE0
01E078
E3C038
E3801C
E7000C
77000E
7FFFFE
1FFFFE
070000
070000
070000
030000
038000
03C000
01C004
00F01C
007FFC
001FF0
ENDCHAR
STARTCHAR 04BD
ENCODING 1213
SWIDTH 730 0
DWIDTH 19 0
BBX 17 14 0 0
BITMAP
00F800
03FE00
078F00
E70700
EE0380
EE0380
7FFF80
3FFF80
0E0000
0E0000
070000
078100
03FF00
00FE00
ENDCHAR
STARTCHAR 04BE
ENCODING 1214
SWIDTH 923 0
DWIDTH 24 0
BBX 23 24 0 -4
BITMAP
003FC0
007FF0
00E078
01C038
C3801C
C3800C
E3800E
73000E
3FFFFE
1FFFFE
070000
030000
030000
038000
038000
01C004
00E01C
007FFC
003FF0
000700
000700
000700
000700
000700
ENDCHAR
STARTCHAR 04BF
ENCODING 1215
SWIDTH 730 0
DWIDTH 19 0
BBX 18 19 0 -5
BITMAP
001000
01FE00
03EF00
C70380
C60180
C60180
7E01C0
3FFFC0
0E0000
0E0000
060000
070000
038080
03FF80
00FF00
003000
003000
003000
003000
ENDCHAR
STARTCHAR 04C0
ENCODING 1216
SWIDTH 307 0
DWIDTH 8 0
BBX 3 19 2 0
BITMAP
E0
E0
E0
E0
E0
E0
E0
E0
E0
E0
E0
E0
E0
E0
E0
E0
E0
E0
E0
ENDCHAR
STARTCHAR 04C1
ENCODING 1217
SWIDTH 1076 0
DWIDTH 28 0
BBX 27 24 1 0
BITMAP
0030C000
003FC000
000F0000
00000000
00000000
F80E03E0
7C0E07C0
3C0E0780
1E0E0F00
0F0E1E00
078E3C00
03CE7800
01EEF000
03FFF800
03FFF800
07BFBC00
071F1C00
0F0E1E00
1E0E0F00
1C0E0700
3C0E0780
380E0380
700E01C0
F00E01E0
ENDCHAR
STARTCHAR 04C2
ENCODING 1218
SWIDTH 884 0
DWIDTH 23 0
BBX 21 21 2 0
BITMAP
030C00
039C00
01F800
00F000
000000
000000
000000
7870F0
3C71E0
1E73C0
0F7780
07FF00
07FE00
07FF00
0FFF80
0EFB80
1E71C0
3C71E0
3870E0
7870F0
F07078
ENDCHAR
STARTCHAR 04C3
ENCODING 1219
SWIDTH 653 0
DWIDTH 17 0
BBX 13 24 3 -6
BITMAP
C038
C070
C0E0
C1C0
C380
C700
CE00
DC00
FFC0
FFE0
C070
C030
C038
C038
C038
C038
C038
C038
C038
0030
0030
0070
03E0
03C0
ENDCHAR
STARTCHAR 04C4
ENCODING 1220
SWIDTH 615 0
DWIDTH 16 0
BBX 12 19 2 -5
BITMAP
E070
E0E0
E1C0
E780
EE00
FC00
FFC0
FFE0
E0E0
E060
E060
E060
E060
E060
0060
0060
0060
0FE0
0FC0
ENDCHAR
STARTCHAR 04C5
ENCODING 1221
SWIDTH 769 0
DWIDTH 20 0
BBX 19 24 1 -6
BITMAP
07FF00
07FF00
060700
060700
060700
060700
060700
060700
0E0700
0E0700
0E0700
0E0700
0C0700
0C0700
1C0700
1C0700
380700
F007E0
E007E0
0000C0
000180
000300
000700
000600
ENDCHAR
STARTCHAR 04C6
ENCODING 1222
SWIDTH 653 0
DWIDTH 17 0
BBX 16 19 1 -5
BITMAP
0FF8
0FF8
0C18
0C18
0C18
0C18
0C18
1C18
1C18
1818
1818
3818
F01F
E01F
0006
0006
000C
0008
0018
ENDCHAR
STARTCHAR 04C7
ENCODING 1223
SWIDTH 692 0
DWIDTH 18 0
BBX 14 24 2 -5
BITMAP
E01C
E01C
E01C
E01C
E01C
E01C
E01C
E01C
FFFC
FFFC
E01C
E01C
E01C
E01C
E01C
E01C
E01C
E01C
E01C
001C
001C
0038
01F8
01E0
ENDCHAR
STARTCHAR 04C8
ENCODING 1224
SWIDTH 615 0
DWIDTH 16 0
BBX 12 19 2 -5
BITMAP
E070
E070
E070
E070
E070
E070
FFF0
FFF0
E070
E070
E070
E070
E070
E070
0070
0070
00F0
07E0
07C0
ENDCHAR
STARTCHAR 04C9
ENCODING 1225
SWIDTH 769 0
DWIDTH 20 0
BBX 17 24 3 -6
BITMAP
C01C00
C01C00
C01C00
C01C00
C01C00
C01C00
C01C00
C01C00
FFFC00
FFFC00
C01C00
C01C00
C01C00
C01C00
C01C00
C01C00
C01C00
C01F80
C01F80
000300
000600
000C00
000C00
001800
ENDCHAR
STARTCHAR 04CA
ENCODING 1226
SWIDTH 692 0
DWIDTH 18 0
BBX 15 19 2 -5
BITMAP
E038
E038
E038
E038
E038
E038
FFF8
E038
E038
E038
E038
E038
E03E
E03E
000E
000C
0018
0018
0030
ENDCHAR
STARTCHAR 04CB
ENCODING 1227
SWIDTH 653 0
DWIDTH 17 0
BBX 13 23 2 -4
BITMAP
E038
E038
E038
E038
E038
E038
E038
7038
7FF8
1FF8
0038
0038
0038
0038
0038
0038
0038
01F8
01F8
01C0
01C0
01C0
01C0
ENDCHAR
STARTCHAR 04CC
ENCODING 1228
SWIDTH 576 0
DWIDTH 15 0
BBX 11 18 2 -4
BITMAP
E0E0
E0E0
E0E0
E0E0
E0E0
F0E0
7FE0
3FE0
00E0
00E0
00E0
00E0
07E0
07E0
0700
0700
0700
0700
ENDCHAR
STARTCHAR 04CD
ENCODING 1229
SWIDTH 884 0
DWIDTH 23 0
BBX 19 24 3 -6
BITMAP
F00780
F00780
F00F80
F80F80
D81F80
D81B80
CC1B80
CC3380
CE3380
C67380
C66380
C76380
C3E380
C3C380
C1C380
C00380
C00380
C003E0
C003E0
000060
0000C0
000180
000300
000300
ENDCHAR
STARTCHAR 04CE
ENCODING 1230
SWIDTH 769 0
DWIDTH 20 0
BBX 18 19 2 -5
BITMAP
F00E00
F81E00
F81E00
F83600
EC3600
EC6600
E66600
E66600
E6C600
E3C600
E38600
E00600
E007C0
E007C0
000180
000380
000300
000600
000400
ENDCHAR
STARTCHAR 04CF
ENCODING 1231
SWIDTH 269 0
DWIDTH 7 0
BBX 3 20 2 0
BITMAP
E0
E0
E0
E0
E0
E0
E0
E0
E0
E0
E0
E0
E0
E0
E0
E0
E0
E0
E0
E0
ENDCHAR
STARTCHAR 04D0
ENCODING 1232
SWIDTH 692 0
DWIDTH 18 0
BBX 17 25 0 0
BITMAP
063000
063000
03E000
01C000
000000
000000
01C000
01C000
03E000
03E000
07F000
077000
077000
0F3800
0E3800
0E3800
1C1C00
1C1C00
3FFE00
3FFE00
380E00
780F00
700700
700700
E00380
ENDCHAR
STARTCHAR 04D1
ENCODING 1233
SWIDTH 615 0
DWIDTH 16 0
BBX 12 20 1 0
BITMAP
30C0
39C0
1F80
0F00
0000
0000
1F80
7FC0
40E0
0070
0070
1FF0
7FF0
F070
E070
E070
E0F0
F1F0
7F70
3E70
ENDCHAR
STARTCHAR 04D2
ENCODING 1234
SWIDTH 692 0
DWIDTH 18 0
BBX 17 24 0 0
BITMAP
077000
077000
077000
000000
000000
01C000
01C000
03E000
03E000
07F000
077000
077000
0F3800
0E3800
0E3800
1C1C00
1C1C00
3FFE00
3FFE00
380E00
780F00
700700
700700
E00380
ENDCHAR
STARTCHAR 04D3
ENCODING 1235
SWIDTH 615 0
DWIDTH 16 0
BBX 12 20 1 0
BITMAP
39C0
39C0
39C0
0000
0000
0000
1F80
7FC0
40E0
0070
0070
1FF0
7FF0
F070
E070
E070
E0F0
F1F0
7F70
3E70
ENDCHAR
ENDFONT
